<svg width="38" height="24" viewBox="0 0 38 24" fill="none" xmlns="http://www.w3.org/2000/svg">
<path d="M4.01049 3.625H33.9855L18.998 20.7531L4.01049 3.625ZM1.65737 5.68438L16.6449 22.8094C16.9382 23.145 17.2999 23.4141 17.7058 23.5984C18.1116 23.7827 18.5522 23.8781 18.998 23.8781C19.4438 23.8781 19.8844 23.7827 20.2902 23.5984C20.6961 23.4141 21.0578 23.145 21.3511 22.8094L36.3386 5.68438C38.1074 3.6625 36.6699 0.500001 33.9855 0.500001H4.01049C3.40973 0.499486 2.82155 0.67215 2.31639 0.997315C1.81124 1.32248 1.41051 1.78637 1.16221 2.33342C0.913915 2.88047 0.828564 3.48749 0.916382 4.08181C1.0042 4.67612 1.26146 5.23252 1.65737 5.68438Z" fill="white"/>
</svg>
