<svg width="11" height="11" viewBox="0 0 11 11" fill="none" xmlns="http://www.w3.org/2000/svg">
<g clip-path="url(#clip0_2292_10726)">
<path d="M3.8514 3.0254C3.67852 3.0254 3.53516 2.88204 3.53516 2.70915V1.44417C3.53516 1.27129 3.67852 1.12793 3.8514 1.12793C4.02428 1.12793 4.16765 1.27129 4.16765 1.44417V2.70915C4.16765 2.88204 4.02428 3.0254 3.8514 3.0254Z" fill="white"/>
<path d="M7.22445 3.0254C7.05157 3.0254 6.9082 2.88204 6.9082 2.70915V1.44417C6.9082 1.27129 7.05157 1.12793 7.22445 1.12793C7.39733 1.12793 7.54069 1.27129 7.54069 1.44417V2.70915C7.54069 2.88204 7.39733 3.0254 7.22445 3.0254Z" fill="white"/>
<path d="M4.06229 6.715C4.00747 6.715 3.95265 6.70235 3.90205 6.68127C3.84724 6.66019 3.80507 6.63067 3.76291 6.59272C3.68701 6.5126 3.64062 6.40719 3.64062 6.29334C3.64062 6.23853 3.65327 6.18371 3.67436 6.13311C3.69544 6.08251 3.72496 6.03613 3.76291 5.99396C3.80507 5.95601 3.84724 5.9265 3.90205 5.90541C4.05385 5.84216 4.2436 5.8759 4.36166 5.99396C4.43756 6.07408 4.48395 6.18371 4.48395 6.29334C4.48395 6.31864 4.47973 6.34816 4.47551 6.37767C4.47129 6.40297 4.46286 6.42827 4.45021 6.45357C4.44178 6.47887 4.42913 6.50417 4.41226 6.52947C4.39961 6.55055 4.37853 6.57164 4.36166 6.59272C4.28155 6.66862 4.17192 6.715 4.06229 6.715Z" fill="white"/>
<path d="M5.53787 6.71492C5.48306 6.71492 5.42824 6.70227 5.37764 6.68119C5.32282 6.66011 5.28066 6.63059 5.23849 6.59264C5.16259 6.51252 5.11621 6.40711 5.11621 6.29326C5.11621 6.23845 5.12886 6.18363 5.14994 6.13303C5.17103 6.08243 5.20054 6.03605 5.23849 5.99388C5.28066 5.95593 5.32282 5.92642 5.37764 5.90533C5.52944 5.83787 5.71918 5.87582 5.83725 5.99388C5.91315 6.074 5.95953 6.18363 5.95953 6.29326C5.95953 6.31856 5.95531 6.34808 5.9511 6.37759C5.94688 6.40289 5.93845 6.42819 5.9258 6.45349C5.91736 6.47879 5.90472 6.50409 5.88785 6.52939C5.8752 6.55047 5.85412 6.57156 5.83725 6.59264C5.75713 6.66854 5.6475 6.71492 5.53787 6.71492Z" fill="white"/>
<path d="M7.01346 6.71492C6.95864 6.71492 6.90383 6.70227 6.85323 6.68119C6.79841 6.66011 6.75624 6.63059 6.71408 6.59264C6.69721 6.57156 6.68035 6.55047 6.66348 6.52939C6.64661 6.50409 6.63396 6.47879 6.62553 6.45349C6.61288 6.42819 6.60445 6.40289 6.60023 6.37759C6.59601 6.34808 6.5918 6.31856 6.5918 6.29326C6.5918 6.18363 6.63818 6.074 6.71408 5.99388C6.75624 5.95593 6.79841 5.92642 6.85323 5.90533C7.00924 5.83787 7.19477 5.87582 7.31283 5.99388C7.38873 6.074 7.43512 6.18363 7.43512 6.29326C7.43512 6.31856 7.4309 6.34808 7.42668 6.37759C7.42247 6.40289 7.41403 6.42819 7.40138 6.45349C7.39295 6.47879 7.3803 6.50409 7.36343 6.52939C7.35078 6.55047 7.3297 6.57156 7.31283 6.59264C7.23272 6.66854 7.12309 6.71492 7.01346 6.71492Z" fill="white"/>
<path d="M4.06229 8.19059C4.00747 8.19059 3.95265 8.17794 3.90205 8.15686C3.85145 8.13577 3.80507 8.10626 3.76291 8.06831C3.68701 7.98819 3.64062 7.87856 3.64062 7.76893C3.64062 7.71411 3.65327 7.6593 3.67436 7.6087C3.69544 7.55388 3.72496 7.5075 3.76291 7.46955C3.91892 7.31354 4.20565 7.31354 4.36166 7.46955C4.43756 7.54967 4.48395 7.6593 4.48395 7.76893C4.48395 7.87856 4.43756 7.98819 4.36166 8.06831C4.28155 8.14421 4.17192 8.19059 4.06229 8.19059Z" fill="white"/>
<path d="M5.53787 8.19059C5.42824 8.19059 5.31861 8.14421 5.23849 8.06831C5.16259 7.98819 5.11621 7.87856 5.11621 7.76893C5.11621 7.71411 5.12886 7.6593 5.14994 7.6087C5.17103 7.55388 5.20054 7.5075 5.23849 7.46955C5.39451 7.31354 5.68124 7.31354 5.83725 7.46955C5.8752 7.5075 5.90472 7.55388 5.9258 7.6087C5.94688 7.6593 5.95953 7.71411 5.95953 7.76893C5.95953 7.87856 5.91315 7.98819 5.83725 8.06831C5.75713 8.14421 5.6475 8.19059 5.53787 8.19059Z" fill="white"/>
<path d="M7.01395 8.19037C6.90431 8.19037 6.79468 8.14399 6.71457 8.06809C6.67662 8.03014 6.6471 7.98376 6.62602 7.92894C6.60493 7.87834 6.59229 7.82353 6.59229 7.76871C6.59229 7.7139 6.60493 7.65908 6.62602 7.60848C6.6471 7.55366 6.67662 7.50728 6.71457 7.46933C6.81155 7.37235 6.95913 7.32597 7.09406 7.35548C7.12358 7.3597 7.14888 7.36813 7.17418 7.38078C7.19948 7.38922 7.22477 7.40187 7.25007 7.41873C7.27116 7.43138 7.29224 7.45247 7.31332 7.46933C7.38922 7.54945 7.4356 7.65908 7.4356 7.76871C7.4356 7.87834 7.38922 7.98797 7.31332 8.06809C7.23321 8.14399 7.12358 8.19037 7.01395 8.19037Z" fill="white"/>
<path d="M9.12216 4.75065H1.95394C1.78106 4.75065 1.6377 4.60729 1.6377 4.43441C1.6377 4.26153 1.78106 4.11816 1.95394 4.11816H9.12216C9.29504 4.11816 9.43841 4.26153 9.43841 4.43441C9.43841 4.60729 9.29504 4.75065 9.12216 4.75065Z" fill="white"/>
<path d="M7.22458 10.1939H3.8513C2.31224 10.1939 1.42676 9.30846 1.42676 7.7694V4.18529C1.42676 2.64623 2.31224 1.76074 3.8513 1.76074H7.22458C8.76364 1.76074 9.64913 2.64623 9.64913 4.18529V7.7694C9.64913 9.30846 8.76364 10.1939 7.22458 10.1939ZM3.8513 2.39323C2.64536 2.39323 2.05925 2.97934 2.05925 4.18529V7.7694C2.05925 8.97534 2.64536 9.56145 3.8513 9.56145H7.22458C8.43053 9.56145 9.01664 8.97534 9.01664 7.7694V4.18529C9.01664 2.97934 8.43053 2.39323 7.22458 2.39323H3.8513Z" fill="white"/>
</g>
<defs>
<clipPath id="clip0_2292_10726">
<rect width="10.1198" height="10.1198" fill="white" transform="translate(0.478027 0.600586)"/>
</clipPath>
</defs>
</svg>
