<svg width="16" height="16" viewBox="0 0 16 16" fill="none" xmlns="http://www.w3.org/2000/svg">
<g clip-path="url(#clip0_2292_10743)">
<path d="M4.39478 14.4601C4.13546 14.4601 3.92041 14.2451 3.92041 13.9858V9.55835C3.92041 9.29903 4.13546 9.08398 4.39478 9.08398C4.6541 9.08398 4.86915 9.29903 4.86915 9.55835V13.9858C4.86915 14.2451 4.6541 14.4601 4.39478 14.4601Z" fill="#080808"/>
<path d="M4.39478 3.70753C4.13546 3.70753 3.92041 3.49249 3.92041 3.23317V1.3357C3.92041 1.07637 4.13546 0.861328 4.39478 0.861328C4.6541 0.861328 4.86915 1.07637 4.86915 1.3357V3.23317C4.86915 3.49249 4.6541 3.70753 4.39478 3.70753Z" fill="#080808"/>
<path d="M11.3523 14.4595C11.093 14.4595 10.8779 14.2444 10.8779 13.9851V12.0876C10.8779 11.8283 11.093 11.6133 11.3523 11.6133C11.6116 11.6133 11.8267 11.8283 11.8267 12.0876V13.9851C11.8267 14.2444 11.6116 14.4595 11.3523 14.4595Z" fill="#080808"/>
<path d="M11.3523 6.23749C11.093 6.23749 10.8779 6.02245 10.8779 5.76312V1.3357C10.8779 1.07637 11.093 0.861328 11.3523 0.861328C11.6116 0.861328 11.8267 1.07637 11.8267 1.3357V5.76312C11.8267 6.02245 11.6116 6.23749 11.3523 6.23749Z" fill="#080808"/>
<path d="M5.02728 10.0314H3.7623C2.67441 10.0314 2.02295 9.37998 2.02295 8.2921V4.49716C2.02295 3.40928 2.67441 2.75781 3.7623 2.75781H5.02728C6.11516 2.75781 6.76662 3.40928 6.76662 4.49716V8.2921C6.76662 9.37998 6.11516 10.0314 5.02728 10.0314ZM3.7623 3.70655C3.19938 3.70655 2.97168 3.93424 2.97168 4.49716V8.2921C2.97168 8.85502 3.19938 9.08271 3.7623 9.08271H5.02728C5.59019 9.08271 5.81789 8.85502 5.81789 8.2921V4.49716C5.81789 3.93424 5.59019 3.70655 5.02728 3.70655H3.7623Z" fill="#080808"/>
<path d="M11.9848 12.5627H10.7198C9.63193 12.5627 8.98047 11.9112 8.98047 10.8233V7.02841C8.98047 5.94053 9.63193 5.28906 10.7198 5.28906H11.9848C13.0727 5.28906 13.7241 5.94053 13.7241 7.02841V10.8233C13.7241 11.9112 13.0727 12.5627 11.9848 12.5627ZM10.7198 6.2378C10.1569 6.2378 9.9292 6.46549 9.9292 7.02841V10.8233C9.9292 11.3863 10.1569 11.614 10.7198 11.614H11.9848C12.5477 11.614 12.7754 11.3863 12.7754 10.8233V7.02841C12.7754 6.46549 12.5477 6.2378 11.9848 6.2378H10.7198Z" fill="#080808"/>
</g>
<defs>
<clipPath id="clip0_2292_10743">
<rect width="15.1798" height="15.1798" fill="white" transform="translate(0.283691 0.0703125)"/>
</clipPath>
</defs>
</svg>
