<svg width="230" height="138" viewBox="0 0 230 138" fill="none" xmlns="http://www.w3.org/2000/svg">
<path fill-rule="evenodd" clip-rule="evenodd" d="M1 87.1777L24.7119 79.2691C25.0527 79.1554 25.4206 79.1506 25.7643 79.2553L37.085 82.703C37.9029 82.9521 38.7802 82.567 39.1505 81.7964L61.5404 35.1971C62.2269 33.7684 64.313 33.9363 64.7621 35.4565L76.1104 73.87C76.5889 75.4897 78.8658 75.5364 79.4104 73.9378L96.8784 22.662C97.4133 21.0919 99.6366 21.0995 100.161 22.6733L110.154 52.6821C110.186 52.7761 110.225 52.8673 110.272 52.9545L114.198 60.264C114.9 61.5707 116.813 61.4478 117.342 60.062L124.838 40.4217C125.359 39.0544 127.237 38.9108 127.961 40.1828L133.123 49.2561C133.851 50.535 135.741 50.3811 136.252 49.0012L152.27 5.75865C152.845 4.20501 155.064 4.26877 155.549 5.85289L161.978 26.8377C162.056 27.0931 162.193 27.327 162.376 27.521L171.084 36.719C171.255 36.8998 171.385 37.1155 171.466 37.3511L177.836 56.0488C178.071 56.7405 178.716 57.2099 179.446 57.2219L197.254 57.5148C198.095 57.5286 198.805 58.1449 198.936 58.9758L201.443 74.8268C201.737 76.6858 204.367 76.8073 204.832 74.9833L214.998 35.0331C215.372 33.5615 217.325 33.2501 218.138 34.5322L229.296 52.1118V137.187H1V87.1777Z" fill="url(#paint0_linear_2292_10949)"/>
<path d="M1 87.8172L24.6949 79.289C25.0461 79.1626 25.4288 79.1531 25.7859 79.2618L37.085 82.703C37.9029 82.9521 38.7802 82.567 39.1505 81.7964L61.5404 35.1971C62.2269 33.7684 64.313 33.9363 64.7621 35.4565L76.1104 73.87C76.5889 75.4897 78.8658 75.5364 79.4104 73.9378L96.8784 22.662C97.4133 21.0919 99.6366 21.0995 100.161 22.6733L110.154 52.6821C110.186 52.7761 110.225 52.8673 110.272 52.9545L114.198 60.264C114.9 61.5707 116.813 61.4478 117.342 60.062L124.838 40.4217C125.36 39.0544 127.237 38.9108 127.961 40.1828L133.123 49.2561C133.851 50.535 135.741 50.3811 136.252 49.0012L152.27 5.75864C152.845 4.20501 155.064 4.26877 155.549 5.85288L161.978 26.8377C162.056 27.0931 162.193 27.327 162.376 27.521L171.084 36.719C171.255 36.8998 171.385 37.1154 171.466 37.3511L177.836 56.0488C178.071 56.7405 178.716 57.2099 179.446 57.2219L197.254 57.5148C198.095 57.5286 198.805 58.1449 198.936 58.9758L201.443 74.8267C201.737 76.6858 204.367 76.8073 204.832 74.9833L214.972 35.1369C215.35 33.6501 217.332 33.3532 218.129 34.664L228.786 52.1818" stroke="#22C46A" stroke-width="1.15451"/>
<path d="M158.337 6.72848C158.337 9.26581 156.226 11.3465 153.592 11.3465C150.957 11.3465 148.846 9.26581 148.846 6.72848C148.846 4.19115 150.957 2.11046 153.592 2.11046C156.226 2.11046 158.337 4.19115 158.337 6.72848Z" fill="white" stroke="#22C46A" stroke-width="1.15451"/>
<defs>
<linearGradient id="paint0_linear_2292_10949" x1="2.16895" y1="0.955078" x2="2.16895" y2="135.792" gradientUnits="userSpaceOnUse">
<stop stop-color="#47E4A3" stop-opacity="0.352983"/>
<stop offset="1" stop-color="#22C46A" stop-opacity="0.01"/>
</linearGradient>
</defs>
</svg>
