<svg width="16" height="17" viewBox="0 0 16 17" fill="none" xmlns="http://www.w3.org/2000/svg">
<path d="M6.11496 10.1314L9.8863 6.36008M4.7003 7.77408L3.75763 8.71675C3.51 8.96438 3.31357 9.25836 3.17956 9.5819C3.04554 9.90544 2.97656 10.2522 2.97656 10.6024C2.97656 10.9526 3.04554 11.2994 3.17956 11.6229C3.31357 11.9465 3.51 12.2405 3.75763 12.4881C4.00526 12.7357 4.29924 12.9321 4.62278 13.0662C4.94633 13.2002 5.2931 13.2692 5.6433 13.2692C5.9935 13.2692 6.34027 13.2002 6.66381 13.0662C6.98736 12.9321 7.28134 12.7357 7.52896 12.4881L8.4703 11.5454M7.5283 4.94542L8.47096 4.00275C8.71859 3.75512 9.01257 3.55869 9.33612 3.42467C9.65966 3.29066 10.0064 3.22168 10.3566 3.22168C10.7068 3.22168 11.0536 3.29066 11.3771 3.42467C11.7007 3.55869 11.9947 3.75512 12.2423 4.00275C12.4899 4.25038 12.6864 4.54436 12.8204 4.8679C12.9544 5.19144 13.0234 5.53821 13.0234 5.88842C13.0234 6.23862 12.9544 6.58539 12.8204 6.90893C12.6864 7.23247 12.4899 7.52645 12.2423 7.77408L11.2996 8.71675" stroke="white" stroke-width="2" stroke-linecap="round" stroke-linejoin="round"/>
</svg>
