<svg width="19" height="20" viewBox="0 0 19 20" fill="none" xmlns="http://www.w3.org/2000/svg">
<path d="M0 10.9163V2.18326C0 1.58286 0.205224 1.06907 0.615671 0.641878C1.02612 0.214687 1.51893 0.000727753 2.09412 0H8.37647V10.9163H0ZM10.4706 0H16.7529C17.3288 0 17.822 0.213959 18.2324 0.641878C18.6429 1.0698 18.8478 1.58359 18.8471 2.18326V6.54978H10.4706V0ZM10.4706 19.6493V8.73303H18.8471V17.4661C18.8471 18.0665 18.6422 18.5806 18.2324 19.0085C17.8227 19.4365 17.3295 19.6501 16.7529 19.6493H10.4706ZM0 13.0996H8.37647V19.6493H2.09412C1.51824 19.6493 1.02542 19.4357 0.615671 19.0085C0.205922 18.5813 0.000698039 18.0672 0 17.4661V13.0996Z" fill="white"/>
</svg>
