<svg width="24" height="24" viewBox="0 0 24 24" fill="none" xmlns="http://www.w3.org/2000/svg">
<path opacity="0.4" d="M16.8 8.5H7.2C4 8.5 2 10.5 2 13.7V16.29C2 19.5 4 21.5 7.2 21.5H16.79C19.99 21.5 21.99 19.5 21.99 16.3V13.7C22 10.5 20 8.5 16.8 8.5Z" fill="#878C90"/>
<path d="M15.8798 6.0677L12.5298 2.7177C12.3887 2.57822 12.1983 2.5 11.9998 2.5C11.8014 2.5 11.611 2.57822 11.4698 2.7177L8.11984 6.0677C7.82984 6.3577 7.82984 6.8377 8.11984 7.1277C8.40984 7.4177 8.88984 7.4177 9.17984 7.1277L11.2498 5.0577V15.7477C11.2498 16.1577 11.5898 16.4977 11.9998 16.4977C12.4098 16.4977 12.7498 16.1577 12.7498 15.7477V5.0577L14.8198 7.1277C14.9698 7.2777 15.1598 7.3477 15.3498 7.3477C15.5398 7.3477 15.7298 7.2777 15.8798 7.1277C16.1798 6.8377 16.1798 6.3677 15.8798 6.0677Z" fill="#878C90"/>
</svg>
