<svg width="55" height="55" viewBox="0 0 55 55" fill="none" xmlns="http://www.w3.org/2000/svg">
<path opacity="0.4" d="M27.4173 45.9949C35.2889 45.9949 42.6253 41.3567 47.7318 33.329C49.7387 30.1848 49.7387 24.8999 47.7318 21.7557C42.6253 13.7281 35.2889 9.08984 27.4173 9.08984C19.5457 9.08984 12.2093 13.7281 7.10285 21.7557C5.09593 24.8999 5.09593 30.1848 7.10285 33.329C12.2093 41.3567 19.5457 45.9949 27.4173 45.9949Z" fill="#878C90"/>
<path d="M35.3958 27.5534C35.3958 31.9686 31.828 35.5365 27.4128 35.5365C22.9975 35.5365 19.4297 31.9686 19.4297 27.5534C19.4297 23.1382 22.9975 19.5703 27.4128 19.5703C31.828 19.5703 35.3958 23.1382 35.3958 27.5534Z" fill="#878C90"/>
</svg>
