<svg width="33" height="33" viewBox="0 0 33 33" fill="none" xmlns="http://www.w3.org/2000/svg">
<rect x="0.933105" y="0.922852" width="32" height="32" rx="16" fill="#00FFA3"/>
<g clip-path="url(#clip0_2292_10893)">
<path d="M16.9305 4.92285L16.7695 5.46978V21.339L16.9305 21.4996L24.2967 17.1454L16.9305 4.92285Z" fill="#343434"/>
<path d="M16.9308 4.92285L9.56445 17.1454L16.9308 21.4996V13.7971V4.92285Z" fill="#8C8C8C"/>
<path d="M16.9306 22.8939L16.8398 23.0046V28.6574L16.9306 28.9223L24.3012 18.542L16.9306 22.8939Z" fill="#3C3C3B"/>
<path d="M16.9308 28.9223V22.8939L9.56445 18.542L16.9308 28.9223Z" fill="#8C8C8C"/>
<path d="M16.9307 21.4993L24.2968 17.1451L16.9307 13.7969V21.4993Z" fill="#141414"/>
<path d="M9.56445 17.1451L16.9308 21.4993V13.7969L9.56445 17.1451Z" fill="#393939"/>
</g>
<defs>
<clipPath id="clip0_2292_10893">
<rect width="24" height="24" fill="white" transform="translate(4.93311 4.92285)"/>
</clipPath>
</defs>
</svg>
