<svg width="97" height="77" viewBox="0 0 97 77" fill="none" xmlns="http://www.w3.org/2000/svg">
<rect x="0.543457" y="0.605469" width="96.0388" height="75.7131" rx="8.13027" fill="#1C1C25"/>
<path d="M11.6198 11.4586C11.6025 11.2967 11.5295 11.1706 11.401 11.0803C11.2737 10.9901 11.108 10.945 10.9041 10.945C10.7607 10.945 10.6377 10.9666 10.5351 11.0099C10.4325 11.0531 10.354 11.1119 10.2997 11.186C10.2453 11.2602 10.2175 11.3449 10.2162 11.44C10.2162 11.5191 10.2342 11.5877 10.27 11.6458C10.3071 11.7039 10.3571 11.7534 10.4202 11.7942C10.4832 11.8337 10.5531 11.8671 10.6297 11.8943C10.7063 11.9215 10.7836 11.9444 10.8615 11.9629L11.2174 12.0519C11.3608 12.0853 11.4986 12.1304 11.6309 12.1872C11.7644 12.2441 11.8837 12.3158 11.9887 12.4023C12.095 12.4888 12.1791 12.5933 12.2409 12.7157C12.3027 12.838 12.3336 12.9814 12.3336 13.1458C12.3336 13.3683 12.2767 13.5642 12.163 13.7336C12.0493 13.9017 11.8849 14.0333 11.6698 14.1285C11.456 14.2224 11.197 14.2694 10.893 14.2694C10.5976 14.2694 10.3411 14.2237 10.1235 14.1322C9.90721 14.0407 9.73787 13.9072 9.6155 13.7317C9.49437 13.5562 9.42885 13.3423 9.41897 13.0902H10.0957C10.1056 13.2224 10.1464 13.3325 10.2181 13.4202C10.2898 13.508 10.3831 13.5735 10.4981 13.6167C10.6142 13.66 10.744 13.6816 10.8874 13.6816C11.037 13.6816 11.168 13.6594 11.2805 13.6149C11.3942 13.5692 11.4832 13.5061 11.5475 13.4258C11.6117 13.3442 11.6445 13.249 11.6457 13.1402C11.6445 13.0414 11.6155 12.9598 11.5586 12.8955C11.5017 12.83 11.422 12.7756 11.3194 12.7323C11.2181 12.6878 11.0994 12.6483 10.9634 12.6137L10.5314 12.5024C10.2187 12.4221 9.97149 12.3003 9.78978 12.1372C9.60932 11.9728 9.51909 11.7546 9.51909 11.4827C9.51909 11.259 9.57965 11.063 9.70079 10.8949C9.82316 10.7268 9.98941 10.5964 10.1995 10.5037C10.4097 10.4098 10.6476 10.3628 10.9134 10.3628C11.1828 10.3628 11.4189 10.4098 11.6216 10.5037C11.8256 10.5964 11.9857 10.7256 12.1018 10.8912C12.218 11.0556 12.278 11.2447 12.2817 11.4586H11.6198ZM14.178 14.2675C13.8924 14.2675 13.6458 14.2082 13.4382 14.0895C13.2318 13.9696 13.0729 13.8003 12.9617 13.5815C12.8504 13.3615 12.7948 13.1025 12.7948 12.8047C12.7948 12.5117 12.8504 12.2546 12.9617 12.0333C13.0742 11.8109 13.2311 11.6378 13.4326 11.5142C13.6341 11.3894 13.8708 11.3269 14.1427 11.3269C14.3183 11.3269 14.4839 11.3554 14.6396 11.4122C14.7966 11.4678 14.9351 11.5544 15.055 11.6718C15.1761 11.7892 15.2713 11.9388 15.3405 12.1205C15.4097 12.301 15.4443 12.516 15.4443 12.7657V12.9715H13.11V12.5191H14.8009C14.7997 12.3906 14.7719 12.2762 14.7175 12.1761C14.6631 12.0748 14.5871 11.995 14.4895 11.9369C14.393 11.8788 14.2806 11.8498 14.152 11.8498C14.0148 11.8498 13.8943 11.8832 13.7905 11.9499C13.6866 12.0154 13.6057 12.102 13.5476 12.2095C13.4907 12.3158 13.4617 12.4326 13.4604 12.5599V12.9548C13.4604 13.1205 13.4907 13.2626 13.5513 13.3813C13.6119 13.4987 13.6965 13.5889 13.8053 13.652C13.9141 13.7138 14.0414 13.7447 14.1872 13.7447C14.2849 13.7447 14.3733 13.7311 14.4524 13.7039C14.5315 13.6755 14.6001 13.6341 14.6582 13.5797C14.7163 13.5253 14.7602 13.4579 14.7898 13.3776L15.4165 13.448C15.377 13.6137 15.3016 13.7583 15.1903 13.8819C15.0803 14.0043 14.9394 14.0994 14.7676 14.1674C14.5958 14.2342 14.3992 14.2675 14.178 14.2675ZM16.6833 10.4147V14.2119H16.0121V10.4147H16.6833ZM18.0447 10.4147V14.2119H17.3735V10.4147H18.0447Z" fill="white"/>
<path d="M9.18164 39.6312L10.3442 39.5811C11.5068 39.5309 13.8319 39.4306 16.157 39.7801C18.4822 40.1295 20.8073 40.9288 23.1324 41.4996C25.4576 42.0703 27.7827 42.4126 30.1078 41.74C32.433 41.0675 34.7581 39.3801 37.0832 39.6402C39.4084 39.9002 41.7335 42.1077 44.0586 39.5912C46.3838 37.0747 48.7089 29.8344 51.034 26.446C53.3592 23.0576 55.6843 23.5212 58.0094 26.7096C60.3346 29.898 62.6597 35.8112 64.9848 35.8187C67.31 35.8263 69.6351 29.9281 71.9602 28.4662C74.2854 27.0044 76.6105 29.9789 78.9356 29.9435C81.2608 29.908 83.5859 26.8627 84.7485 25.34L85.911 23.8174" stroke="#9181DB" stroke-width="0.652643" stroke-linecap="round"/>
<path d="M11.1331 55.3091V49.376H11.5132V55.3091H11.1331ZM12.2293 51.2741C12.2077 51.0717 12.1165 50.9141 11.9558 50.8014C11.7967 50.6886 11.5897 50.6322 11.3347 50.6322C11.1555 50.6322 11.0017 50.6592 10.8735 50.7133C10.7453 50.7674 10.6472 50.8408 10.5792 50.9335C10.5112 51.0262 10.4764 51.132 10.4749 51.251C10.4749 51.3499 10.4973 51.4356 10.5421 51.5082C10.5884 51.5808 10.651 51.6427 10.7298 51.6936C10.8086 51.7431 10.8959 51.7848 10.9917 51.8188C11.0875 51.8528 11.1841 51.8814 11.2814 51.9045L11.7264 52.0158C11.9056 52.0575 12.0779 52.1139 12.2432 52.185C12.4101 52.256 12.5592 52.3457 12.6905 52.4538C12.8234 52.562 12.9285 52.6925 13.0057 52.8455C13.083 52.9985 13.1216 53.1777 13.1216 53.3832C13.1216 53.6613 13.0505 53.9062 12.9084 54.1179C12.7662 54.328 12.5607 54.4926 12.2919 54.6115C12.0246 54.729 11.7009 54.7877 11.3208 54.7877C10.9515 54.7877 10.6309 54.7305 10.359 54.6162C10.0886 54.5018 9.87693 54.335 9.72396 54.1156C9.57255 53.8962 9.49066 53.6289 9.4783 53.3137H10.3242C10.3366 53.479 10.3876 53.6165 10.4772 53.7262C10.5668 53.8359 10.6835 53.9178 10.8272 53.9719C10.9724 54.0259 11.1346 54.053 11.3139 54.053C11.5008 54.053 11.6646 54.0252 11.8052 53.9695C11.9473 53.9124 12.0586 53.8336 12.1389 53.7331C12.2193 53.6312 12.2602 53.5122 12.2618 53.3762C12.2602 53.2526 12.2239 53.1507 12.1528 53.0703C12.0818 52.9884 11.9821 52.9204 11.8539 52.8664C11.7272 52.8107 11.5788 52.7613 11.4089 52.718L10.8689 52.579C10.478 52.4785 10.1689 52.3264 9.94182 52.1224C9.71624 51.9169 9.60345 51.6442 9.60345 51.3043C9.60345 51.0246 9.67916 50.7797 9.83058 50.5696C9.98354 50.3595 10.1914 50.1965 10.454 50.0806C10.7167 49.9631 11.0141 49.9044 11.3463 49.9044C11.6831 49.9044 11.9782 49.9631 12.2316 50.0806C12.4866 50.1965 12.6867 50.3579 12.8319 50.565C12.9771 50.7705 13.0521 51.0069 13.0567 51.2741H12.2293ZM13.8418 54.7158V54.0947L15.4896 52.4793C15.6472 52.3202 15.7786 52.1788 15.8836 52.0552C15.9887 51.9316 16.0675 51.8118 16.12 51.696C16.1726 51.5801 16.1988 51.4565 16.1988 51.3251C16.1988 51.1753 16.1648 51.047 16.0968 50.9404C16.0289 50.8323 15.9354 50.7488 15.8164 50.6901C15.6974 50.6314 15.5623 50.602 15.4108 50.602C15.2548 50.602 15.118 50.6345 15.0006 50.6994C14.8832 50.7627 14.792 50.8531 14.7271 50.9705C14.6638 51.088 14.6321 51.2278 14.6321 51.39H13.814C13.814 51.0887 13.8827 50.8268 14.0203 50.6044C14.1578 50.3819 14.347 50.2096 14.5881 50.0875C14.8307 49.9655 15.1088 49.9044 15.4224 49.9044C15.7407 49.9044 16.0204 49.9639 16.2614 50.0829C16.5024 50.2019 16.6894 50.3649 16.8223 50.5719C16.9567 50.779 17.0239 51.0153 17.0239 51.2811C17.0239 51.4588 16.9899 51.6334 16.9219 51.8049C16.8539 51.9764 16.7342 52.1664 16.5627 52.375C16.3927 52.5836 16.154 52.8362 15.8465 53.1329L15.0284 53.9649V53.9974H17.0957V54.7158H13.8418ZM19.5988 54.7807C19.265 54.7807 18.9684 54.7235 18.7088 54.6092C18.4508 54.4949 18.2468 54.3357 18.097 54.1318C17.9471 53.9278 17.8675 53.6922 17.8582 53.4249H18.7297C18.7374 53.5531 18.7799 53.6652 18.8571 53.761C18.9344 53.8552 19.0371 53.9286 19.1654 53.9811C19.2936 54.0337 19.4373 54.0599 19.5965 54.0599C19.7664 54.0599 19.9171 54.0306 20.0484 53.9719C20.1797 53.9116 20.2825 53.8282 20.3566 53.7216C20.4308 53.6149 20.4671 53.4921 20.4656 53.3531C20.4671 53.2094 20.43 53.0827 20.3543 52.973C20.2786 52.8633 20.1689 52.7775 20.0252 52.7157C19.8831 52.6539 19.7116 52.623 19.5107 52.623H19.0912V51.9602H19.5107C19.676 51.9602 19.8205 51.9316 19.9441 51.8744C20.0693 51.8172 20.1674 51.7369 20.2384 51.6334C20.3095 51.5283 20.3443 51.407 20.3427 51.2695C20.3443 51.1351 20.3141 51.0184 20.2523 50.9196C20.1921 50.8191 20.1063 50.7411 19.9951 50.6855C19.8854 50.6299 19.7564 50.602 19.608 50.602C19.4628 50.602 19.3284 50.6283 19.2048 50.6808C19.0812 50.7334 18.9815 50.8083 18.9058 50.9056C18.8301 51.0014 18.7899 51.1158 18.7853 51.2487H17.9579C17.9641 50.9829 18.0406 50.7496 18.1873 50.5487C18.3357 50.3463 18.5334 50.1887 18.7807 50.0759C19.0279 49.9616 19.3052 49.9044 19.6127 49.9044C19.9294 49.9044 20.2044 49.9639 20.4378 50.0829C20.6726 50.2003 20.8542 50.3587 20.9824 50.558C21.1106 50.7573 21.1748 50.9775 21.1748 51.2185C21.1763 51.4858 21.0975 51.7099 20.9384 51.8906C20.7808 52.0714 20.5737 52.1896 20.3172 52.2452V52.2823C20.651 52.3287 20.9067 52.4523 21.0844 52.6531C21.2636 52.8525 21.3524 53.1004 21.3509 53.3971C21.3509 53.6628 21.2752 53.9008 21.1238 54.1109C20.9739 54.3195 20.7669 54.4833 20.5026 54.6023C20.24 54.7212 19.9387 54.7807 19.5988 54.7807ZM23.0005 54.0669L22.9703 54.3218C22.9487 54.5165 22.9101 54.7143 22.8545 54.9151C22.8004 55.1175 22.7432 55.3037 22.683 55.4737C22.6227 55.6436 22.574 55.7773 22.5369 55.8746H21.9714C21.9931 55.7804 22.0224 55.6521 22.0595 55.4899C22.0981 55.3277 22.1352 55.1454 22.1708 54.9429C22.2063 54.7405 22.2302 54.535 22.2426 54.3265L22.2588 54.0669H23.0005ZM23.9519 54.7158L25.9705 50.7202V50.6878H23.6274V49.9693H26.8605V50.704L24.8441 54.7158H23.9519ZM29.2036 54.7807C28.8698 54.7807 28.5732 54.7235 28.3136 54.6092C28.0556 54.4949 27.8516 54.3357 27.7018 54.1318C27.5519 53.9278 27.4723 53.6922 27.4631 53.4249H28.3345C28.3422 53.5531 28.3847 53.6652 28.4619 53.761C28.5392 53.8552 28.642 53.9286 28.7702 53.9811C28.8984 54.0337 29.0421 54.0599 29.2013 54.0599C29.3712 54.0599 29.5219 54.0306 29.6532 53.9719C29.7845 53.9116 29.8873 53.8282 29.9615 53.7216C30.0356 53.6149 30.0719 53.4921 30.0704 53.3531C30.0719 53.2094 30.0348 53.0827 29.9591 52.973C29.8834 52.8633 29.7737 52.7775 29.63 52.7157C29.4879 52.6539 29.3164 52.623 29.1155 52.623H28.696V51.9602H29.1155C29.2808 51.9602 29.4253 51.9316 29.5489 51.8744C29.6741 51.8172 29.7722 51.7369 29.8433 51.6334C29.9143 51.5283 29.9491 51.407 29.9475 51.2695C29.9491 51.1351 29.919 51.0184 29.8572 50.9196C29.7969 50.8191 29.7111 50.7411 29.5999 50.6855C29.4902 50.6299 29.3612 50.602 29.2129 50.602C29.0676 50.602 28.9332 50.6283 28.8096 50.6808C28.686 50.7334 28.5863 50.8083 28.5106 50.9056C28.4349 51.0014 28.3947 51.1158 28.3901 51.2487H27.5627C27.5689 50.9829 27.6454 50.7496 27.7922 50.5487C27.9405 50.3463 28.1383 50.1887 28.3855 50.0759C28.6327 49.9616 28.91 49.9044 29.2175 49.9044C29.5342 49.9044 29.8093 49.9639 30.0426 50.0829C30.2774 50.2003 30.459 50.3587 30.5872 50.558C30.7155 50.7573 30.7796 50.9775 30.7796 51.2185C30.7811 51.4858 30.7023 51.7099 30.5432 51.8906C30.3856 52.0714 30.1785 52.1896 29.9221 52.2452V52.2823C30.2558 52.3287 30.5115 52.4523 30.6892 52.6531C30.8684 52.8525 30.9573 53.1004 30.9557 53.3971C30.9557 53.6628 30.88 53.9008 30.7286 54.1109C30.5787 54.3195 30.3717 54.4833 30.1075 54.6023C29.8448 54.7212 29.5435 54.7807 29.2036 54.7807ZM33.4385 54.7807C33.0939 54.7807 32.788 54.7228 32.5207 54.6069C32.2549 54.491 32.0463 54.3326 31.8949 54.1318C31.7451 53.9294 31.6709 53.6999 31.6724 53.4434C31.6709 53.2441 31.7142 53.061 31.8022 52.8942C31.8903 52.7273 32.0093 52.5882 32.1591 52.477C32.3106 52.3642 32.479 52.2924 32.6644 52.2615V52.229C32.4203 52.1749 32.2225 52.0506 32.0711 51.8559C31.9212 51.6596 31.847 51.4333 31.8486 51.1768C31.847 50.9327 31.915 50.7148 32.0525 50.5232C32.19 50.3316 32.3785 50.181 32.618 50.0713C32.8575 49.9601 33.131 49.9044 33.4385 49.9044C33.7428 49.9044 34.014 49.9601 34.252 50.0713C34.4914 50.181 34.6799 50.3316 34.8175 50.5232C34.9565 50.7148 35.026 50.9327 35.026 51.1768C35.026 51.4333 34.9496 51.6596 34.7966 51.8559C34.6452 52.0506 34.4497 52.1749 34.2102 52.229V52.2615C34.3956 52.2924 34.5625 52.3642 34.7108 52.477C34.8607 52.5882 34.9797 52.7273 35.0678 52.8942C35.1574 53.061 35.2022 53.2441 35.2022 53.4434C35.2022 53.6999 35.1265 53.9294 34.975 54.1318C34.8236 54.3326 34.615 54.491 34.3493 54.6069C34.0851 54.7228 33.7815 54.7807 33.4385 54.7807ZM33.4385 54.1179C33.6161 54.1179 33.7707 54.0877 33.902 54.0275C34.0333 53.9657 34.1353 53.8792 34.2079 53.7679C34.2805 53.6567 34.3176 53.5284 34.3192 53.3832C34.3176 53.2318 34.2782 53.0981 34.201 52.9822C34.1253 52.8648 34.021 52.7729 33.8881 52.7064C33.7568 52.64 33.6069 52.6068 33.4385 52.6068C33.2685 52.6068 33.1171 52.64 32.9842 52.7064C32.8513 52.7729 32.7463 52.8648 32.669 52.9822C32.5933 53.0981 32.5562 53.2318 32.5578 53.3832C32.5562 53.5284 32.5918 53.6567 32.6644 53.7679C32.737 53.8776 32.839 53.9634 32.9703 54.0252C33.1032 54.087 33.2592 54.1179 33.4385 54.1179ZM33.4385 51.9555C33.5837 51.9555 33.7119 51.9262 33.8232 51.8675C33.936 51.8087 34.0248 51.7269 34.0897 51.6218C34.1546 51.5167 34.1878 51.3954 34.1894 51.2579C34.1878 51.122 34.1554 51.003 34.092 50.901C34.0287 50.7975 33.9406 50.7179 33.8278 50.6623C33.715 50.6051 33.5852 50.5765 33.4385 50.5765C33.2886 50.5765 33.1565 50.6051 33.0422 50.6623C32.9294 50.7179 32.8413 50.7975 32.7779 50.901C32.7161 51.003 32.686 51.122 32.6876 51.2579C32.686 51.3954 32.7169 51.5167 32.7803 51.6218C32.8452 51.7253 32.934 51.8072 33.0468 51.8675C33.1611 51.9262 33.2917 51.9555 33.4385 51.9555Z" fill="white"/>
<path d="M10.5194 68.3223H9.52059V65.237H10.551C10.8533 65.237 11.1129 65.2988 11.3298 65.4223C11.5468 65.5449 11.713 65.7211 11.8285 65.9511C11.945 66.1801 12.0032 66.4548 12.0032 66.7751C12.0032 67.0965 11.9445 67.3727 11.827 67.6037C11.7105 67.8347 11.5418 68.0124 11.3208 68.137C11.0999 68.2605 10.8327 68.3223 10.5194 68.3223ZM9.98609 67.9155H10.4938C10.7288 67.9155 10.9241 67.8713 11.0798 67.783C11.2354 67.6936 11.3519 67.5645 11.4293 67.3958C11.5066 67.2261 11.5453 67.0192 11.5453 66.7751C11.5453 66.5331 11.5066 66.3277 11.4293 66.159C11.3529 65.9903 11.239 65.8622 11.0873 65.7748C10.9357 65.6875 10.7473 65.6438 10.5224 65.6438H9.98609V67.9155ZM13.2193 68.3735C13.0727 68.3735 12.9401 68.3464 12.8216 68.2921C12.7031 68.2369 12.6092 68.1571 12.5399 68.0526C12.4716 67.9482 12.4375 67.8201 12.4375 67.6685C12.4375 67.5379 12.4626 67.4304 12.5128 67.3461C12.563 67.2617 12.6308 67.1949 12.7162 67.1457C12.8015 67.0965 12.8969 67.0594 13.0024 67.0342C13.1078 67.0091 13.2153 66.9901 13.3248 66.977C13.4634 66.9609 13.5758 66.9479 13.6622 66.9378C13.7486 66.9268 13.8114 66.9092 13.8505 66.8851C13.8897 66.861 13.9093 66.8218 13.9093 66.7676V66.7571C13.9093 66.6255 13.8721 66.5236 13.7978 66.4512C13.7245 66.3789 13.615 66.3428 13.4694 66.3428C13.3177 66.3428 13.1982 66.3764 13.1109 66.4437C13.0245 66.51 12.9647 66.5838 12.9316 66.6652L12.5083 66.5688C12.5585 66.4281 12.6318 66.3147 12.7282 66.2283C12.8256 66.1409 12.9376 66.0776 13.0642 66.0385C13.1907 65.9983 13.3238 65.9782 13.4634 65.9782C13.5558 65.9782 13.6537 65.9893 13.7571 66.0114C13.8616 66.0325 13.959 66.0716 14.0494 66.1289C14.1408 66.1861 14.2156 66.268 14.2738 66.3744C14.3321 66.4799 14.3612 66.617 14.3612 66.7857V68.3223H13.9213V68.0059H13.9032C13.8741 68.0642 13.8304 68.1214 13.7722 68.1776C13.7139 68.2339 13.6391 68.2806 13.5477 68.3177C13.4563 68.3549 13.3469 68.3735 13.2193 68.3735ZM13.3172 68.0119C13.4418 68.0119 13.5482 67.9873 13.6366 67.9381C13.726 67.8889 13.7938 67.8246 13.84 67.7453C13.8872 67.6649 13.9108 67.5791 13.9108 67.4877V67.1894C13.8947 67.2055 13.8636 67.2205 13.8174 67.2346C13.7722 67.2477 13.7205 67.2592 13.6622 67.2693C13.604 67.2783 13.5472 67.2868 13.492 67.2949C13.4367 67.3019 13.3906 67.3079 13.3534 67.3129C13.266 67.324 13.1862 67.3426 13.1139 67.3687C13.0426 67.3948 12.9853 67.4325 12.9421 67.4817C12.8999 67.5299 12.8789 67.5941 12.8789 67.6745C12.8789 67.786 12.92 67.8703 13.0024 67.9276C13.0847 67.9838 13.1897 68.0119 13.3172 68.0119ZM14.9612 68.3223V66.0084H15.4116V68.3223H14.9612ZM15.1886 65.6513C15.1103 65.6513 15.043 65.6252 14.9868 65.573C14.9315 65.5198 14.9039 65.4565 14.9039 65.3832C14.9039 65.3089 14.9315 65.2456 14.9868 65.1934C15.043 65.1401 15.1103 65.1135 15.1886 65.1135C15.267 65.1135 15.3338 65.1401 15.389 65.1934C15.4452 65.2456 15.4734 65.3089 15.4734 65.3832C15.4734 65.4565 15.4452 65.5198 15.389 65.573C15.3338 65.6252 15.267 65.6513 15.1886 65.6513ZM16.468 65.237V68.3223H16.0176V65.237H16.468ZM17.3587 69.19C17.2914 69.19 17.2301 69.1845 17.1749 69.1734C17.1197 69.1634 17.0785 69.1523 17.0514 69.1403L17.1598 68.7712C17.2422 68.7933 17.3155 68.8028 17.3798 68.7998C17.444 68.7968 17.5008 68.7727 17.55 68.7275C17.6002 68.6823 17.6444 68.6085 17.6826 68.5061L17.7383 68.3524L16.8917 66.0084H17.3737L17.9598 67.804H17.9839L18.5699 66.0084H19.0534L18.0999 68.6311C18.0557 68.7516 17.9994 68.8535 17.9311 68.9369C17.8628 69.0213 17.7815 69.0845 17.6871 69.1267C17.5927 69.1689 17.4832 69.19 17.3587 69.19Z" fill="#626D7D"/>
<path d="M36.6803 66.5552V67.0041H35.2913V66.5552H36.6803ZM38.2421 68.7079V64.8514H38.4892V68.7079H38.2421ZM38.9547 66.0852C38.9406 65.9536 38.8814 65.8512 38.7769 65.7779C38.6735 65.7045 38.5389 65.6679 38.3732 65.6679C38.2567 65.6679 38.1568 65.6855 38.0734 65.7206C37.99 65.7558 37.9263 65.8035 37.8821 65.8637C37.8379 65.924 37.8153 65.9928 37.8143 66.0701C37.8143 66.1344 37.8288 66.1901 37.858 66.2373C37.8881 66.2845 37.9288 66.3247 37.98 66.3578C38.0312 66.39 38.088 66.4171 38.1502 66.4392C38.2125 66.4613 38.2753 66.4799 38.3385 66.4949L38.6278 66.5672C38.7443 66.5944 38.8562 66.631 38.9637 66.6772C39.0722 66.7234 39.1691 66.7817 39.2545 66.852C39.3408 66.9223 39.4091 67.0071 39.4593 67.1066C39.5095 67.206 39.5347 67.3225 39.5347 67.4561C39.5347 67.6368 39.4885 67.796 39.3961 67.9336C39.3037 68.0702 39.1701 68.1771 38.9953 68.2545C38.8216 68.3308 38.6112 68.369 38.3641 68.369C38.1241 68.369 37.9157 68.3318 37.739 68.2575C37.5632 68.1832 37.4256 68.0747 37.3262 67.9321C37.2278 67.7895 37.1745 67.6157 37.1665 67.4109H37.7164C37.7244 67.5183 37.7575 67.6077 37.8158 67.679C37.874 67.7503 37.9499 67.8035 38.0433 67.8387C38.1377 67.8738 38.2431 67.8914 38.3596 67.8914C38.4811 67.8914 38.5876 67.8733 38.679 67.8372C38.7714 67.8 38.8437 67.7488 38.8959 67.6835C38.9481 67.6172 38.9748 67.5399 38.9758 67.4515C38.9748 67.3712 38.9512 67.3049 38.905 67.2527C38.8588 67.1995 38.794 67.1553 38.7106 67.1201C38.6283 67.084 38.5319 67.0518 38.4214 67.0237L38.0704 66.9333C37.8163 66.868 37.6154 66.7691 37.4678 66.6365C37.3212 66.503 37.2479 66.3257 37.2479 66.1048C37.2479 65.923 37.2971 65.7638 37.3955 65.6272C37.4949 65.4906 37.63 65.3847 37.8007 65.3094C37.9715 65.233 38.1648 65.1949 38.3807 65.1949C38.5997 65.1949 38.7915 65.233 38.9562 65.3094C39.1219 65.3847 39.2519 65.4896 39.3463 65.6242C39.4408 65.7578 39.4895 65.9114 39.4925 66.0852H38.9547ZM41.2577 65.237V68.3223H40.6988V65.7809H40.6807L39.9591 66.2419V65.7297L40.7259 65.237H41.2577ZM43.1709 68.3644C43.0232 68.3634 42.8791 68.3378 42.7385 68.2876C42.5979 68.2364 42.4714 68.1535 42.3589 68.0391C42.2464 67.9236 42.157 67.7704 42.0907 67.5796C42.0245 67.3878 41.9918 67.1502 41.9928 66.867C41.9928 66.6029 42.0209 66.3674 42.0772 66.1605C42.1334 65.9536 42.2143 65.7789 42.3197 65.6363C42.4252 65.4926 42.5522 65.3832 42.7008 65.3078C42.8505 65.2325 43.0177 65.1949 43.2025 65.1949C43.3963 65.1949 43.5681 65.233 43.7177 65.3094C43.8684 65.3857 43.9899 65.4901 44.0823 65.6227C44.1747 65.7543 44.2319 65.9029 44.254 66.0686H43.7041C43.676 65.9501 43.6183 65.8557 43.5309 65.7854C43.4445 65.7141 43.3351 65.6784 43.2025 65.6784C42.9886 65.6784 42.8239 65.7713 42.7084 65.9571C42.5939 66.1429 42.5361 66.398 42.5351 66.7224H42.5562C42.6054 66.634 42.6692 66.5582 42.7475 66.4949C42.8259 66.4317 42.9143 66.383 43.0127 66.3488C43.1121 66.3137 43.2171 66.2961 43.3275 66.2961C43.5083 66.2961 43.6705 66.3393 43.8141 66.4256C43.9587 66.512 44.0732 66.631 44.1576 66.7827C44.242 66.9333 44.2836 67.1061 44.2826 67.3009C44.2836 67.5038 44.2374 67.686 44.144 67.8477C44.0506 68.0084 43.9206 68.135 43.7539 68.2274C43.5871 68.3198 43.3928 68.3655 43.1709 68.3644ZM43.1678 67.9125C43.2773 67.9125 43.3752 67.8859 43.4616 67.8327C43.548 67.7794 43.6163 67.7076 43.6665 67.6172C43.7167 67.5269 43.7413 67.4254 43.7403 67.3129C43.7413 67.2025 43.7172 67.1025 43.668 67.0132C43.6198 66.9238 43.553 66.853 43.4676 66.8007C43.3823 66.7485 43.2849 66.7224 43.1754 66.7224C43.094 66.7224 43.0182 66.738 42.9479 66.7691C42.8776 66.8002 42.8163 66.8434 42.7641 66.8987C42.7119 66.9529 42.6707 67.0162 42.6406 67.0885C42.6115 67.1598 42.5964 67.2361 42.5954 67.3175C42.5964 67.4249 42.6215 67.5238 42.6707 67.6142C42.7199 67.7046 42.7877 67.7769 42.8741 67.8312C42.9605 67.8854 43.0584 67.9125 43.1678 67.9125ZM45.0012 68.3554C44.9098 68.3554 44.8315 68.3233 44.7662 68.259C44.7009 68.1947 44.6688 68.1164 44.6698 68.024C44.6688 67.9336 44.7009 67.8563 44.7662 67.792C44.8315 67.7277 44.9098 67.6956 45.0012 67.6956C45.0896 67.6956 45.1664 67.7277 45.2317 67.792C45.298 67.8563 45.3316 67.9336 45.3326 68.024C45.3316 68.0853 45.3156 68.141 45.2844 68.1912C45.2543 68.2414 45.2141 68.2816 45.1639 68.3117C45.1147 68.3408 45.0605 68.3554 45.0012 68.3554ZM45.9032 68.3223L47.2153 65.7251V65.704H45.6923V65.237H47.7938V65.7146L46.4832 68.3223H45.9032ZM49.3146 68.3644C49.0906 68.3644 48.8918 68.3268 48.718 68.2515C48.5453 68.1761 48.4097 68.0732 48.3113 67.9426C48.2138 67.8111 48.1656 67.6619 48.1666 67.4952C48.1656 67.3657 48.1938 67.2467 48.251 67.1382C48.3083 67.0297 48.3856 66.9393 48.483 66.867C48.5814 66.7937 48.6909 66.747 48.8114 66.7269V66.7058C48.6527 66.6707 48.5242 66.5898 48.4258 66.4633C48.3283 66.3358 48.2801 66.1886 48.2811 66.0219C48.2801 65.8632 48.3243 65.7216 48.4137 65.5971C48.5031 65.4726 48.6256 65.3746 48.7813 65.3033C48.9369 65.231 49.1147 65.1949 49.3146 65.1949C49.5124 65.1949 49.6887 65.231 49.8433 65.3033C49.999 65.3746 50.1215 65.4726 50.2109 65.5971C50.3013 65.7216 50.3465 65.8632 50.3465 66.0219C50.3465 66.1886 50.2968 66.3358 50.1973 66.4633C50.0989 66.5898 49.9719 66.6707 49.8162 66.7058V66.7269C49.9367 66.747 50.0452 66.7937 50.1416 66.867C50.239 66.9393 50.3164 67.0297 50.3736 67.1382C50.4319 67.2467 50.461 67.3657 50.461 67.4952C50.461 67.6619 50.4118 67.8111 50.3133 67.9426C50.2149 68.0732 50.0793 68.1761 49.9066 68.2515C49.7349 68.3268 49.5375 68.3644 49.3146 68.3644ZM49.3146 67.9336C49.4301 67.9336 49.5305 67.914 49.6159 67.8748C49.7012 67.8347 49.7675 67.7784 49.8147 67.7061C49.8619 67.6338 49.886 67.5505 49.887 67.4561C49.886 67.3576 49.8604 67.2708 49.8102 67.1954C49.761 67.1191 49.6932 67.0594 49.6068 67.0162C49.5215 66.973 49.424 66.9514 49.3146 66.9514C49.2041 66.9514 49.1057 66.973 49.0193 67.0162C48.9329 67.0594 48.8646 67.1191 48.8144 67.1954C48.7652 67.2708 48.7411 67.3576 48.7421 67.4561C48.7411 67.5505 48.7642 67.6338 48.8114 67.7061C48.8586 67.7774 48.9249 67.8332 49.0103 67.8733C49.0966 67.9135 49.1981 67.9336 49.3146 67.9336ZM49.3146 66.5281C49.409 66.5281 49.4923 66.509 49.5646 66.4708C49.6379 66.4327 49.6957 66.3794 49.7379 66.3111C49.7801 66.2429 49.8017 66.164 49.8027 66.0746C49.8017 65.9863 49.7806 65.9089 49.7394 65.8426C49.6982 65.7754 49.641 65.7236 49.5676 65.6875C49.4943 65.6503 49.41 65.6317 49.3146 65.6317C49.2171 65.6317 49.1313 65.6503 49.057 65.6875C48.9836 65.7236 48.9264 65.7754 48.8852 65.8426C48.8451 65.9089 48.8255 65.9863 48.8265 66.0746C48.8255 66.164 48.8456 66.2429 48.8867 66.3111C48.9289 66.3784 48.9867 66.4317 49.06 66.4708C49.1343 66.509 49.2192 66.5281 49.3146 66.5281Z" fill="#EB5757"/>
<rect x="66.498" y="63.3223" width="20.3284" height="8" rx="4" fill="#219653" fill-opacity="0.2"/>
<path d="M70.1691 67.9042V66.14H70.5694V67.9042H70.1691ZM69.4872 67.2222V66.822H71.2513V67.2222H69.4872ZM72.8711 65.7117V68.3223H72.3982V66.1719H72.3829L71.7724 66.5619V66.1285L72.4212 65.7117H72.8711ZM73.4868 67.8379V67.4618L74.5945 65.7117H74.9081V66.2471H74.7169L73.9712 67.4287V67.4491H75.5174V67.8379H73.4868ZM74.7322 68.3223V67.7232L74.7373 67.5549V65.7117H75.1834V68.3223H74.7322ZM76.1404 68.3503C76.0631 68.3503 75.9968 68.3231 75.9416 68.2687C75.8863 68.2143 75.8591 68.1481 75.86 68.0699C75.8591 67.9934 75.8863 67.928 75.9416 67.8736C75.9968 67.8192 76.0631 67.792 76.1404 67.792C76.2152 67.792 76.2802 67.8192 76.3354 67.8736C76.3915 67.928 76.42 67.9934 76.4208 68.0699C76.42 68.1217 76.4064 68.1689 76.3801 68.2114C76.3546 68.2539 76.3206 68.2878 76.2781 68.3133C76.2364 68.338 76.1906 68.3503 76.1404 68.3503ZM77.7465 68.358C77.6216 68.3571 77.4997 68.3354 77.3807 68.2929C77.2617 68.2496 77.1546 68.1795 77.0595 68.0826C76.9643 67.9849 76.8887 67.8553 76.8326 67.6938C76.7765 67.5315 76.7489 67.3306 76.7497 67.0909C76.7497 66.8674 76.7735 66.6681 76.8211 66.4931C76.8687 66.318 76.9371 66.1702 77.0263 66.0495C77.1156 65.928 77.2231 65.8353 77.3488 65.7716C77.4754 65.7079 77.6169 65.676 77.7733 65.676C77.9373 65.676 78.0826 65.7083 78.2092 65.7729C78.3367 65.8375 78.4395 65.9258 78.5177 66.038C78.5959 66.1493 78.6443 66.2751 78.663 66.4153H78.1978C78.174 66.315 78.1251 66.2352 78.0512 66.1757C77.9781 66.1153 77.8855 66.0852 77.7733 66.0852C77.5923 66.0852 77.4529 66.1638 77.3552 66.321C77.2583 66.4782 77.2095 66.6941 77.2086 66.9685H77.2265C77.2681 66.8938 77.3221 66.8296 77.3883 66.7761C77.4546 66.7225 77.5294 66.6813 77.6127 66.6524C77.6968 66.6227 77.7856 66.6078 77.8791 66.6078C78.0321 66.6078 78.1693 66.6443 78.2908 66.7174C78.4132 66.7905 78.5101 66.8912 78.5815 67.0195C78.6528 67.147 78.6881 67.2932 78.6873 67.458C78.6881 67.6297 78.649 67.7839 78.57 67.9207C78.4909 68.0567 78.3809 68.1638 78.2398 68.242C78.0988 68.3201 77.9343 68.3588 77.7465 68.358ZM77.744 67.9755C77.8366 67.9755 77.9195 67.953 77.9925 67.908C78.0656 67.863 78.1234 67.8022 78.1659 67.7257C78.2084 67.6492 78.2292 67.5634 78.2284 67.4682C78.2292 67.3747 78.2088 67.2902 78.1672 67.2146C78.1264 67.1389 78.0699 67.079 77.9976 67.0348C77.9254 66.9906 77.843 66.9685 77.7504 66.9685C77.6815 66.9685 77.6174 66.9817 77.5579 67.0081C77.4984 67.0344 77.4466 67.0709 77.4024 67.1177C77.3582 67.1636 77.3233 67.2171 77.2978 67.2783C77.2732 67.3386 77.2604 67.4032 77.2596 67.472C77.2604 67.563 77.2817 67.6467 77.3233 67.7232C77.365 67.7996 77.4223 67.8608 77.4954 67.9067C77.5685 67.9526 77.6514 67.9755 77.744 67.9755ZM79.2137 68.3223L80.324 66.1247V66.1068H79.0352V65.7117H80.8134V66.1158L79.7045 68.3223H79.2137ZM82.6206 67.8328V67.6951C82.6206 67.594 82.6419 67.5009 82.6844 67.416C82.7277 67.331 82.7906 67.2626 82.873 67.2107C82.9555 67.1589 83.0553 67.133 83.1726 67.133C83.2932 67.133 83.3944 67.1589 83.476 67.2107C83.5575 67.2617 83.6191 67.3297 83.6608 67.4147C83.7033 67.4997 83.7245 67.5931 83.7245 67.6951V67.8328C83.7245 67.9339 83.7033 68.027 83.6608 68.1119C83.6183 68.1969 83.5558 68.2653 83.4734 68.3172C83.3918 68.369 83.2915 68.3949 83.1726 68.3949C83.0536 68.3949 82.9529 68.369 82.8705 68.3172C82.788 68.2653 82.7256 68.1969 82.6831 68.1119C82.6415 68.027 82.6206 67.9339 82.6206 67.8328ZM82.9533 67.6951V67.8328C82.9533 67.8999 82.9695 67.9615 83.0018 68.0176C83.0341 68.0737 83.091 68.1017 83.1726 68.1017C83.255 68.1017 83.3115 68.0741 83.3421 68.0189C83.3736 67.9628 83.3893 67.9008 83.3893 67.8328V67.6951C83.3893 67.6271 83.3744 67.5651 83.3447 67.509C83.3149 67.4521 83.2576 67.4236 83.1726 67.4236C83.0927 67.4236 83.0362 67.4521 83.003 67.509C82.9699 67.5651 82.9533 67.6271 82.9533 67.6951ZM81.2937 66.3388V66.2012C81.2937 66.0992 81.3153 66.0057 81.3587 65.9207C81.402 65.8358 81.4649 65.7678 81.5473 65.7168C81.6298 65.665 81.7296 65.639 81.8469 65.639C81.9667 65.639 82.0674 65.665 82.149 65.7168C82.2314 65.7678 82.2935 65.8358 82.3351 65.9207C82.3767 66.0057 82.3976 66.0992 82.3976 66.2012V66.3388C82.3976 66.4408 82.3763 66.5343 82.3338 66.6193C82.2922 66.7034 82.2302 66.771 82.1477 66.822C82.0653 66.8729 81.965 66.8984 81.8469 66.8984C81.7271 66.8984 81.6259 66.8729 81.5435 66.822C81.4619 66.771 81.3999 66.703 81.3574 66.618C81.3149 66.533 81.2937 66.44 81.2937 66.3388ZM81.6289 66.2012V66.3388C81.6289 66.4068 81.6446 66.4689 81.6761 66.5249C81.7084 66.5802 81.7653 66.6078 81.8469 66.6078C81.9285 66.6078 81.9846 66.5802 82.0152 66.5249C82.0466 66.4689 82.0623 66.4068 82.0623 66.3388V66.2012C82.0623 66.1332 82.0474 66.0712 82.0177 66.0151C81.988 65.9581 81.931 65.9297 81.8469 65.9297C81.7662 65.9297 81.7097 65.9581 81.6774 66.0151C81.6451 66.072 81.6289 66.134 81.6289 66.2012ZM81.439 68.3223L83.2338 65.7117H83.5524L81.7577 68.3223H81.439Z" fill="#219653"/>
</svg>
