<svg width="33" height="33" viewBox="0 0 33 33" fill="none" xmlns="http://www.w3.org/2000/svg">
<rect x="0.933105" y="0.118164" width="32" height="32" rx="16" fill="#F7931A"/>
<g clip-path="url(#clip0_2292_10889)">
<path d="M28.5729 19.021C26.9702 25.4497 20.459 29.362 14.0296 27.7589C7.6029 26.1562 3.69056 19.6446 5.29395 13.2165C6.89594 6.78719 13.4071 2.87456 19.8345 4.47724C26.2634 6.07993 30.1755 12.5922 28.5727 19.0211L28.5728 19.021H28.5729Z" fill="#F7931A"/>
<path d="M22.2246 14.4085C22.4635 12.8116 21.2477 11.9531 19.5852 11.3805L20.1245 9.21731L18.8077 8.88919L18.2827 10.9954C17.9365 10.9091 17.581 10.8277 17.2276 10.7471L17.7565 8.62694L16.4405 8.29883L15.9009 10.4613C15.6144 10.3961 15.333 10.3316 15.0601 10.2637L15.0616 10.2569L13.2457 9.80344L12.8954 11.2099C12.8954 11.2099 13.8724 11.4338 13.8518 11.4476C14.385 11.5807 14.4814 11.9337 14.4654 12.2135L13.8511 14.6778C13.8878 14.6872 13.9354 14.7007 13.988 14.7218C13.944 14.7109 13.8973 14.699 13.8488 14.6873L12.9877 18.1396C12.9225 18.3016 12.7571 18.5447 12.3843 18.4524C12.3975 18.4715 11.4272 18.2136 11.4272 18.2136L10.7734 19.7209L12.487 20.1481C12.8058 20.228 13.1182 20.3116 13.4259 20.3903L12.881 22.5783L14.1962 22.9064L14.7359 20.7416C15.0952 20.8392 15.4439 20.9292 15.7853 21.014L15.2475 23.1685L16.5643 23.4967L17.1092 21.3128C19.3546 21.7377 21.043 21.5664 21.7536 19.5354C22.3263 17.9002 21.7251 16.9571 20.5438 16.342C21.4042 16.1436 22.0523 15.5777 22.2251 14.4087L22.2247 14.4084L22.2246 14.4085ZM19.216 18.6273C18.8091 20.2625 16.056 19.3786 15.1633 19.1569L15.8864 16.2582C16.779 16.481 19.6414 16.922 19.2161 18.6273H19.216ZM19.6233 14.3848C19.2521 15.8722 16.9606 15.1165 16.2173 14.9312L16.8728 12.3023C17.6162 12.4876 20.01 12.8334 19.6234 14.3848H19.6233Z" fill="#212121"/>
</g>
<defs>
<clipPath id="clip0_2292_10889">
<rect width="24" height="24" fill="white" transform="translate(4.93311 4.11816)"/>
</clipPath>
</defs>
</svg>
