<svg width="33" height="33" viewBox="0 0 33 33" fill="none" xmlns="http://www.w3.org/2000/svg">
<rect x="0.933105" y="0.297852" width="32" height="32" rx="16" fill="#F00500"/>
<g clip-path="url(#clip0_2292_10897)">
<path d="M22.5057 6.4088C21.8811 7.02636 21.3089 7.6957 20.8003 8.40942L20.6394 8.35764C19.7119 8.05811 18.7507 7.87321 17.782 7.81034C17.4903 7.78815 16.4019 7.78815 16.0466 7.81034C14.9732 7.8806 14.1504 8.03962 13.2154 8.36134C13.178 8.37613 13.1444 8.38723 13.1107 8.39832C12.5833 7.68831 11.9962 7.02267 11.3491 6.4125C14.4534 4.84085 18.085 4.65225 21.3351 5.89108C21.6829 6.02051 22.0233 6.17213 22.3561 6.33484L22.5057 6.4088Z" fill="#F00500"/>
<path d="M28.2953 20.4357C27.8241 21.7633 27.1172 22.9947 26.2009 24.0671C25.7035 24.644 25.1537 25.1728 24.5627 25.6536C23.1789 26.7556 21.5632 27.5433 19.8391 27.9574C17.9316 28.4123 15.9419 28.4123 14.0345 27.9574C12.3066 27.5433 10.6946 26.7556 9.31077 25.6536C8.71984 25.1728 8.17005 24.644 7.67262 24.0671C5.03587 20.9867 4.2355 16.7562 5.57818 12.9436C5.83251 12.2372 6.15041 11.5568 6.5319 10.9097C6.70768 10.6138 6.92461 10.281 7.02933 10.1442C7.38837 11.6714 7.8297 13.0138 7.99426 13.4983C7.98304 13.5241 7.96808 13.5537 7.95312 13.5796C7.08169 15.3251 6.61044 17.0077 6.49824 18.7975C6.49824 18.8197 6.4945 18.8456 6.4945 18.8678C6.46458 19.404 6.47954 19.6591 6.5693 19.9956C6.8498 21.0496 7.71376 22.2107 9.06766 23.3497C11.2855 25.2135 14.2925 26.5596 16.5702 26.7149C18.9452 26.8739 22.4496 25.502 24.7834 23.4977C25.1499 23.1759 25.494 22.8357 25.8157 22.4733C26.0476 22.207 26.3916 21.7485 26.3655 21.7485C26.358 21.7485 26.3655 21.7411 26.3804 21.7337C26.3916 21.7263 26.4029 21.7152 26.3954 21.7078C26.3916 21.7041 26.3991 21.693 26.4103 21.6893C26.4216 21.6856 26.429 21.6782 26.4253 21.6708C26.4216 21.6634 26.4253 21.656 26.4403 21.6523C26.4515 21.6486 26.4552 21.6376 26.4515 21.6302C26.4477 21.6228 26.4515 21.6154 26.459 21.6154C26.4664 21.6154 26.4739 21.6043 26.4739 21.5969C26.4739 21.5895 26.4814 21.5784 26.4889 21.5784C26.4964 21.5784 26.5038 21.571 26.5038 21.5636C26.5151 21.534 26.5338 21.5044 26.5525 21.4785C26.6086 21.3935 26.833 20.9978 26.8629 20.9312C27.0761 20.4542 27.2107 20.0289 27.2743 19.6037C27.3042 19.4003 27.3229 19.0268 27.308 18.938C27.3042 18.9232 27.3042 18.8973 27.3005 18.8567C27.293 18.7827 27.2893 18.6718 27.2818 18.5608C27.2743 18.3944 27.2593 18.1614 27.2481 18.0468C27.0873 16.3679 26.6534 14.9959 25.8306 13.5426C25.797 13.4872 25.7671 13.4317 25.7484 13.3873C25.7409 13.3762 25.7371 13.3651 25.7334 13.3577C25.8493 13.0138 26.3243 11.5753 26.7021 9.92969L26.7095 9.93708L26.7656 10.011C26.8629 10.1405 27.121 10.5251 27.2369 10.71C27.7642 11.5605 28.1757 12.4739 28.4674 13.428C29.1443 15.7245 29.0882 18.1725 28.2953 20.4357Z" fill="#F00500"/>
<path d="M23.441 16.016C23.4298 16.0752 23.254 16.2527 23.0782 16.3821C22.5621 16.7556 21.6383 17.1032 20.6995 17.2696C20.1647 17.3658 19.6299 17.3806 19.469 17.3029C19.3643 17.2511 19.3494 17.2105 19.3868 17.0773C19.4653 16.8 19.7196 16.4967 20.1161 16.212C20.318 16.0678 21.1371 15.5759 21.5186 15.3688C22.147 15.0286 22.6556 14.8252 22.9997 14.7772C23.1082 14.7624 23.2391 14.7587 23.2802 14.7772C23.3475 14.8031 23.4223 14.999 23.4522 15.2357C23.4672 15.3615 23.4597 15.9162 23.441 16.016Z" fill="black"/>
<path d="M14.6294 17.2407C14.607 17.2851 14.4948 17.3331 14.3676 17.3516C14.2404 17.3701 13.8515 17.359 13.6308 17.3331C12.8379 17.2296 11.9964 16.9892 11.383 16.6934C11.0389 16.527 10.7921 16.3606 10.6088 16.1794L10.5041 16.0721L10.4929 15.9316C10.4742 15.6875 10.4779 15.3029 10.5078 15.1661C10.5265 15.0515 10.5677 14.9405 10.6238 14.8407C10.6537 14.8037 10.6537 14.8037 10.7883 14.8037C10.9529 14.8037 11.0913 14.8296 11.3157 14.8999C11.7757 15.0404 12.4602 15.3806 13.2942 15.8761C13.9824 16.2829 14.2404 16.4826 14.4387 16.7563C14.5733 16.9264 14.6631 17.1667 14.6294 17.2407Z" fill="black"/>
<path d="M19.9254 22.3875C19.9254 22.3986 19.8805 22.5761 19.8244 22.7868C19.7683 22.9976 19.7234 23.1677 19.7234 23.1751C19.6823 23.1788 19.6449 23.1825 19.6037 23.1788H19.484L19.3195 23.5634C19.2297 23.7742 19.1474 23.9702 19.1362 23.9998L19.1138 24.0516L19.0352 23.9258L18.9567 23.8001V22.7757L18.9268 22.7831C18.8632 22.7979 18.4106 22.8571 18.2124 22.8756C17.3933 22.957 16.5705 22.9385 15.7552 22.8238C15.6243 22.8053 15.5121 22.7905 15.5083 22.7942C15.5046 22.7979 15.5083 23.0346 15.5158 23.3267L15.527 23.8519L15.4634 23.948C15.4298 23.9998 15.3961 24.0442 15.3961 24.0479C15.3849 24.059 15.3475 23.9998 15.2615 23.8297C15.168 23.6522 15.1007 23.4636 15.052 23.2676L15.0259 23.1603L14.9099 23.1677L14.794 23.1788L14.7641 23.042C14.7491 22.968 14.7304 22.8534 14.7229 22.7905L14.7117 22.6722L14.6144 22.5871C14.5583 22.5391 14.5022 22.491 14.491 22.4836C14.4723 22.4688 14.4648 22.4429 14.4648 22.4207V22.3764L14.9324 22.3801L15.3999 22.3838L15.4148 22.4318L15.4298 22.4799L15.5906 22.4873C15.6804 22.491 15.9646 22.4984 16.2189 22.5058L16.6865 22.5169L16.8061 22.332L16.9296 22.1471H17.0866L17.0829 21.7625L17.0792 21.3779L16.8735 21.2892C16.2115 21.0007 15.8225 20.6716 15.6766 20.2722C15.6467 20.1908 15.6467 20.1613 15.6392 19.7915C15.6355 19.4254 15.6355 19.3921 15.6617 19.3107C15.714 19.1258 15.8599 18.9816 16.0469 18.9335C16.1105 18.915 16.2788 18.915 17.1614 18.915L18.2012 18.9187L18.3171 18.9742C18.4555 19.0408 18.5191 19.0888 18.5976 19.1924C18.6874 19.3107 18.7136 19.4032 18.7136 19.6288C18.7136 19.9505 18.6911 20.2278 18.6575 20.3388C18.6089 20.4904 18.5341 20.6346 18.4406 20.764C18.2536 21.0007 17.9132 21.2374 17.6028 21.3446L17.513 21.3779L17.5168 21.7662L17.5205 22.1545L17.6028 22.1619L17.6851 22.1693L17.7973 22.3357L17.9057 22.5021H18.4069C18.6837 22.5021 18.9268 22.5058 18.9492 22.5095C18.9866 22.5169 18.9941 22.5132 19.0315 22.4503L19.0764 22.3838H19.5065C19.8281 22.369 19.9254 22.3764 19.9254 22.3875Z" fill="black"/>
<path d="M17.9501 23.4491C17.8791 23.4898 17.8305 23.5083 17.8192 23.5009C17.808 23.4972 17.7557 23.4528 17.6996 23.4121L17.5986 23.3308L17.4939 23.4417C17.2657 23.6858 17.2582 23.6969 17.1909 23.7006C17.0862 23.7117 17.0637 23.6932 16.9366 23.5046C16.8693 23.4084 16.8169 23.3271 16.8169 23.3271C16.8169 23.3271 16.7683 23.3197 16.7122 23.316L16.6075 23.3049L16.5588 23.4047L16.5102 23.5046L16.4242 23.4787C16.3569 23.4565 16.2896 23.4306 16.226 23.401L16.1138 23.3456V23.1348L17.1086 23.1385L18.1035 23.1422L18.1072 23.242C18.111 23.3604 18.1147 23.3567 17.9501 23.4491Z" fill="black"/>
<path d="M27.3005 18.9374C27.2967 18.9226 27.2967 18.8967 27.293 18.856C26.3954 18.7599 23.8334 18.7007 21.4547 20.6421C21.4547 20.6421 20.688 17.166 17.0976 17.166C13.5071 17.166 12.1756 20.6421 12.1756 20.6421C10.1635 18.501 7.47063 18.6563 6.49821 18.7968C6.49821 18.819 6.49447 18.8449 6.49447 18.8671C6.46455 19.4033 6.47951 19.6585 6.56927 19.995C6.84978 21.0489 7.71374 22.2101 9.06764 23.3491C11.2855 25.2129 14.2925 26.5589 16.5702 26.7142C18.9452 26.8733 22.4496 25.5013 24.7834 23.497C25.1499 23.1753 25.494 22.835 25.8157 22.4726C26.0475 22.2064 26.3916 21.7478 26.3654 21.7478C26.358 21.7478 26.3654 21.7404 26.3804 21.733C26.3916 21.7256 26.4028 21.7146 26.3954 21.7072C26.3916 21.7035 26.3991 21.6924 26.4103 21.6887C26.4215 21.685 26.429 21.6776 26.4253 21.6702C26.4215 21.6628 26.4253 21.6554 26.4402 21.6517C26.4515 21.648 26.4552 21.6369 26.4515 21.6295C26.4477 21.6221 26.4515 21.6147 26.459 21.6147C26.4664 21.6147 26.4739 21.6036 26.4739 21.5962C26.4739 21.5888 26.4814 21.5777 26.4889 21.5777C26.4963 21.5777 26.5038 21.5703 26.5038 21.5629C26.515 21.5333 26.5338 21.5038 26.5525 21.4779C26.6086 21.3928 26.833 20.9971 26.8629 20.9306C27.0761 20.4535 27.2107 20.0283 27.2743 19.603C27.2967 19.3996 27.3154 19.0261 27.3005 18.9374ZM17.9503 23.4489C17.8792 23.4896 17.8306 23.5081 17.8194 23.5007C17.8082 23.497 17.7558 23.4526 17.6997 23.4119L17.5987 23.3306L17.494 23.4415C17.2659 23.6856 17.2584 23.6967 17.1911 23.7004C17.0863 23.7115 17.0639 23.693 16.9367 23.5044C16.8694 23.4082 16.8171 23.3269 16.8171 23.3269C16.8171 23.3269 16.7684 23.3195 16.7123 23.3158L16.6076 23.3047L16.559 23.4045L16.5104 23.5044L16.4243 23.4785C16.357 23.4563 16.2897 23.4304 16.2261 23.4008L16.1139 23.3454V23.1346L17.1088 23.1383L18.1036 23.142L18.1074 23.2418C18.1111 23.3602 18.1149 23.3565 17.9503 23.4489ZM19.8203 22.7833C19.7642 22.9941 19.7193 23.1642 19.7193 23.1716C19.6782 23.1753 19.6408 23.179 19.5997 23.1753H19.48L19.3192 23.5635C19.2294 23.7743 19.1471 23.9703 19.1359 23.9999L19.1135 24.0517L19.0349 23.926L18.9564 23.8002V22.7759L18.9265 22.7833C18.8629 22.7981 18.4103 22.8572 18.2121 22.8757C17.393 22.9571 16.5702 22.9386 15.7549 22.8239C15.624 22.8055 15.5118 22.7907 15.508 22.7944C15.5043 22.7981 15.508 23.0347 15.5155 23.3269L15.5267 23.852L15.4632 23.9481C15.4295 23.9999 15.3958 24.0443 15.3958 24.048C15.3846 24.0591 15.3472 23.9999 15.2612 23.8298C15.1677 23.6523 15.1004 23.4637 15.0517 23.2677L15.0256 23.1605L14.9096 23.1679L14.7937 23.179L14.7638 23.0421C14.7488 22.9682 14.7301 22.8535 14.7226 22.7907L14.7114 22.6723L14.6142 22.5873C14.5581 22.5392 14.502 22.4911 14.4907 22.4837C14.472 22.4689 14.4646 22.4431 14.4646 22.4209V22.3765L14.9321 22.3802L15.3996 22.3839L15.4145 22.432L15.4295 22.48L15.5903 22.4874C15.6801 22.4911 15.9643 22.4985 16.2186 22.5059L16.6862 22.517L16.8058 22.3321L16.9293 22.1472H17.0863L17.0826 21.7626L17.0789 21.378L16.8732 21.2893C16.2112 21.0008 15.8222 20.6717 15.6763 20.2723C15.6464 20.191 15.6464 20.1614 15.6389 19.7916C15.6352 19.4255 15.6352 19.3922 15.6614 19.3109C15.7137 19.126 15.8596 18.9817 16.0466 18.9337C16.1102 18.9152 16.2785 18.9152 17.1611 18.9152L18.2009 18.9189L18.3168 18.9743C18.4552 19.0409 18.5188 19.089 18.5973 19.1925C18.6871 19.3109 18.7133 19.4033 18.7133 19.6289C18.7133 19.9506 18.6908 20.228 18.6572 20.3389C18.6086 20.4905 18.5337 20.6347 18.4402 20.7642C18.2532 21.0008 17.9129 21.2375 17.6025 21.3448L17.5127 21.378L17.5165 21.7663L17.5202 22.1546L17.6025 22.162L17.6848 22.1694L17.797 22.3358L17.9054 22.5022H18.4066C18.6833 22.5022 18.9265 22.5059 18.9489 22.5096C18.9863 22.517 18.9938 22.5133 19.0312 22.4505L19.0761 22.3839H19.5062C19.839 22.3839 19.9363 22.3876 19.9363 22.3987C19.9251 22.395 19.8764 22.5762 19.8203 22.7833Z" fill="black"/>
<path d="M27.2705 18.5604C27.263 18.394 27.2481 18.1611 27.2369 18.0464C27.076 16.3675 26.6422 14.9956 25.8194 13.5423C25.7857 13.4868 25.7558 13.4313 25.7371 13.3869C25.7296 13.3759 25.7259 13.3648 25.7221 13.3574C25.8381 13.0135 26.3131 11.5749 26.6908 9.92933C27.2032 7.69574 27.5286 5.08496 26.5337 4.30098C26.5337 4.30098 24.8133 4.17525 22.5094 6.40884C21.8848 7.0264 21.3126 7.69574 20.804 8.40945L20.6431 8.35768C19.7156 8.05814 18.7544 7.87324 17.7857 7.81038C17.494 7.78819 16.4056 7.78819 16.0503 7.81038C14.9769 7.88064 14.1541 8.03965 13.2191 8.36138C13.1817 8.37617 13.148 8.38726 13.1144 8.39836C12.587 7.68834 11.9998 7.0227 11.3528 6.41253C8.95543 4.16785 7.17141 4.29728 7.17141 4.29728C6.11672 5.10714 6.47576 7.83626 7.02181 10.1438C7.38086 11.6711 7.82219 13.0135 7.98675 13.4979C7.97553 13.5238 7.96057 13.5534 7.94561 13.5792C7.07417 15.3247 6.60292 17.0073 6.49072 18.7971C7.46688 18.6566 10.156 18.4976 12.1719 20.6424C12.1719 20.6424 13.5033 17.1663 17.0938 17.1663C20.6843 17.1663 21.451 20.6424 21.451 20.6424C23.8297 18.701 26.3916 18.7638 27.2892 18.8563C27.2855 18.7823 27.278 18.6714 27.2705 18.5604ZM8.69362 12.1037C8.69362 12.1037 7.29484 8.64612 7.65388 6.67139C7.71372 6.33857 7.82593 6.04643 8.00171 5.82455C8.00171 5.82455 9.58749 5.97987 12.1457 8.79034C12.1457 8.79034 11.6595 9.02332 11.0087 9.51885C11.0087 9.51885 11.005 9.52255 11.0012 9.52255C10.2944 10.0588 9.38927 10.9093 8.69362 12.1037ZM14.6291 17.2403C14.6067 17.2846 14.4945 17.3327 14.3673 17.3512C14.2401 17.3697 13.8512 17.3586 13.6305 17.3327C12.8376 17.2292 11.9961 16.9888 11.3827 16.693C11.0386 16.5265 10.7918 16.3601 10.6085 16.1789L10.5038 16.0717L10.4926 15.9312C10.4739 15.6871 10.4776 15.3025 10.5076 15.1657C10.5263 15.051 10.5674 14.9401 10.6235 14.8403C10.6534 14.8033 10.6534 14.8033 10.7881 14.8033C10.9526 14.8033 11.091 14.8292 11.3154 14.8994C11.7754 15.04 12.4599 15.3802 13.2939 15.8757C13.9821 16.2825 14.2401 16.4822 14.4384 16.7558C14.573 16.9259 14.6628 17.1663 14.6291 17.2403ZM23.4407 16.0162C23.4295 16.0754 23.2537 16.2529 23.0779 16.3823C22.5618 16.7558 21.638 17.1034 20.6992 17.2698C20.1644 17.366 19.6296 17.3808 19.4687 17.3031C19.364 17.2514 19.3491 17.2107 19.3865 17.0775C19.465 16.8002 19.7193 16.497 20.1158 16.2122C20.3177 16.068 21.1368 15.5762 21.5183 15.3691C22.1466 15.0289 22.6553 14.8255 22.9994 14.7774C23.1078 14.7626 23.2387 14.7589 23.2799 14.7774C23.3472 14.8033 23.422 14.9993 23.4519 15.2359C23.4669 15.3617 23.4594 15.9164 23.4407 16.0162ZM22.8198 9.51885L22.8124 9.51515C22.184 9.01962 21.7128 8.78665 21.7128 8.78665C24.185 5.97617 25.7147 5.82086 25.7147 5.82086C25.883 6.04643 25.9914 6.33488 26.0513 6.6677C26.3991 8.64242 25.0489 12.1037 25.0489 12.1037C24.4842 11.109 23.7249 10.2289 22.8198 9.51885Z" fill="#FFA409"/>
<path d="M26.0551 6.66813C25.7634 6.63115 24.3833 6.62375 22.8199 9.51929L22.8125 9.51559C22.1841 9.02006 21.7129 8.78708 21.7129 8.78708C24.1851 5.9766 25.7147 5.82129 25.7147 5.82129C25.8868 6.04687 25.9952 6.33531 26.0551 6.66813Z" fill="#FF9300"/>
<path d="M25.0526 12.1045C24.4841 11.1061 23.7287 10.2296 22.8198 9.51963C24.3832 6.6241 25.7595 6.6315 26.055 6.66848C26.4028 8.64691 25.0526 12.1045 25.0526 12.1045Z" fill="#FF8300"/>
<path d="M26.1113 6.67906C26.0926 6.67536 26.0739 6.67167 26.0552 6.66797L26.1113 6.67906Z" fill="#FF8300"/>
<path d="M12.1459 8.78708C12.1459 8.78708 11.6597 9.02006 11.009 9.51559C11.009 9.51559 11.0052 9.51929 11.0015 9.51929C9.38204 6.62006 7.95708 6.63115 7.65039 6.66813C7.71023 6.33531 7.82244 6.04317 7.99822 5.82129C8.00196 5.82129 9.58774 5.9766 12.1459 8.78708Z" fill="#FF9300"/>
<path d="M11.0053 9.51963C10.2946 10.0595 9.38955 10.9064 8.69389 12.1045C8.69389 12.1045 7.2951 8.64691 7.65415 6.66848C7.9571 6.6315 9.3858 6.6241 11.0053 9.51963Z" fill="#FF8300"/>
<path d="M7.65408 6.66797C7.63538 6.67167 7.61294 6.67536 7.59424 6.67906L7.65408 6.66797Z" fill="#FF8300"/>
<path d="M21.2677 14.023C21.2677 14.023 20.0709 14.0969 20.2205 13.1724C20.3701 12.2479 21.3051 12.137 21.5669 12.174C21.8287 12.2109 22.8759 12.5807 22.6889 13.3573C22.5019 14.1339 22.2401 13.986 22.0905 14.023C21.9409 14.0599 21.2677 14.023 21.2677 14.023Z" fill="black"/>
<path d="M12.441 14.023C12.441 14.023 11.2442 14.0969 11.3938 13.1724C11.5434 12.2479 12.4784 12.137 12.7402 12.174C13.002 12.2109 14.0492 12.5807 13.8622 13.3573C13.6752 14.1339 13.4134 13.986 13.2638 14.023C13.1142 14.0599 12.441 14.023 12.441 14.023Z" fill="black"/>
</g>
<defs>
<clipPath id="clip0_2292_10897">
<rect width="24" height="24" fill="white" transform="translate(4.93311 4.29785)"/>
</clipPath>
</defs>
</svg>
