<svg width="97" height="77" viewBox="0 0 97 77" fill="none" xmlns="http://www.w3.org/2000/svg">
<rect x="0.813477" y="0.605469" width="96.0388" height="75.7131" rx="8.13027" fill="#1C1C25"/>
<path d="M9.82619 14.2109V10.4137H11.2798C11.5542 10.4137 11.7823 10.457 11.964 10.5435C12.1469 10.6288 12.2835 10.7456 12.3737 10.894C12.4652 11.0423 12.5109 11.2104 12.5109 11.3983C12.5109 11.5528 12.4813 11.685 12.4219 11.795C12.3626 11.9038 12.2829 11.9922 12.1827 12.0602C12.0826 12.1282 11.9708 12.177 11.8472 12.2067V12.2437C11.9819 12.2512 12.1111 12.2926 12.2347 12.368C12.3595 12.4421 12.4615 12.5472 12.5406 12.6832C12.6197 12.8191 12.6593 12.9835 12.6593 13.1764C12.6593 13.3729 12.6117 13.5496 12.5165 13.7066C12.4213 13.8624 12.2779 13.9854 12.0863 14.0756C11.8947 14.1658 11.6537 14.2109 11.3632 14.2109H9.82619ZM10.5141 13.6362H11.2538C11.5035 13.6362 11.6834 13.5886 11.7934 13.4934C11.9046 13.397 11.9603 13.2734 11.9603 13.1226C11.9603 13.0101 11.9324 12.9087 11.8768 12.8185C11.8212 12.727 11.7421 12.6553 11.6395 12.6034C11.5369 12.5503 11.4145 12.5237 11.2724 12.5237H10.5141V13.6362ZM10.5141 12.0287H11.1945C11.3132 12.0287 11.4201 12.007 11.5153 11.9638C11.6104 11.9193 11.6852 11.8569 11.7396 11.7765C11.7952 11.6949 11.8231 11.5985 11.8231 11.4873C11.8231 11.3402 11.7711 11.219 11.6673 11.1239C11.5647 11.0287 11.4121 10.9811 11.2093 10.9811H10.5141V12.0287ZM15.0432 13.0132V11.363H15.7143V14.2109H15.0636V13.7048H15.0339C14.9696 13.8642 14.8639 13.9946 14.7168 14.096C14.571 14.1973 14.3911 14.248 14.1773 14.248C13.9906 14.248 13.8256 14.2066 13.6822 14.1238C13.5401 14.0397 13.4289 13.918 13.3485 13.7585C13.2682 13.5978 13.228 13.4038 13.228 13.1764V11.363H13.8992V13.0725C13.8992 13.253 13.9486 13.3964 14.0475 13.5027C14.1464 13.609 14.2762 13.6621 14.4369 13.6621C14.5358 13.6621 14.6315 13.638 14.7243 13.5898C14.817 13.5416 14.893 13.4699 14.9523 13.3747C15.0129 13.2783 15.0432 13.1578 15.0432 13.0132ZM16.8217 15.2789C16.7302 15.2789 16.6456 15.2715 16.5677 15.2566C16.4911 15.2431 16.4299 15.227 16.3841 15.2084L16.5399 14.6856C16.6375 14.714 16.7247 14.7276 16.8013 14.7264C16.8779 14.7251 16.9453 14.701 17.0034 14.6541C17.0627 14.6083 17.1128 14.5317 17.1536 14.4242L17.2111 14.2703L16.1783 11.363H16.8903L17.5467 13.5138H17.5763L18.2345 11.363H18.9484L17.8081 14.5558C17.7549 14.7066 17.6845 14.8358 17.5967 14.9433C17.509 15.0521 17.4014 15.1349 17.2741 15.1918C17.148 15.2499 16.9972 15.2789 16.8217 15.2789Z" fill="white"/>
<path d="M9.45166 33.2509L10.1441 33.4438C10.8366 33.6368 12.2215 34.0227 13.6065 34.7596C14.9914 35.4965 16.3763 36.5843 17.7613 37.4726C19.1462 38.3609 20.5311 39.0497 21.9161 37.9196C23.301 36.7894 24.6859 33.8404 26.0709 34.1298C27.4558 34.4193 28.8408 37.9473 30.2257 39.4992C31.6106 41.051 32.9956 40.6267 34.3805 40.1366C35.7654 39.6465 37.1504 39.0906 38.5353 37.5679C39.9202 36.0452 41.3052 33.5557 42.6901 32.5577C44.075 31.5597 45.46 32.0531 46.8449 31.1777C48.2298 30.3024 49.6148 28.0582 50.9997 27.1925C52.3847 26.3269 53.7696 26.8398 55.1545 28.099C56.5395 29.3583 57.9244 31.3641 59.3093 31.2963C60.6943 31.2286 62.0792 29.0874 63.4641 28.9223C64.8491 28.7572 66.234 30.5682 67.6189 32.3C69.0039 34.0318 70.3888 35.6845 71.7737 34.4642C73.1587 33.2439 74.5436 29.1507 75.9286 26.982C77.3135 24.8133 78.6984 24.5693 79.3909 24.4472L80.0834 24.3252" stroke="#F0C98C" stroke-width="0.652643" stroke-linecap="round"/>
<path d="M11.4031 54.2935V48.3604H11.7832V54.2935H11.4031ZM12.4993 50.2585C12.4777 50.0561 12.3865 49.8985 12.2259 49.7857C12.0667 49.6729 11.8597 49.6165 11.6047 49.6165C11.4255 49.6165 11.2718 49.6436 11.1435 49.6977C11.0153 49.7517 10.9172 49.8251 10.8492 49.9178C10.7812 50.0105 10.7464 50.1164 10.7449 50.2353C10.7449 50.3342 10.7673 50.42 10.8121 50.4926C10.8585 50.5652 10.921 50.627 10.9998 50.678C11.0786 50.7275 11.1659 50.7692 11.2617 50.8032C11.3575 50.8372 11.4541 50.8657 11.5514 50.8889L11.9964 51.0002C12.1756 51.0419 12.3479 51.0983 12.5132 51.1694C12.6801 51.2404 12.8292 51.33 12.9605 51.4382C13.0934 51.5464 13.1985 51.6769 13.2757 51.8299C13.353 51.9828 13.3916 52.1621 13.3916 52.3676C13.3916 52.6457 13.3205 52.8906 13.1784 53.1022C13.0363 53.3124 12.8308 53.4769 12.5619 53.5959C12.2946 53.7133 11.9709 53.772 11.5908 53.772C11.2216 53.772 10.9009 53.7149 10.629 53.6005C10.3586 53.4862 10.1469 53.3193 9.99398 53.0999C9.84257 52.8805 9.76068 52.6132 9.74832 52.298H10.5942C10.6066 52.4634 10.6576 52.6009 10.7472 52.7106C10.8368 52.8203 10.9535 52.9022 11.0972 52.9562C11.2424 53.0103 11.4046 53.0374 11.5839 53.0374C11.7708 53.0374 11.9346 53.0095 12.0752 52.9539C12.2174 52.8968 12.3286 52.818 12.4089 52.7175C12.4893 52.6155 12.5302 52.4966 12.5318 52.3606C12.5302 52.237 12.4939 52.135 12.4229 52.0547C12.3518 51.9728 12.2521 51.9048 12.1239 51.8507C11.9972 51.7951 11.8489 51.7457 11.6789 51.7024L11.1389 51.5633C10.748 51.4629 10.439 51.3107 10.2118 51.1068C9.98626 50.9013 9.87347 50.6286 9.87347 50.2887C9.87347 50.009 9.94918 49.7641 10.1006 49.554C10.2536 49.3438 10.4614 49.1808 10.724 49.0649C10.9867 48.9475 11.2841 48.8888 11.6163 48.8888C11.9531 48.8888 12.2483 48.9475 12.5017 49.0649C12.7566 49.1808 12.9567 49.3423 13.1019 49.5493C13.2472 49.7548 13.3221 49.9912 13.3267 50.2585H12.4993ZM14.1118 53.7002V53.0791L15.7597 51.4637C15.9172 51.3045 16.0486 51.1632 16.1536 51.0396C16.2587 50.916 16.3375 50.7962 16.39 50.6803C16.4426 50.5645 16.4688 50.4408 16.4688 50.3095C16.4688 50.1596 16.4349 50.0314 16.3669 49.9248C16.2989 49.8166 16.2054 49.7332 16.0864 49.6745C15.9675 49.6158 15.8323 49.5864 15.6809 49.5864C15.5248 49.5864 15.3881 49.6189 15.2706 49.6838C15.1532 49.7471 15.062 49.8375 14.9972 49.9549C14.9338 50.0723 14.9021 50.2122 14.9021 50.3744H14.084C14.084 50.0731 14.1528 49.8112 14.2903 49.5887C14.4278 49.3662 14.6171 49.194 14.8581 49.0719C15.1007 48.9498 15.3788 48.8888 15.6924 48.8888C16.0107 48.8888 16.2904 48.9483 16.5314 49.0673C16.7725 49.1862 16.9594 49.3492 17.0923 49.5563C17.2267 49.7633 17.2939 49.9997 17.2939 50.2655C17.2939 50.4432 17.2599 50.6178 17.1919 50.7893C17.124 50.9608 17.0042 51.1508 16.8327 51.3594C16.6628 51.568 16.424 51.8206 16.1166 52.1173L15.2984 52.9493V52.9817H17.3658V53.7002H14.1118ZM19.8688 53.7651C19.5351 53.7651 19.2384 53.7079 18.9788 53.5936C18.7208 53.4792 18.5168 53.3201 18.367 53.1162C18.2171 52.9122 18.1375 52.6766 18.1283 52.4093H18.9997C19.0074 52.5375 19.0499 52.6495 19.1272 52.7453C19.2044 52.8396 19.3072 52.913 19.4354 52.9655C19.5636 53.018 19.7073 53.0443 19.8665 53.0443C20.0364 53.0443 20.1871 53.015 20.3184 52.9562C20.4497 52.896 20.5525 52.8125 20.6267 52.7059C20.7008 52.5993 20.7371 52.4765 20.7356 52.3374C20.7371 52.1937 20.7001 52.067 20.6243 51.9573C20.5486 51.8476 20.4389 51.7619 20.2952 51.7001C20.1531 51.6383 19.9816 51.6074 19.7807 51.6074H19.3612V50.9445H19.7807C19.9461 50.9445 20.0905 50.916 20.2141 50.8588C20.3393 50.8016 20.4374 50.7213 20.5085 50.6178C20.5795 50.5127 20.6143 50.3914 20.6128 50.2539C20.6143 50.1195 20.5842 50.0028 20.5224 49.9039C20.4621 49.8035 20.3764 49.7255 20.2651 49.6698C20.1554 49.6142 20.0264 49.5864 19.8781 49.5864C19.7328 49.5864 19.5984 49.6127 19.4748 49.6652C19.3512 49.7177 19.2515 49.7927 19.1758 49.89C19.1001 49.9858 19.0599 50.1002 19.0553 50.233H18.2279C18.2341 49.9673 18.3106 49.734 18.4574 49.5331C18.6057 49.3307 18.8035 49.1731 19.0507 49.0603C19.2979 48.946 19.5752 48.8888 19.8827 48.8888C20.1994 48.8888 20.4745 48.9483 20.7078 49.0673C20.9426 49.1847 21.1242 49.3431 21.2524 49.5424C21.3807 49.7417 21.4448 49.9619 21.4448 50.2029C21.4463 50.4702 21.3675 50.6942 21.2084 50.875C21.0508 51.0558 20.8437 51.174 20.5873 51.2296V51.2667C20.921 51.313 21.1767 51.4367 21.3544 51.6375C21.5336 51.8368 21.6225 52.0848 21.6209 52.3815C21.6209 52.6472 21.5452 52.8852 21.3938 53.0953C21.2439 53.3039 21.0369 53.4677 20.7727 53.5866C20.51 53.7056 20.2087 53.7651 19.8688 53.7651ZM23.2705 53.0513L23.2404 53.3062C23.2187 53.5009 23.1801 53.6987 23.1245 53.8995C23.0704 54.1019 23.0132 54.2881 22.953 54.4581C22.8927 54.628 22.844 54.7617 22.807 54.859H22.2415C22.2631 54.7648 22.2925 54.6365 22.3295 54.4743C22.3682 54.312 22.4052 54.1297 22.4408 53.9273C22.4763 53.7249 22.5003 53.5194 22.5126 53.3108L22.5288 53.0513H23.2705ZM24.2219 53.7002L26.2405 49.7046V49.6722H23.8974V48.9537H27.1305V49.6884L25.1142 53.7002H24.2219ZM29.4736 53.7651C29.1399 53.7651 28.8432 53.7079 28.5836 53.5936C28.3256 53.4792 28.1217 53.3201 27.9718 53.1162C27.8219 52.9122 27.7423 52.6766 27.7331 52.4093H28.6045C28.6122 52.5375 28.6547 52.6495 28.732 52.7453C28.8092 52.8396 28.912 52.913 29.0402 52.9655C29.1685 53.018 29.3121 53.0443 29.4713 53.0443C29.6412 53.0443 29.7919 53.015 29.9232 52.9562C30.0546 52.896 30.1573 52.8125 30.2315 52.7059C30.3056 52.5993 30.3419 52.4765 30.3404 52.3374C30.3419 52.1937 30.3049 52.067 30.2292 51.9573C30.1534 51.8476 30.0437 51.7619 29.9 51.7001C29.7579 51.6383 29.5864 51.6074 29.3855 51.6074H28.966V50.9445H29.3855C29.5509 50.9445 29.6953 50.916 29.8189 50.8588C29.9441 50.8016 30.0422 50.7213 30.1133 50.6178C30.1843 50.5127 30.2191 50.3914 30.2176 50.2539C30.2191 50.1195 30.189 50.0028 30.1272 49.9039C30.0669 49.8035 29.9812 49.7255 29.8699 49.6698C29.7602 49.6142 29.6312 49.5864 29.4829 49.5864C29.3376 49.5864 29.2032 49.6127 29.0796 49.6652C28.956 49.7177 28.8563 49.7927 28.7806 49.89C28.7049 49.9858 28.6648 50.1002 28.6601 50.233H27.8327C27.8389 49.9673 27.9154 49.734 28.0622 49.5331C28.2105 49.3307 28.4083 49.1731 28.6555 49.0603C28.9027 48.946 29.18 48.8888 29.4875 48.8888C29.8043 48.8888 30.0793 48.9483 30.3126 49.0673C30.5474 49.1847 30.729 49.3431 30.8572 49.5424C30.9855 49.7417 31.0496 49.9619 31.0496 50.2029C31.0511 50.4702 30.9723 50.6942 30.8132 50.875C30.6556 51.0558 30.4486 51.174 30.1921 51.2296V51.2667C30.5258 51.313 30.7815 51.4367 30.9592 51.6375C31.1384 51.8368 31.2273 52.0848 31.2257 52.3815C31.2257 52.6472 31.15 52.8852 30.9986 53.0953C30.8487 53.3039 30.6417 53.4677 30.3775 53.5866C30.1148 53.7056 29.8135 53.7651 29.4736 53.7651ZM33.7085 53.7651C33.3639 53.7651 33.058 53.7071 32.7907 53.5913C32.525 53.4754 32.3164 53.317 32.1649 53.1162C32.0151 52.9137 31.9409 52.6843 31.9425 52.4278C31.9409 52.2285 31.9842 52.0454 32.0722 51.8785C32.1603 51.7117 32.2793 51.5726 32.4292 51.4614C32.5806 51.3486 32.749 51.2767 32.9344 51.2458V51.2134C32.6903 51.1593 32.4925 51.0349 32.3411 50.8402C32.1912 50.644 32.117 50.4177 32.1186 50.1612C32.117 49.9171 32.185 49.6992 32.3225 49.5076C32.4601 49.316 32.6486 49.1654 32.888 49.0557C33.1275 48.9444 33.401 48.8888 33.7085 48.8888C34.0129 48.8888 34.284 48.9444 34.522 49.0557C34.7615 49.1654 34.95 49.316 35.0875 49.5076C35.2265 49.6992 35.2961 49.9171 35.2961 50.1612C35.2961 50.4177 35.2196 50.644 35.0666 50.8402C34.9152 51.0349 34.7197 51.1593 34.4803 51.2134V51.2458C34.6657 51.2767 34.8325 51.3486 34.9809 51.4614C35.1307 51.5726 35.2497 51.7117 35.3378 51.8785C35.4274 52.0454 35.4722 52.2285 35.4722 52.4278C35.4722 52.6843 35.3965 52.9137 35.2451 53.1162C35.0937 53.317 34.8851 53.4754 34.6193 53.5913C34.3551 53.7071 34.0515 53.7651 33.7085 53.7651ZM33.7085 53.1022C33.8862 53.1022 34.0407 53.0721 34.172 53.0119C34.3033 52.9501 34.4053 52.8635 34.4779 52.7523C34.5506 52.641 34.5876 52.5128 34.5892 52.3676C34.5876 52.2161 34.5482 52.0825 34.471 51.9666C34.3953 51.8492 34.291 51.7573 34.1581 51.6908C34.0268 51.6244 33.8769 51.5912 33.7085 51.5912C33.5385 51.5912 33.3871 51.6244 33.2542 51.6908C33.1214 51.7573 33.0163 51.8492 32.939 51.9666C32.8633 52.0825 32.8262 52.2161 32.8278 52.3676C32.8262 52.5128 32.8618 52.641 32.9344 52.7523C33.007 52.862 33.109 52.9477 33.2403 53.0095C33.3732 53.0713 33.5293 53.1022 33.7085 53.1022ZM33.7085 50.9399C33.8537 50.9399 33.982 50.9105 34.0932 50.8518C34.206 50.7931 34.2948 50.7112 34.3597 50.6062C34.4246 50.5011 34.4578 50.3798 34.4594 50.2423C34.4578 50.1063 34.4254 49.9874 34.3621 49.8854C34.2987 49.7819 34.2106 49.7023 34.0978 49.6467C33.9851 49.5895 33.8553 49.5609 33.7085 49.5609C33.5586 49.5609 33.4265 49.5895 33.3122 49.6467C33.1994 49.7023 33.1113 49.7819 33.048 49.8854C32.9862 49.9874 32.956 50.1063 32.9576 50.2423C32.956 50.3798 32.9869 50.5011 33.0503 50.6062C33.1152 50.7097 33.204 50.7916 33.3168 50.8518C33.4311 50.9105 33.5617 50.9399 33.7085 50.9399Z" fill="white"/>
<path d="M10.7894 67.8135H9.79061V64.7283H10.821C11.1233 64.7283 11.3829 64.79 11.5999 64.9136C11.8168 65.0361 11.983 65.2123 12.0985 65.4423C12.215 65.6713 12.2733 65.946 12.2733 66.2663C12.2733 66.5877 12.2145 66.8639 12.097 67.0949C11.9805 67.3259 11.8118 67.5036 11.5908 67.6282C11.3699 67.7517 11.1027 67.8135 10.7894 67.8135ZM10.2561 67.4067H10.7638C10.9988 67.4067 11.1941 67.3625 11.3498 67.2742C11.5055 67.1848 11.622 67.0557 11.6993 66.887C11.7766 66.7173 11.8153 66.5104 11.8153 66.2663C11.8153 66.0243 11.7766 65.8189 11.6993 65.6502C11.623 65.4815 11.509 65.3534 11.3573 65.2661C11.2057 65.1787 11.0174 65.135 10.7924 65.135H10.2561V67.4067ZM13.4893 67.8647C13.3427 67.8647 13.2101 67.8376 13.0916 67.7833C12.9731 67.7281 12.8792 67.6483 12.8099 67.5438C12.7416 67.4394 12.7075 67.3113 12.7075 67.1597C12.7075 67.0291 12.7326 66.9217 12.7828 66.8373C12.833 66.7529 12.9008 66.6861 12.9862 66.6369C13.0715 66.5877 13.167 66.5506 13.2724 66.5255C13.3779 66.5003 13.4853 66.4813 13.5948 66.4682C13.7334 66.4521 13.8459 66.4391 13.9322 66.429C14.0186 66.418 14.0814 66.4004 14.1205 66.3763C14.1597 66.3522 14.1793 66.313 14.1793 66.2588V66.2483C14.1793 66.1167 14.1421 66.0148 14.0678 65.9425C13.9945 65.8701 13.885 65.834 13.7394 65.834C13.5878 65.834 13.4682 65.8676 13.3809 65.9349C13.2945 66.0012 13.2347 66.075 13.2016 66.1564L12.7783 66.06C12.8285 65.9194 12.9018 65.8059 12.9982 65.7195C13.0956 65.6321 13.2076 65.5689 13.3342 65.5297C13.4607 65.4895 13.5938 65.4694 13.7334 65.4694C13.8258 65.4694 13.9237 65.4805 14.0271 65.5026C14.1316 65.5237 14.229 65.5628 14.3194 65.6201C14.4108 65.6773 14.4856 65.7592 14.5439 65.8656C14.6021 65.9711 14.6312 66.1082 14.6312 66.2769V67.8135H14.1913V67.4971H14.1733C14.1441 67.5554 14.1005 67.6126 14.0422 67.6689C13.984 67.7251 13.9091 67.7718 13.8177 67.809C13.7264 67.8461 13.6169 67.8647 13.4893 67.8647ZM13.5873 67.5031C13.7118 67.5031 13.8182 67.4785 13.9066 67.4293C13.996 67.3801 14.0638 67.3158 14.11 67.2365C14.1572 67.1562 14.1808 67.0703 14.1808 66.9789V66.6806C14.1647 66.6967 14.1336 66.7118 14.0874 66.7258C14.0422 66.7389 13.9905 66.7504 13.9322 66.7605C13.874 66.7695 13.8172 66.778 13.762 66.7861C13.7068 66.7931 13.6606 66.7991 13.6234 66.8042C13.536 66.8152 13.4562 66.8338 13.3839 66.8599C13.3126 66.886 13.2553 66.9237 13.2121 66.9729C13.17 67.0211 13.1489 67.0854 13.1489 67.1657C13.1489 67.2772 13.1901 67.3615 13.2724 67.4188C13.3548 67.475 13.4597 67.5031 13.5873 67.5031ZM15.2312 67.8135V65.4996H15.6816V67.8135H15.2312ZM15.4586 65.1425C15.3803 65.1425 15.313 65.1164 15.2568 65.0642C15.2015 65.011 15.1739 64.9477 15.1739 64.8744C15.1739 64.8001 15.2015 64.7368 15.2568 64.6846C15.313 64.6313 15.3803 64.6047 15.4586 64.6047C15.537 64.6047 15.6038 64.6313 15.659 64.6846C15.7152 64.7368 15.7434 64.8001 15.7434 64.8744C15.7434 64.9477 15.7152 65.011 15.659 65.0642C15.6038 65.1164 15.537 65.1425 15.4586 65.1425ZM16.738 64.7283V67.8135H16.2876V64.7283H16.738ZM17.6287 68.6812C17.5614 68.6812 17.5001 68.6757 17.4449 68.6646C17.3897 68.6546 17.3485 68.6435 17.3214 68.6315L17.4298 68.2624C17.5122 68.2845 17.5855 68.294 17.6498 68.291C17.7141 68.288 17.7708 68.2639 17.82 68.2187C17.8702 68.1735 17.9144 68.0997 17.9526 67.9973L18.0083 67.8436L17.1617 65.4996H17.6438L18.2298 67.2953H18.2539L18.8399 65.4996H19.3235L18.3699 68.1223C18.3257 68.2428 18.2694 68.3448 18.2012 68.4281C18.1329 68.5125 18.0515 68.5757 17.9571 68.6179C17.8627 68.6601 17.7532 68.6812 17.6287 68.6812Z" fill="#626D7D"/>
<path d="M36.9503 66.0464V66.4953H35.5614V66.0464H36.9503ZM38.5121 68.1991V64.3426H38.7592V68.1991H38.5121ZM39.2247 65.5764C39.2106 65.4448 39.1514 65.3424 39.0469 65.2691C38.9435 65.1958 38.8089 65.1591 38.6432 65.1591C38.5267 65.1591 38.4268 65.1767 38.3434 65.2118C38.2601 65.247 38.1963 65.2947 38.1521 65.3549C38.1079 65.4152 38.0853 65.484 38.0843 65.5613C38.0843 65.6256 38.0989 65.6813 38.128 65.7285C38.1581 65.7757 38.1988 65.8159 38.25 65.8491C38.3012 65.8812 38.358 65.9083 38.4202 65.9304C38.4825 65.9525 38.5453 65.9711 38.6086 65.9861L38.8978 66.0585C39.0143 66.0856 39.1263 66.1222 39.2337 66.1684C39.3422 66.2146 39.4391 66.2729 39.5245 66.3432C39.6108 66.4135 39.6791 66.4983 39.7294 66.5978C39.7796 66.6972 39.8047 66.8137 39.8047 66.9473C39.8047 67.128 39.7585 67.2872 39.6661 67.4248C39.5737 67.5614 39.4401 67.6684 39.2654 67.7457C39.0916 67.822 38.8812 67.8602 38.6342 67.8602C38.3941 67.8602 38.1857 67.823 38.009 67.7487C37.8332 67.6744 37.6956 67.5659 37.5962 67.4233C37.4978 67.2807 37.4446 67.1069 37.4365 66.9021H37.9864C37.9944 67.0095 38.0276 67.0989 38.0858 67.1702C38.1441 67.2415 38.2199 67.2948 38.3133 67.3299C38.4077 67.3651 38.5131 67.3826 38.6296 67.3826C38.7512 67.3826 38.8576 67.3646 38.949 67.3284C39.0414 67.2912 39.1137 67.24 39.1659 67.1747C39.2182 67.1085 39.2448 67.0311 39.2458 66.9427C39.2448 66.8624 39.2212 66.7961 39.175 66.7439C39.1288 66.6907 39.064 66.6465 38.9806 66.6113C38.8983 66.5752 38.8019 66.543 38.6914 66.5149L38.3404 66.4245C38.0863 66.3592 37.8855 66.2603 37.7378 66.1278C37.5912 65.9942 37.5179 65.8169 37.5179 65.596C37.5179 65.4142 37.5671 65.255 37.6655 65.1184C37.7649 64.9818 37.9 64.8759 38.0707 64.8006C38.2415 64.7242 38.4348 64.6861 38.6507 64.6861C38.8697 64.6861 39.0615 64.7242 39.2262 64.8006C39.3919 64.8759 39.522 64.9808 39.6164 65.1154C39.7108 65.249 39.7595 65.4026 39.7625 65.5764H39.2247ZM41.5277 64.7283V67.8135H40.9688V65.2721H40.9507L40.2291 65.7331V65.2209L40.9959 64.7283H41.5277ZM43.4409 67.8557C43.2932 67.8547 43.1491 67.829 43.0085 67.7788C42.8679 67.7276 42.7414 67.6448 42.6289 67.5303C42.5164 67.4148 42.427 67.2616 42.3608 67.0708C42.2945 66.879 42.2618 66.6415 42.2628 66.3582C42.2628 66.0941 42.291 65.8586 42.3472 65.6517C42.4034 65.4448 42.4843 65.2701 42.5897 65.1275C42.6952 64.9839 42.8222 64.8744 42.9709 64.7991C43.1205 64.7237 43.2877 64.6861 43.4725 64.6861C43.6663 64.6861 43.8381 64.7242 43.9877 64.8006C44.1384 64.8769 44.2599 64.9813 44.3523 65.1139C44.4447 65.2455 44.5019 65.3941 44.524 65.5598H43.9742C43.946 65.4413 43.8883 65.3469 43.8009 65.2766C43.7146 65.2053 43.6051 65.1696 43.4725 65.1696C43.2586 65.1696 43.0939 65.2625 42.9784 65.4483C42.8639 65.6341 42.8062 65.8892 42.8052 66.2136H42.8262C42.8755 66.1252 42.9392 66.0494 43.0176 65.9861C43.0959 65.9229 43.1843 65.8742 43.2827 65.84C43.3821 65.8049 43.4871 65.7873 43.5976 65.7873C43.7783 65.7873 43.9405 65.8305 44.0841 65.9168C44.2288 66.0032 44.3432 66.1222 44.4276 66.2739C44.512 66.4245 44.5537 66.5973 44.5526 66.7921C44.5537 66.995 44.5075 67.1773 44.4141 67.3389C44.3207 67.4996 44.1906 67.6262 44.0239 67.7186C43.8572 67.811 43.6628 67.8567 43.4409 67.8557ZM43.4379 67.4037C43.5473 67.4037 43.6453 67.3771 43.7316 67.3239C43.818 67.2707 43.8863 67.1988 43.9365 67.1085C43.9867 67.0181 44.0113 66.9166 44.0103 66.8042C44.0113 66.6937 43.9872 66.5938 43.938 66.5044C43.8898 66.415 43.823 66.3442 43.7377 66.292C43.6523 66.2397 43.5549 66.2136 43.4454 66.2136C43.3641 66.2136 43.2882 66.2292 43.2179 66.2603C43.1476 66.2915 43.0864 66.3346 43.0341 66.3899C42.9819 66.4441 42.9407 66.5074 42.9106 66.5797C42.8815 66.651 42.8664 66.7273 42.8654 66.8087C42.8664 66.9161 42.8915 67.0151 42.9407 67.1054C42.99 67.1958 43.0577 67.2681 43.1441 67.3224C43.2305 67.3766 43.3284 67.4037 43.4379 67.4037ZM45.2712 67.8466C45.1798 67.8466 45.1015 67.8145 45.0362 67.7502C44.9709 67.6859 44.9388 67.6076 44.9398 67.5152C44.9388 67.4248 44.9709 67.3475 45.0362 67.2832C45.1015 67.2189 45.1798 67.1868 45.2712 67.1868C45.3596 67.1868 45.4364 67.2189 45.5017 67.2832C45.568 67.3475 45.6016 67.4248 45.6026 67.5152C45.6016 67.5765 45.5856 67.6322 45.5544 67.6824C45.5243 67.7326 45.4841 67.7728 45.4339 67.8029C45.3847 67.8321 45.3305 67.8466 45.2712 67.8466ZM46.1732 67.8135L47.4853 65.2163V65.1953H45.9623V64.7283H48.0638V65.2058L46.7532 67.8135H46.1732ZM49.5846 67.8557C49.3606 67.8557 49.1618 67.818 48.988 67.7427C48.8153 67.6674 48.6797 67.5644 48.5813 67.4338C48.4839 67.3023 48.4357 67.1531 48.4367 66.9864C48.4357 66.8569 48.4638 66.7379 48.521 66.6294C48.5783 66.5209 48.6556 66.4306 48.753 66.3582C48.8514 66.2849 48.9609 66.2382 49.0814 66.2181V66.1971C48.9227 66.1619 48.7942 66.0811 48.6958 65.9545C48.5984 65.827 48.5502 65.6798 48.5512 65.5131C48.5502 65.3544 48.5943 65.2128 48.6837 65.0883C48.7731 64.9638 48.8956 64.8658 49.0513 64.7945C49.207 64.7222 49.3847 64.6861 49.5846 64.6861C49.7824 64.6861 49.9587 64.7222 50.1133 64.7945C50.269 64.8658 50.3915 64.9638 50.4809 65.0883C50.5713 65.2128 50.6165 65.3544 50.6165 65.5131C50.6165 65.6798 50.5668 65.827 50.4674 65.9545C50.3689 66.0811 50.2419 66.1619 50.0862 66.1971V66.2181C50.2067 66.2382 50.3152 66.2849 50.4116 66.3582C50.509 66.4306 50.5864 66.5209 50.6436 66.6294C50.7019 66.7379 50.731 66.8569 50.731 66.9864C50.731 67.1531 50.6818 67.3023 50.5834 67.4338C50.4849 67.5644 50.3494 67.6674 50.1766 67.7427C50.0049 67.818 49.8075 67.8557 49.5846 67.8557ZM49.5846 67.4248C49.7001 67.4248 49.8005 67.4052 49.8859 67.3661C49.9712 67.3259 50.0375 67.2696 50.0847 67.1973C50.1319 67.125 50.156 67.0417 50.157 66.9473C50.156 66.8488 50.1304 66.762 50.0802 66.6866C50.031 66.6103 49.9632 66.5506 49.8768 66.5074C49.7915 66.4642 49.6941 66.4426 49.5846 66.4426C49.4741 66.4426 49.3757 66.4642 49.2893 66.5074C49.2029 66.5506 49.1347 66.6103 49.0844 66.6866C49.0352 66.762 49.0111 66.8488 49.0121 66.9473C49.0111 67.0417 49.0342 67.125 49.0814 67.1973C49.1286 67.2686 49.1949 67.3244 49.2803 67.3646C49.3666 67.4047 49.4681 67.4248 49.5846 67.4248ZM49.5846 66.0193C49.679 66.0193 49.7623 66.0002 49.8347 65.962C49.908 65.9239 49.9657 65.8707 50.0079 65.8024C50.0501 65.7341 50.0717 65.6552 50.0727 65.5658C50.0717 65.4775 50.0506 65.4001 50.0094 65.3339C49.9682 65.2666 49.911 65.2148 49.8377 65.1787C49.7644 65.1415 49.68 65.1229 49.5846 65.1229C49.4872 65.1229 49.4013 65.1415 49.327 65.1787C49.2537 65.2148 49.1964 65.2666 49.1552 65.3339C49.1151 65.4001 49.0955 65.4775 49.0965 65.5658C49.0955 65.6552 49.1156 65.7341 49.1567 65.8024C49.1989 65.8696 49.2567 65.9229 49.33 65.962C49.4043 66.0002 49.4892 66.0193 49.5846 66.0193Z" fill="#EB5757"/>
<rect x="66.7681" y="62.8135" width="20.3284" height="8" rx="4" fill="#219653" fill-opacity="0.2"/>
<path d="M70.4391 67.3954V65.6312H70.8394V67.3954H70.4391ZM69.7572 66.7134V66.3132H71.5214V66.7134H69.7572ZM73.1412 65.2029V67.8135H72.6683V65.6631H72.653L72.0424 66.0531V65.6197L72.6912 65.2029H73.1412ZM73.7568 67.3291V66.9531L74.8646 65.2029H75.1781V65.7383H74.9869L74.2412 66.9199V66.9403H75.7874V67.3291H73.7568ZM75.0022 67.8135V67.2144L75.0073 67.0461V65.2029H75.4535V67.8135H75.0022ZM76.4104 67.8415C76.3331 67.8415 76.2668 67.8143 76.2116 67.7599C76.1563 67.7056 76.1292 67.6393 76.13 67.5611C76.1292 67.4846 76.1563 67.4192 76.2116 67.3648C76.2668 67.3104 76.3331 67.2832 76.4104 67.2832C76.4852 67.2832 76.5502 67.3104 76.6055 67.3648C76.6615 67.4192 76.69 67.4846 76.6909 67.5611C76.69 67.6129 76.6764 67.6601 76.6501 67.7026C76.6246 67.7451 76.5906 67.7791 76.5481 67.8046C76.5065 67.8292 76.4606 67.8415 76.4104 67.8415ZM78.0165 67.8492C77.8916 67.8483 77.7697 67.8266 77.6507 67.7842C77.5317 67.7408 77.4247 67.6707 77.3295 67.5738C77.2343 67.4761 77.1587 67.3465 77.1026 67.1851C77.0465 67.0227 77.0189 66.8218 77.0197 66.5821C77.0197 66.3586 77.0435 66.1594 77.0911 65.9843C77.1387 65.8092 77.2071 65.6614 77.2963 65.5407C77.3856 65.4192 77.4931 65.3266 77.6188 65.2628C77.7455 65.1991 77.887 65.1672 78.0433 65.1672C78.2073 65.1672 78.3526 65.1995 78.4793 65.2641C78.6067 65.3287 78.7096 65.4171 78.7877 65.5292C78.8659 65.6406 78.9144 65.7663 78.9331 65.9065H78.4678C78.444 65.8063 78.3951 65.7264 78.3212 65.6669C78.2481 65.6066 78.1555 65.5764 78.0433 65.5764C77.8623 65.5764 77.7229 65.655 77.6252 65.8122C77.5283 65.9694 77.4795 66.1853 77.4786 66.4598H77.4965C77.5381 66.385 77.5921 66.3208 77.6584 66.2673C77.7246 66.2137 77.7994 66.1725 77.8827 66.1436C77.9668 66.1139 78.0556 66.099 78.1491 66.099C78.3021 66.099 78.4393 66.1356 78.5608 66.2086C78.6832 66.2817 78.7801 66.3824 78.8515 66.5107C78.9229 66.6382 78.9581 66.7844 78.9573 66.9492C78.9581 67.1209 78.919 67.2751 78.84 67.4119C78.761 67.5479 78.6509 67.655 78.5099 67.7332C78.3688 67.8114 78.2044 67.85 78.0165 67.8492ZM78.014 67.4668C78.1066 67.4668 78.1895 67.4442 78.2626 67.3992C78.3356 67.3542 78.3934 67.2934 78.4359 67.2169C78.4784 67.1404 78.4992 67.0546 78.4984 66.9594C78.4992 66.866 78.4788 66.7814 78.4372 66.7058C78.3964 66.6301 78.3399 66.5702 78.2677 66.526C78.1954 66.4818 78.113 66.4598 78.0204 66.4598C77.9515 66.4598 77.8874 66.4729 77.8279 66.4993C77.7684 66.5256 77.7166 66.5622 77.6724 66.6089C77.6282 66.6548 77.5933 66.7083 77.5679 66.7695C77.5432 66.8298 77.5305 66.8944 77.5296 66.9633C77.5305 67.0542 77.5517 67.1379 77.5933 67.2144C77.635 67.2909 77.6924 67.352 77.7654 67.3979C77.8385 67.4438 77.9214 67.4668 78.014 67.4668ZM79.4837 67.8135L80.594 65.6159V65.5981H79.3053V65.2029H81.0835V65.607L79.9745 67.8135H79.4837ZM82.8907 67.324V67.1863C82.8907 67.0852 82.9119 66.9921 82.9544 66.9072C82.9977 66.8222 83.0606 66.7538 83.143 66.7019C83.2255 66.6501 83.3253 66.6242 83.4426 66.6242C83.5633 66.6242 83.6644 66.6501 83.746 66.7019C83.8276 66.7529 83.8892 66.8209 83.9308 66.9059C83.9733 66.9909 83.9945 67.0844 83.9945 67.1863V67.324C83.9945 67.4251 83.9733 67.5182 83.9308 67.6032C83.8883 67.6881 83.8259 67.7565 83.7434 67.8084C83.6618 67.8602 83.5616 67.8861 83.4426 67.8861C83.3236 67.8861 83.2229 67.8602 83.1405 67.8084C83.0581 67.7565 82.9956 67.6881 82.9531 67.6032C82.9115 67.5182 82.8907 67.4251 82.8907 67.324ZM83.2233 67.1863V67.324C83.2233 67.3911 83.2395 67.4527 83.2718 67.5088C83.3041 67.5649 83.361 67.593 83.4426 67.593C83.525 67.593 83.5815 67.5653 83.6121 67.5101C83.6436 67.454 83.6593 67.392 83.6593 67.324V67.1863C83.6593 67.1183 83.6444 67.0563 83.6147 67.0002C83.5849 66.9433 83.5276 66.9148 83.4426 66.9148C83.3627 66.9148 83.3062 66.9433 83.2731 67.0002C83.2399 67.0563 83.2233 67.1183 83.2233 67.1863ZM81.5637 65.8301V65.6924C81.5637 65.5904 81.5854 65.4969 81.6287 65.412C81.672 65.327 81.7349 65.259 81.8174 65.208C81.8998 65.1562 81.9996 65.1302 82.1169 65.1302C82.2367 65.1302 82.3374 65.1562 82.419 65.208C82.5014 65.259 82.5635 65.327 82.6051 65.412C82.6468 65.4969 82.6676 65.5904 82.6676 65.6924V65.8301C82.6676 65.932 82.6463 66.0255 82.6038 66.1105C82.5622 66.1946 82.5002 66.2622 82.4177 66.3132C82.3353 66.3642 82.235 66.3896 82.1169 66.3896C81.9971 66.3896 81.896 66.3642 81.8135 66.3132C81.732 66.2622 81.6699 66.1942 81.6274 66.1092C81.5849 66.0242 81.5637 65.9312 81.5637 65.8301ZM81.8989 65.6924V65.8301C81.8989 65.898 81.9147 65.9601 81.9461 66.0162C81.9784 66.0714 82.0353 66.099 82.1169 66.099C82.1985 66.099 82.2546 66.0714 82.2852 66.0162C82.3166 65.9601 82.3323 65.898 82.3323 65.8301V65.6924C82.3323 65.6244 82.3175 65.5624 82.2877 65.5063C82.258 65.4493 82.201 65.4209 82.1169 65.4209C82.0362 65.4209 81.9797 65.4493 81.9474 65.5063C81.9151 65.5632 81.8989 65.6253 81.8989 65.6924ZM81.709 67.8135L83.5038 65.2029H83.8225L82.0277 67.8135H81.709Z" fill="#219653"/>
</svg>
