<svg width="39" height="39" viewBox="0 0 39 39" fill="none" xmlns="http://www.w3.org/2000/svg">
<rect x="0.538086" y="0.435547" width="37.9494" height="37.9494" rx="8.69951" fill="#EDEDED"/>
<path d="M29.0381 18.9355V14.4355C29.0381 14.1703 28.9327 13.916 28.7452 13.7284C28.5577 13.5409 28.3033 13.4355 28.0381 13.4355H19.5381L17.0381 10.4355H11.0381C10.7729 10.4355 10.5185 10.5409 10.331 10.7284C10.1434 10.916 10.0381 11.1703 10.0381 11.4355V27.4355C10.0381 27.7008 10.1434 27.9551 10.331 28.1427C10.5185 28.3302 10.7729 28.4355 11.0381 28.4355H18.5381M23.5381 23.9355L21.0381 26.4355L23.5381 28.9355" stroke="#440495" stroke-width="2" stroke-linecap="round" stroke-linejoin="round"/>
<path d="M21.0381 26.4355H29.0381V22.4355" stroke="#440495" stroke-width="2" stroke-linecap="round" stroke-linejoin="round"/>
</svg>
