<svg width="38" height="39" viewBox="0 0 38 39" fill="none" xmlns="http://www.w3.org/2000/svg">
<rect y="0.632812" width="37.9494" height="37.9494" rx="8.69951" fill="#EDEDED"/>
<path d="M23.2759 15.6793V20.0224C23.2759 22.6199 21.7917 23.733 19.5653 23.733H12.1525C11.773 23.733 11.4104 23.6993 11.0731 23.6234C10.8622 23.5897 10.6598 23.5306 10.4743 23.4632C9.20932 22.9909 8.44189 21.8946 8.44189 20.0224V15.6793C8.44189 13.0819 9.92613 11.9688 12.1525 11.9688H19.5653C21.4544 11.9688 22.8121 12.7699 23.1747 14.5999C23.2338 14.9372 23.2759 15.283 23.2759 15.6793Z" stroke="#440495" stroke-width="1.26498" stroke-miterlimit="10" stroke-linecap="round" stroke-linejoin="round"/>
<path d="M25.8071 18.209V22.5521C25.8071 25.1495 24.3228 26.2627 22.0965 26.2627H14.6836C14.0596 26.2627 13.4946 26.1784 13.0054 25.9928C12.0019 25.6218 11.3188 24.8543 11.0742 23.6231C11.4115 23.699 11.7742 23.7327 12.1537 23.7327H19.5665C21.7929 23.7327 23.2771 22.6195 23.2771 20.0221V15.679C23.2771 15.2827 23.2434 14.9285 23.1759 14.5996C24.7782 14.9369 25.8071 16.067 25.8071 18.209Z" stroke="#440495" stroke-width="1.26498" stroke-miterlimit="10" stroke-linecap="round" stroke-linejoin="round"/>
<path d="M15.8533 20.0817C17.0829 20.0817 18.0797 19.0849 18.0797 17.8553C18.0797 16.6257 17.0829 15.6289 15.8533 15.6289C14.6237 15.6289 13.627 16.6257 13.627 17.8553C13.627 19.0849 14.6237 20.0817 15.8533 20.0817Z" stroke="#440495" stroke-width="1.26498" stroke-miterlimit="10" stroke-linecap="round" stroke-linejoin="round"/>
<path d="M11.0312 16V19.7107" stroke="#440495" stroke-width="1.26498" stroke-miterlimit="10" stroke-linecap="round" stroke-linejoin="round"/>
<path d="M20.6802 16V19.7106" stroke="#440495" stroke-width="1.26498" stroke-miterlimit="10" stroke-linecap="round" stroke-linejoin="round"/>
</svg>
