<svg width="370" height="154" viewBox="0 0 370 154" fill="none" xmlns="http://www.w3.org/2000/svg">
<path d="M0.730469 4.37211C0.730469 1.99737 2.65558 0.0722656 5.03032 0.0722656H12.9134C15.2881 0.0722656 17.2132 1.99737 17.2132 4.37211V153.434H0.730469V4.37211Z" fill="#D0F6F9"/>
<path d="M37.2788 4.37211C37.2788 1.99737 39.2039 0.0722656 41.5787 0.0722656H49.4617C51.8365 0.0722656 53.7616 1.99737 53.7616 4.37211V153.434H37.2788V4.37211Z" fill="#D0F6F9"/>
<path d="M72.3945 4.37211C72.3945 1.99737 74.3196 0.0722656 76.6944 0.0722656H84.5774C86.9522 0.0722656 88.8773 1.99737 88.8773 4.37211V153.434H72.3945V4.37211Z" fill="#D0F6F9"/>
<path d="M107.51 4.37211C107.51 1.99737 109.435 0.0722656 111.81 0.0722656H119.693C122.067 0.0722656 123.993 1.99737 123.993 4.37211V153.434H107.51V4.37211Z" fill="#D0F6F9"/>
<path d="M142.625 4.37211C142.625 1.99737 144.55 0.0722656 146.925 0.0722656H154.808C157.183 0.0722656 159.108 1.99737 159.108 4.37211V153.434H142.625V4.37211Z" fill="#D0F6F9"/>
<path d="M177.74 4.37211C177.74 1.99737 179.665 0.0722656 182.04 0.0722656H189.923C192.298 0.0722656 194.223 1.99737 194.223 4.37211V153.434H177.74V4.37211Z" fill="#D0F6F9"/>
<path d="M212.856 4.37211C212.856 1.99737 214.781 0.0722656 217.156 0.0722656H225.039C227.414 0.0722656 229.339 1.99737 229.339 4.37211V153.434H212.856V4.37211Z" fill="#D0F6F9"/>
<path d="M247.972 4.37211C247.972 1.99737 249.897 0.0722656 252.272 0.0722656H260.155C262.529 0.0722656 264.454 1.99737 264.454 4.37211V153.434H247.972V4.37211Z" fill="#D0F6F9"/>
<path d="M283.087 4.37211C283.087 1.99737 285.012 0.0722656 287.387 0.0722656H295.27C297.645 0.0722656 299.57 1.99737 299.57 4.37211V153.434H283.087V4.37211Z" fill="#D0F6F9"/>
<path d="M318.202 4.37211C318.202 1.99737 320.127 0.0722656 322.502 0.0722656H330.385C332.76 0.0722656 334.685 1.99737 334.685 4.37211V153.434H318.202V4.37211Z" fill="#D0F6F9"/>
<path d="M353.317 4.37211C353.317 1.99737 355.242 0.0722656 357.617 0.0722656H365.5C367.875 0.0722656 369.8 1.99737 369.8 4.37211V153.434H353.317V4.37211Z" fill="#D0F6F9"/>
<path d="M0.72998 119.751C0.72998 117.376 2.65509 115.451 5.02983 115.451H12.9129C15.2876 115.451 17.2127 117.376 17.2127 119.751V153.433H0.72998V119.751Z" fill="#53DCE8"/>
<path d="M37.2788 108.284C37.2788 105.909 39.2039 103.984 41.5787 103.984H49.4617C51.8365 103.984 53.7616 105.909 53.7616 108.284V153.433H37.2788V108.284Z" fill="#53DCE8"/>
<path d="M72.3945 98.9678C72.3945 96.5931 74.3196 94.668 76.6944 94.668H84.5774C86.9522 94.668 88.8773 96.5931 88.8773 98.9678V153.433H72.3945V98.9678Z" fill="#53DCE8"/>
<path d="M107.51 91.085C107.51 88.7103 109.435 86.7852 111.81 86.7852H119.693C122.067 86.7852 123.993 88.7103 123.993 91.085V153.433H107.51V91.085Z" fill="#53DCE8"/>
<path d="M142.625 83.2022C142.625 80.8275 144.55 78.9023 146.925 78.9023H154.808C157.183 78.9023 159.108 80.8275 159.108 83.2022V153.433H142.625V83.2022Z" fill="#53DCE8"/>
<path d="M177.74 76.753C177.74 74.3782 179.665 72.4531 182.04 72.4531H189.923C192.298 72.4531 194.223 74.3782 194.223 76.753V153.434H177.74V76.753Z" fill="#53DCE8"/>
<path d="M212.856 60.9873C212.856 58.6126 214.781 56.6875 217.156 56.6875H225.039C227.414 56.6875 229.339 58.6126 229.339 60.9873V153.434H212.856V60.9873Z" fill="#53DCE8"/>
<path d="M247.972 45.2198C247.972 42.845 249.897 40.9199 252.272 40.9199H260.155C262.529 40.9199 264.454 42.845 264.454 45.2198V153.433H247.972V45.2198Z" fill="#53DCE8"/>
<path d="M283.087 28.7373C283.087 26.3626 285.012 24.4375 287.387 24.4375H295.27C297.645 24.4375 299.57 26.3626 299.57 28.7373V153.433H283.087V28.7373Z" fill="#53DCE8"/>
<path d="M318.202 18.7042C318.202 16.3294 320.127 14.4043 322.502 14.4043H330.385C332.76 14.4043 334.685 16.3294 334.685 18.7041V153.433H318.202V18.7042Z" fill="#53DCE8"/>
<path d="M353.317 11.5381C353.317 9.16339 355.242 7.23828 357.617 7.23828H365.5C367.875 7.23828 369.8 9.16339 369.8 11.5381V153.433H353.317V11.5381Z" fill="#53DCE8"/>
</svg>
