<svg width="39" height="38" viewBox="0 0 39 38" fill="none" xmlns="http://www.w3.org/2000/svg">
<rect x="0.327637" width="37.9494" height="37.9494" rx="8.69951" fill="#EDEDED"/>
<path d="M15.2287 28.0417C13.2216 28.0417 11.5771 26.5827 11.5771 24.7865V23.0661C11.5771 22.7203 11.8639 22.4336 12.2096 22.4336C12.5554 22.4336 12.8421 22.7203 12.8421 23.0661C12.8421 24.1202 13.8625 24.913 15.2287 24.913C16.5949 24.913 17.6153 24.1202 17.6153 23.0661C17.6153 22.7203 17.902 22.4336 18.2478 22.4336C18.5935 22.4336 18.8803 22.7203 18.8803 23.0661V24.7865C18.8803 26.5827 17.2442 28.0417 15.2287 28.0417ZM13.0613 25.6129C13.4324 26.3044 14.2673 26.7767 15.2287 26.7767C16.1901 26.7767 17.025 26.296 17.396 25.6129C16.7973 25.9755 16.0551 26.1864 15.2287 26.1864C14.4022 26.1864 13.6601 25.9755 13.0613 25.6129Z" fill="#5C03A1"/>
<path d="M15.2292 23.8659C13.8461 23.8659 12.6065 23.2334 11.9909 22.2299C11.721 21.7913 11.5776 21.2769 11.5776 20.7541C11.5776 19.8686 11.9656 19.0421 12.6739 18.4265C14.0401 17.229 16.393 17.229 17.7676 18.4181C18.476 19.0422 18.8723 19.8686 18.8723 20.7541C18.8723 21.2769 18.729 21.7913 18.4591 22.2299C17.8519 23.2334 16.6122 23.8659 15.2292 23.8659ZM15.2292 18.7639C14.5714 18.7639 13.9642 18.9831 13.5088 19.3794C13.0787 19.7505 12.8426 20.2396 12.8426 20.7541C12.8426 21.0492 12.9185 21.3192 13.0703 21.5722C13.4582 22.2131 14.2847 22.6094 15.2292 22.6094C16.1737 22.6094 17.0001 22.2131 17.3796 21.5806C17.5314 21.336 17.6073 21.0577 17.6073 20.7626C17.6073 20.2481 17.3712 19.7589 16.9411 19.3794C16.4942 18.9831 15.887 18.7639 15.2292 18.7639Z" fill="#5C03A1"/>
<path d="M15.2287 26.1862C13.1457 26.1862 11.5771 24.8453 11.5771 23.0743V20.7552C11.5771 18.9589 13.2132 17.5 15.2287 17.5C16.1816 17.5 17.0924 17.8289 17.7755 18.4192C18.4839 19.0433 18.8803 19.8697 18.8803 20.7552V23.0743C18.8803 24.8453 17.3117 26.1862 15.2287 26.1862ZM15.2287 18.765C13.9131 18.765 12.8421 19.6589 12.8421 20.7552V23.0743C12.8421 24.1285 13.8625 24.9212 15.2287 24.9212C16.5949 24.9212 17.6153 24.1285 17.6153 23.0743V20.7552C17.6153 20.2408 17.3792 19.7517 16.9491 19.3722C16.4937 18.9842 15.8865 18.765 15.2287 18.765Z" fill="#5C03A1"/>
<path d="M25.2392 21.3359C23.9658 21.3359 22.8863 20.3914 22.7851 19.177C22.7177 18.477 22.9707 17.7939 23.4767 17.2964C23.8983 16.8578 24.4971 16.6133 25.1296 16.6133H26.8921C27.727 16.6386 28.3679 17.2964 28.3679 18.106V19.8432C28.3679 20.6528 27.727 21.3106 26.9174 21.3359H25.2392ZM26.8668 17.8783H25.138C24.8428 17.8783 24.573 17.9879 24.379 18.1903C24.1345 18.4264 24.0164 18.7469 24.0501 19.0673C24.0923 19.6239 24.632 20.0709 25.2392 20.0709H26.8921C27.0017 20.0709 27.1029 19.9697 27.1029 19.8432V18.106C27.1029 17.9795 27.0017 17.8867 26.8668 17.8783Z" fill="#5C03A1"/>
<path d="M22.6759 26.7752H20.5676C20.2218 26.7752 19.9351 26.4885 19.9351 26.1428C19.9351 25.797 20.2218 25.5103 20.5676 25.5103H22.6759C24.8517 25.5103 26.26 24.1019 26.26 21.9262V21.3358H25.2396C23.9662 21.3358 22.8867 20.3913 22.7855 19.1769C22.7181 18.477 22.9711 17.7939 23.4771 17.2963C23.8988 16.8578 24.4975 16.6133 25.13 16.6133H26.2516V16.0229C26.2516 14.0495 25.0963 12.6918 23.2241 12.4725C23.0217 12.4388 22.8446 12.4388 22.6675 12.4388H15.0776C14.8752 12.4388 14.6812 12.4557 14.4873 12.481C12.632 12.7171 11.4935 14.0664 11.4935 16.0229V17.7096C11.4935 18.0553 11.2068 18.342 10.861 18.342C10.5152 18.342 10.2285 18.0553 10.2285 17.7096V16.0229C10.2285 13.4255 11.8309 11.5449 14.3187 11.2329C14.5463 11.1991 14.8077 11.1738 15.0776 11.1738H22.6675C22.8699 11.1738 23.1313 11.1823 23.4011 11.2244C25.8889 11.5112 27.5165 13.4002 27.5165 16.0229V17.2457C27.5165 17.5915 27.2298 17.8782 26.8841 17.8782H25.13C24.8348 17.8782 24.565 17.9879 24.371 18.1902C24.1265 18.4264 24.0083 18.7468 24.0421 19.0673C24.0842 19.6239 24.624 20.0709 25.2312 20.0709H26.8925C27.2383 20.0709 27.525 20.3576 27.525 20.7033V21.9262C27.525 24.8272 25.5769 26.7752 22.6759 26.7752Z" fill="#5C03A1"/>
</svg>
