<svg width="24" height="24" viewBox="0 0 24 24" fill="none" xmlns="http://www.w3.org/2000/svg">
<path opacity="0.4" d="M11.7031 22C17.2261 22 21.7031 17.523 21.7031 12C21.7031 6.477 17.2261 2 11.7031 2C6.18013 2 1.70312 6.477 1.70312 12C1.70312 17.523 6.18013 22 11.7031 22Z" fill="#FF1843"/>
<path d="M12.0347 17.0014C11.8547 17.0614 11.5447 17.0614 11.3647 17.0014C9.80469 16.4714 6.30469 14.2414 6.30469 10.4614C6.30469 8.79141 7.64469 7.44141 9.30469 7.44141C10.2847 7.44141 11.1547 7.91141 11.7047 8.65141C12.2447 7.92141 13.1247 7.44141 14.1047 7.44141C15.7647 7.44141 17.1047 8.79141 17.1047 10.4614C17.1047 14.2414 13.6047 16.4714 12.0347 17.0014Z" fill="#FF1843"/>
</svg>
