<svg width="55" height="55" viewBox="0 0 55 55" fill="none" xmlns="http://www.w3.org/2000/svg">
<path opacity="0.4" d="M38.0847 19.6328H16.6776C9.54185 19.6328 5.08203 24.0926 5.08203 31.2283V37.0038C5.08203 44.1618 9.54185 48.6217 16.6776 48.6217H38.0624C45.1981 48.6217 49.6579 44.1618 49.6579 37.0261V31.2283C49.6802 24.0926 45.2204 19.6328 38.0847 19.6328Z" fill="#878C90"/>
<path d="M36.043 14.2135L28.5728 6.74327C28.2581 6.43224 27.8334 6.25781 27.391 6.25781C26.9485 6.25781 26.5238 6.43224 26.2091 6.74327L18.7389 14.2135C18.0922 14.8601 18.0922 15.9305 18.7389 16.5772C19.3856 17.2238 20.4559 17.2238 21.1026 16.5772L25.7185 11.9613V35.799C25.7185 36.7133 26.4767 37.4714 27.391 37.4714C28.3052 37.4714 29.0634 36.7133 29.0634 35.799V11.9613L33.6793 16.5772C34.0138 16.9117 34.4375 17.0678 34.8612 17.0678C35.2849 17.0678 35.7085 16.9117 36.043 16.5772C36.712 15.9305 36.712 14.8824 36.043 14.2135Z" fill="#878C90"/>
</svg>
