<svg width="285" height="133" viewBox="0 0 285 133" fill="none" xmlns="http://www.w3.org/2000/svg">
<rect x="0.821289" y="96.4238" width="4.42743" height="31.7488" fill="#5CFF9C"/>
<rect x="2.71875" y="91.8066" width="0.63249" height="40.9848" fill="#5CFF9C"/>
<rect x="9.04346" y="93.3125" width="4.42743" height="14.3093" fill="#5CFF9C"/>
<rect x="10.9409" y="91.2305" width="0.63249" height="18.472" fill="#5CFF9C"/>
<rect x="17.2661" y="96.4238" width="4.42743" height="2.309" fill="#F00090"/>
<rect x="19.1636" y="91.8066" width="0.63249" height="24.2445" fill="#F00090"/>
<rect x="25.4883" y="94.8398" width="4.42743" height="8.94332" fill="#F00090"/>
<rect x="27.3857" y="93.5391" width="0.63249" height="11.545" fill="#F00090"/>
<rect x="33.7109" y="97.9297" width="4.42743" height="14.3093" fill="#F00090"/>
<rect x="35.6084" y="95.8477" width="0.63249" height="26.5535" fill="#F00090"/>
<rect x="41.9331" y="108.549" width="4.42743" height="4.61801" fill="#5CFF9C"/>
<rect x="43.8306" y="101.621" width="0.63249" height="16.163" fill="#5CFF9C"/>
<rect x="50.1553" y="81.9922" width="4.42743" height="31.7488" fill="#5CFF9C"/>
<rect x="52.0527" y="77.375" width="0.63249" height="40.9848" fill="#5CFF9C"/>
<rect x="58.3779" y="77.2715" width="4.42743" height="11.1791" fill="#5CFF9C"/>
<rect x="60.2754" y="75.6445" width="0.63249" height="14.4313" fill="#5CFF9C"/>
<rect x="66.6006" y="77.6602" width="4.42743" height="13.8621" fill="#F00090"/>
<rect x="68.498" y="75.6445" width="0.63249" height="17.8948" fill="#F00090"/>
<rect x="74.8223" y="81.7656" width="4.42743" height="14.3093" fill="#F00090"/>
<rect x="76.7197" y="73.9121" width="0.63249" height="24.2445" fill="#F00090"/>
<rect x="83.0449" y="86.0918" width="4.42743" height="28.1715" fill="#F00090"/>
<rect x="84.9424" y="81.9941" width="0.63249" height="36.3668" fill="#F00090"/>
<rect x="91.2676" y="104.662" width="4.42743" height="12.9678" fill="#5CFF9C"/>
<rect x="93.165" y="102.775" width="0.63249" height="16.7403" fill="#5CFF9C"/>
<rect x="99.4897" y="102.027" width="4.42743" height="10.732" fill="#5CFF9C"/>
<rect x="101.387" y="100.467" width="0.63249" height="13.854" fill="#5CFF9C"/>
<rect x="107.712" y="105.084" width="4.42743" height="10.9678" fill="#F00090"/>
<rect x="109.609" y="100.467" width="0.63249" height="17.8948" fill="#F00090"/>
<rect x="115.935" y="92.3828" width="4.42743" height="21.3583" fill="#5CFF9C"/>
<rect x="117.832" y="77.375" width="0.63249" height="40.9848" fill="#5CFF9C"/>
<rect x="124.157" y="64.0977" width="4.42743" height="31.7488" fill="#5CFF9C"/>
<rect x="126.054" y="59.4805" width="0.63249" height="36.944" fill="#5CFF9C"/>
<rect x="132.379" y="17.9941" width="4.42743" height="48.1381" fill="#5CFF9C"/>
<rect x="134.277" y="10.9922" width="0.63249" height="56.5706" fill="#5CFF9C"/>
<rect x="140.602" y="17.918" width="4.42743" height="31.7488" fill="#F00090"/>
<rect x="142.499" y="13.3008" width="0.63249" height="40.9848" fill="#F00090"/>
<rect x="148.824" y="36.6113" width="4.42743" height="13.415" fill="#5CFF9C"/>
<rect x="150.722" y="34.6602" width="0.63249" height="17.3175" fill="#5CFF9C"/>
<rect x="157.046" y="29.1875" width="4.42743" height="21.9111" fill="#5CFF9C"/>
<rect x="158.944" y="26" width="0.63249" height="28.2853" fill="#5CFF9C"/>
<rect x="165.269" y="34.082" width="4.42743" height="31.7488" fill="#F00090"/>
<rect x="167.166" y="29.4648" width="0.63249" height="40.9848" fill="#F00090"/>
<rect x="173.491" y="49.7656" width="4.42743" height="16.5451" fill="#5CFF9C"/>
<rect x="175.389" y="47.3594" width="0.63249" height="21.3583" fill="#5CFF9C"/>
<rect x="181.713" y="42.2109" width="4.42743" height="24.147" fill="#5CFF9C"/>
<rect x="183.611" y="38.6992" width="0.63249" height="31.1715" fill="#5CFF9C"/>
<rect x="189.936" y="10.9902" width="4.42743" height="31.7488" fill="#5CFF9C"/>
<rect x="191.833" y="6.37305" width="0.63249" height="40.9848" fill="#5CFF9C"/>
<rect x="198.158" y="10.4395" width="4.42743" height="12.0735" fill="#F00090"/>
<rect x="200.056" y="8.68359" width="0.63249" height="15.5858" fill="#F00090"/>
<rect x="206.381" y="22.5371" width="4.42743" height="31.7488" fill="#F00090"/>
<rect x="208.278" y="17.9199" width="0.63249" height="40.9848" fill="#F00090"/>
<rect x="214.603" y="43.6582" width="4.42743" height="10.2848" fill="#5CFF9C"/>
<rect x="216.5" y="27.1543" width="0.63249" height="28.2853" fill="#5CFF9C"/>
<rect x="222.825" y="23.1133" width="4.42743" height="31.7488" fill="#5CFF9C"/>
<rect x="224.723" y="18.4961" width="0.63249" height="40.9848" fill="#5CFF9C"/>
<rect x="231.048" y="10.0566" width="4.42743" height="13.415" fill="#5CFF9C"/>
<rect x="232.945" y="8.10547" width="0.63249" height="17.3175" fill="#5CFF9C"/>
<rect x="239.27" y="9.5293" width="4.42743" height="5.81316" fill="#F00090"/>
<rect x="241.167" y="8.68359" width="0.63249" height="7.50426" fill="#F00090"/>
<rect x="247.492" y="9.25977" width="4.42743" height="31.7488" fill="#F00090"/>
<rect x="249.39" y="4.64258" width="0.63249" height="87.1648" fill="#F00090"/>
<rect x="255.715" y="26.9277" width="4.42743" height="14.3093" fill="#5CFF9C"/>
<rect x="257.612" y="24.8457" width="0.63249" height="18.472" fill="#5CFF9C"/>
<rect x="263.937" y="16.7637" width="4.42743" height="10.3905" fill="#5CFF9C"/>
<rect x="265.834" y="13.3008" width="0.63249" height="31.7488" fill="#5CFF9C"/>
<rect x="272.16" y="9.83789" width="4.42743" height="6.92701" fill="#5CFF9C"/>
<rect x="274.057" y="0.601562" width="0.63249" height="17.8948" fill="#5CFF9C"/>
<rect x="280.382" y="9.83594" width="4.42743" height="2.88625" fill="#F00090"/>
<rect x="282.279" y="5.21875" width="0.63249" height="15.0085" fill="#F00090"/>
</svg>
