<svg width="407" height="180" viewBox="0 0 407 180" fill="none" xmlns="http://www.w3.org/2000/svg">
<line x1="3.19149" y1="0.328125" x2="3.19148" y2="179.405" stroke="white" stroke-opacity="0.1" stroke-width="0.663249"/>
<line x1="42.9864" y1="0.328125" x2="42.9864" y2="179.405" stroke="white" stroke-opacity="0.1" stroke-width="0.663249"/>
<line x1="82.7813" y1="0.328125" x2="82.7813" y2="179.405" stroke="white" stroke-opacity="0.1" stroke-width="0.663249"/>
<line x1="122.576" y1="0.328125" x2="122.576" y2="179.405" stroke="white" stroke-opacity="0.1" stroke-width="0.663249"/>
<line x1="162.371" y1="0.328125" x2="162.371" y2="179.405" stroke="white" stroke-opacity="0.1" stroke-width="0.663249"/>
<line x1="202.166" y1="0.328125" x2="202.166" y2="179.405" stroke="white" stroke-opacity="0.1" stroke-width="0.663249"/>
<line x1="241.962" y1="0.328125" x2="241.962" y2="179.405" stroke="white" stroke-opacity="0.1" stroke-width="0.663249"/>
<line x1="281.756" y1="0.328125" x2="281.756" y2="179.405" stroke="white" stroke-opacity="0.1" stroke-width="0.663249"/>
<line x1="321.551" y1="0.328125" x2="321.551" y2="179.405" stroke="white" stroke-opacity="0.1" stroke-width="0.663249"/>
<line x1="361.346" y1="0.328125" x2="361.346" y2="179.405" stroke="white" stroke-opacity="0.1" stroke-width="0.663249"/>
<line x1="401.141" y1="0.328125" x2="401.141" y2="179.405" stroke="white" stroke-opacity="0.1" stroke-width="0.663249"/>
<line x1="406.779" y1="176.421" x2="0.207001" y2="176.421" stroke="white" stroke-opacity="0.1" stroke-width="0.663249"/>
<line x1="406.779" y1="148.566" x2="0.207001" y2="148.566" stroke="white" stroke-opacity="0.1" stroke-width="0.663249"/>
<line x1="406.779" y1="120.709" x2="0.207001" y2="120.709" stroke="white" stroke-opacity="0.1" stroke-width="0.663249"/>
<line x1="406.779" y1="92.8531" x2="0.207001" y2="92.8531" stroke="white" stroke-opacity="0.1" stroke-width="0.663249"/>
<line x1="406.779" y1="64.9957" x2="0.207001" y2="64.9957" stroke="white" stroke-opacity="0.1" stroke-width="0.663249"/>
<line x1="406.779" y1="37.1402" x2="0.207001" y2="37.1402" stroke="white" stroke-opacity="0.1" stroke-width="0.663249"/>
<line x1="406.779" y1="9.2828" x2="0.207001" y2="9.2828" stroke="white" stroke-opacity="0.1" stroke-width="0.663249"/>
</svg>
