<svg width="271" height="66" viewBox="0 0 271 66" fill="none" xmlns="http://www.w3.org/2000/svg">
<rect width="271" height="66" rx="20" fill="#FFD9E0"/>
<path d="M12.132 29H13.212L14.1 26.732H17.76L18.648 29H19.764L16.572 20.6H15.336L12.132 29ZM14.412 25.784L15.924 21.74L17.448 25.784H14.412ZM26.1089 20.6H25.1249V23.816C24.9209 23.504 24.6449 23.264 24.2969 23.084C23.9369 22.904 23.5169 22.808 23.0249 22.808C22.4609 22.808 21.9569 22.94 21.5129 23.204C21.0569 23.468 20.7089 23.84 20.4569 24.308C20.2049 24.788 20.0849 25.328 20.0849 25.94C20.0849 26.588 20.2049 27.152 20.4569 27.62C20.7089 28.1 21.0569 28.46 21.5009 28.7C21.9449 28.952 22.4489 29.072 23.0249 29.072C23.9129 29.072 24.6089 28.724 25.1249 28.016L25.2569 29H26.1089V20.6ZM24.1649 27.92C23.8529 28.112 23.5049 28.196 23.1209 28.196C22.5089 28.196 22.0169 27.992 21.6449 27.572C21.2729 27.152 21.0929 26.612 21.0929 25.94C21.0929 25.28 21.2729 24.74 21.6449 24.32C22.0169 23.9 22.5089 23.684 23.1209 23.684C23.5049 23.684 23.8529 23.78 24.1649 23.972C24.4769 24.164 24.7169 24.44 24.8849 24.788C25.0529 25.136 25.1369 25.532 25.1369 25.964C25.1369 26.396 25.0529 26.792 24.8849 27.128C24.7169 27.464 24.4769 27.728 24.1649 27.92ZM33.2573 20.6H32.2733V23.816C32.0693 23.504 31.7933 23.264 31.4453 23.084C31.0853 22.904 30.6653 22.808 30.1733 22.808C29.6093 22.808 29.1053 22.94 28.6613 23.204C28.2053 23.468 27.8573 23.84 27.6053 24.308C27.3533 24.788 27.2333 25.328 27.2333 25.94C27.2333 26.588 27.3533 27.152 27.6053 27.62C27.8573 28.1 28.2053 28.46 28.6493 28.7C29.0933 28.952 29.5973 29.072 30.1733 29.072C31.0613 29.072 31.7573 28.724 32.2733 28.016L32.4053 29H33.2573V20.6ZM31.3133 27.92C31.0013 28.112 30.6533 28.196 30.2693 28.196C29.6573 28.196 29.1653 27.992 28.7933 27.572C28.4213 27.152 28.2413 26.612 28.2413 25.94C28.2413 25.28 28.4213 24.74 28.7933 24.32C29.1653 23.9 29.6573 23.684 30.2693 23.684C30.6533 23.684 31.0013 23.78 31.3133 23.972C31.6253 24.164 31.8653 24.44 32.0333 24.788C32.2013 25.136 32.2853 25.532 32.2853 25.964C32.2853 26.396 32.2013 26.792 32.0333 27.128C31.8653 27.464 31.6253 27.728 31.3133 27.92ZM34.7418 24.296C34.5018 24.776 34.3818 25.316 34.3818 25.94C34.3818 26.564 34.5018 27.104 34.7538 27.584C35.0058 28.064 35.3658 28.424 35.8218 28.688C36.2778 28.952 36.8058 29.072 37.4178 29.072C38.1138 29.072 38.7018 28.88 39.1818 28.484C39.6618 28.088 39.9618 27.572 40.0818 26.948H39.0858C38.9778 27.344 38.7738 27.656 38.4618 27.872C38.1498 28.088 37.7778 28.196 37.3458 28.196C36.7698 28.196 36.3138 28.016 35.9658 27.656C35.6058 27.296 35.4258 26.816 35.4138 26.216V26.132H40.1658C40.1778 25.94 40.1898 25.808 40.1898 25.712C40.1658 25.124 40.0338 24.608 39.7938 24.164C39.5418 23.732 39.2058 23.396 38.7738 23.156C38.3418 22.928 37.8378 22.808 37.2858 22.808C36.7098 22.808 36.2058 22.94 35.7738 23.204C35.3298 23.468 34.9818 23.828 34.7418 24.296ZM39.1698 25.316H35.4738C35.5218 24.836 35.7138 24.44 36.0738 24.128C36.4218 23.828 36.8298 23.672 37.2978 23.672C37.8138 23.672 38.2458 23.816 38.5818 24.104C38.9178 24.392 39.1218 24.8 39.1698 25.316ZM47.1206 20.6H46.1366V23.816C45.9326 23.504 45.6566 23.264 45.3086 23.084C44.9486 22.904 44.5286 22.808 44.0366 22.808C43.4726 22.808 42.9686 22.94 42.5246 23.204C42.0686 23.468 41.7206 23.84 41.4686 24.308C41.2166 24.788 41.0966 25.328 41.0966 25.94C41.0966 26.588 41.2166 27.152 41.4686 27.62C41.7206 28.1 42.0686 28.46 42.5126 28.7C42.9566 28.952 43.4606 29.072 44.0366 29.072C44.9246 29.072 45.6206 28.724 46.1366 28.016L46.2686 29H47.1206V20.6ZM45.1766 27.92C44.8646 28.112 44.5166 28.196 44.1326 28.196C43.5206 28.196 43.0286 27.992 42.6566 27.572C42.2846 27.152 42.1046 26.612 42.1046 25.94C42.1046 25.28 42.2846 24.74 42.6566 24.32C43.0286 23.9 43.5206 23.684 44.1326 23.684C44.5166 23.684 44.8646 23.78 45.1766 23.972C45.4886 24.164 45.7286 24.44 45.8966 24.788C46.0646 25.136 46.1486 25.532 46.1486 25.964C46.1486 26.396 46.0646 26.792 45.8966 27.128C45.7286 27.464 45.4886 27.728 45.1766 27.92ZM52.4657 26.252H51.4337C51.4577 26.804 51.6017 27.296 51.8657 27.728C52.1297 28.16 52.5137 28.484 53.0057 28.724C53.4857 28.964 54.0617 29.072 54.7217 29.072C55.2977 29.072 55.8137 28.976 56.2697 28.76C56.7257 28.556 57.0737 28.268 57.3257 27.884C57.5777 27.512 57.7097 27.08 57.7097 26.6C57.7097 25.868 57.4577 25.34 56.9537 25.004C56.4497 24.668 55.7777 24.428 54.9377 24.284C54.4097 24.2 53.9897 24.116 53.6897 24.02C53.3777 23.924 53.1377 23.792 52.9457 23.612C52.7537 23.432 52.6577 23.18 52.6577 22.856C52.6577 22.424 52.8137 22.076 53.1497 21.836C53.4737 21.596 53.9177 21.464 54.4817 21.464C55.0337 21.464 55.5017 21.62 55.8857 21.908C56.2577 22.208 56.4737 22.604 56.5457 23.084H57.5777C57.5417 22.58 57.3977 22.136 57.1337 21.752C56.8697 21.368 56.5097 21.056 56.0537 20.84C55.5977 20.624 55.0697 20.516 54.4817 20.516C53.9177 20.516 53.4137 20.624 52.9817 20.816C52.5497 21.02 52.2137 21.308 51.9737 21.668C51.7337 22.028 51.6137 22.448 51.6137 22.916C51.6137 23.66 51.8537 24.188 52.3577 24.512C52.8497 24.848 53.5217 25.076 54.3617 25.22C54.8897 25.316 55.2977 25.4 55.6097 25.496C55.9217 25.592 56.1737 25.724 56.3657 25.916C56.5577 26.108 56.6657 26.372 56.6657 26.696C56.6657 27.152 56.4857 27.5 56.1257 27.752C55.7657 28.004 55.3097 28.124 54.7337 28.124C54.0857 28.124 53.5577 27.956 53.1497 27.62C52.7297 27.284 52.5017 26.828 52.4657 26.252ZM62.2628 20.6H59.0348V29H60.0788V25.772H62.2628C62.8148 25.772 63.2948 25.676 63.7148 25.46C64.1348 25.244 64.4588 24.944 64.6988 24.548C64.9268 24.164 65.0468 23.708 65.0468 23.18C65.0468 22.664 64.9268 22.208 64.6988 21.824C64.4708 21.44 64.1468 21.14 63.7268 20.924C63.2948 20.708 62.8148 20.6 62.2628 20.6ZM60.0788 24.812V21.56H62.1788C62.7308 21.56 63.1628 21.716 63.4868 22.004C63.8108 22.292 63.9788 22.688 63.9788 23.18C63.9788 23.684 63.8108 24.08 63.4868 24.368C63.1508 24.668 62.7188 24.812 62.1668 24.812H60.0788ZM66.1598 20.6V29H68.6438C69.5078 29 70.2518 28.832 70.8878 28.484C71.5238 28.136 72.0158 27.644 72.3518 27.008C72.6878 26.372 72.8678 25.64 72.8678 24.8C72.8678 23.96 72.6878 23.228 72.3518 22.592C72.0158 21.968 71.5238 21.476 70.8878 21.128C70.2518 20.78 69.5078 20.6 68.6438 20.6H66.1598ZM68.6438 28.04H67.2038V21.56H68.6438C69.6518 21.56 70.4198 21.86 70.9718 22.436C71.5238 23.012 71.7998 23.804 71.7998 24.8C71.7998 25.796 71.5238 26.588 70.9718 27.164C70.4198 27.752 69.6398 28.04 68.6438 28.04ZM77.4031 20.6H74.1871V29H75.2311V25.772H77.3791L79.1191 29H80.2951L78.4111 25.568C78.9511 25.424 79.3831 25.136 79.7071 24.704C80.0311 24.272 80.1991 23.768 80.1991 23.18C80.1991 22.664 80.0791 22.208 79.8511 21.824C79.6111 21.44 79.2871 21.14 78.8671 20.924C78.4351 20.708 77.9551 20.6 77.4031 20.6ZM75.2311 24.812V21.56H77.3311C77.8711 21.56 78.3031 21.716 78.6391 22.004C78.9631 22.304 79.1311 22.7 79.1311 23.18C79.1311 23.684 78.9631 24.08 78.6391 24.368C78.3031 24.668 77.8711 24.812 77.3191 24.812H75.2311ZM84.6637 20.6V29H87.1477C88.0117 29 88.7557 28.832 89.3917 28.484C90.0277 28.136 90.5197 27.644 90.8557 27.008C91.1917 26.372 91.3717 25.64 91.3717 24.8C91.3717 23.96 91.1917 23.228 90.8557 22.592C90.5197 21.968 90.0277 21.476 89.3917 21.128C88.7557 20.78 88.0117 20.6 87.1477 20.6H84.6637ZM87.1477 28.04H85.7077V21.56H87.1477C88.1557 21.56 88.9237 21.86 89.4757 22.436C90.0277 23.012 90.3037 23.804 90.3037 24.8C90.3037 25.796 90.0277 26.588 89.4757 27.164C88.9237 27.752 88.1437 28.04 87.1477 28.04ZM93.783 28.676C94.239 28.94 94.767 29.072 95.367 29.072C95.955 29.072 96.483 28.94 96.939 28.676C97.395 28.412 97.755 28.052 98.019 27.572C98.271 27.104 98.403 26.564 98.403 25.94C98.403 25.328 98.271 24.788 98.019 24.308C97.755 23.84 97.395 23.468 96.939 23.204C96.483 22.94 95.955 22.808 95.367 22.808C94.767 22.808 94.239 22.94 93.783 23.204C93.327 23.468 92.967 23.84 92.715 24.308C92.451 24.788 92.331 25.328 92.331 25.94C92.331 26.564 92.451 27.104 92.715 27.572C92.967 28.052 93.327 28.412 93.783 28.676ZM96.423 27.908C96.111 28.1 95.763 28.196 95.367 28.196C94.959 28.196 94.611 28.1 94.299 27.908C93.987 27.716 93.759 27.452 93.591 27.104C93.423 26.768 93.339 26.372 93.339 25.94C93.339 25.508 93.423 25.124 93.591 24.776C93.759 24.44 93.987 24.164 94.299 23.972C94.611 23.78 94.959 23.684 95.367 23.684C95.763 23.684 96.111 23.78 96.423 23.972C96.735 24.164 96.975 24.44 97.143 24.776C97.311 25.124 97.395 25.508 97.395 25.94C97.395 26.372 97.311 26.768 97.143 27.104C96.975 27.452 96.735 27.716 96.423 27.908ZM98.7796 22.88L100.76 29.012L101.84 29L103.376 24.452L104.852 29H105.932L107.972 22.88H106.976L105.38 27.86L103.856 22.88H102.944L101.336 27.86L99.8116 22.88H98.7796ZM114.595 20.6H113.551V26.936C113.551 27.32 113.467 27.596 113.299 27.764C113.131 27.932 112.855 28.016 112.483 28.016H111.523V29H112.615C113.263 29 113.755 28.832 114.091 28.496C114.427 28.16 114.595 27.668 114.595 27.02V20.6ZM117.314 28.676C117.77 28.94 118.298 29.072 118.898 29.072C119.486 29.072 120.014 28.94 120.47 28.676C120.926 28.412 121.286 28.052 121.55 27.572C121.802 27.104 121.934 26.564 121.934 25.94C121.934 25.328 121.802 24.788 121.55 24.308C121.286 23.84 120.926 23.468 120.47 23.204C120.014 22.94 119.486 22.808 118.898 22.808C118.298 22.808 117.77 22.94 117.314 23.204C116.858 23.468 116.498 23.84 116.246 24.308C115.982 24.788 115.862 25.328 115.862 25.94C115.862 26.564 115.982 27.104 116.246 27.572C116.498 28.052 116.858 28.412 117.314 28.676ZM119.954 27.908C119.642 28.1 119.294 28.196 118.898 28.196C118.49 28.196 118.142 28.1 117.83 27.908C117.518 27.716 117.29 27.452 117.122 27.104C116.954 26.768 116.87 26.372 116.87 25.94C116.87 25.508 116.954 25.124 117.122 24.776C117.29 24.44 117.518 24.164 117.83 23.972C118.142 23.78 118.49 23.684 118.898 23.684C119.294 23.684 119.642 23.78 119.954 23.972C120.266 24.164 120.506 24.44 120.674 24.776C120.842 25.124 120.926 25.508 120.926 25.94C120.926 26.372 120.842 26.768 120.674 27.104C120.506 27.452 120.266 27.716 119.954 27.908ZM127.851 23.48C127.395 23.036 126.807 22.808 126.063 22.808C125.175 22.808 124.503 23.108 124.047 23.708L123.915 22.88H123.063V29H124.047V25.94C124.047 25.256 124.203 24.716 124.539 24.308C124.863 23.912 125.319 23.708 125.895 23.708C126.423 23.708 126.831 23.876 127.119 24.212C127.407 24.548 127.551 25.028 127.551 25.652V29H128.535V25.592C128.535 24.632 128.307 23.936 127.851 23.48ZM129.933 24.296C129.693 24.776 129.573 25.316 129.573 25.94C129.573 26.564 129.693 27.104 129.945 27.584C130.197 28.064 130.557 28.424 131.013 28.688C131.469 28.952 131.997 29.072 132.609 29.072C133.305 29.072 133.893 28.88 134.373 28.484C134.853 28.088 135.153 27.572 135.273 26.948H134.277C134.169 27.344 133.965 27.656 133.653 27.872C133.341 28.088 132.969 28.196 132.537 28.196C131.961 28.196 131.505 28.016 131.157 27.656C130.797 27.296 130.617 26.816 130.605 26.216V26.132H135.357C135.369 25.94 135.381 25.808 135.381 25.712C135.357 25.124 135.225 24.608 134.985 24.164C134.733 23.732 134.397 23.396 133.965 23.156C133.533 22.928 133.029 22.808 132.477 22.808C131.901 22.808 131.397 22.94 130.965 23.204C130.521 23.468 130.173 23.828 129.933 24.296ZM134.361 25.316H130.665C130.713 24.836 130.905 24.44 131.265 24.128C131.613 23.828 132.021 23.672 132.489 23.672C133.005 23.672 133.437 23.816 133.773 24.104C134.109 24.392 134.313 24.8 134.361 25.316ZM137.249 26.984H136.265C136.265 27.644 136.517 28.16 136.997 28.52C137.477 28.892 138.125 29.072 138.929 29.072C139.373 29.072 139.781 29 140.153 28.844C140.513 28.7 140.813 28.484 141.029 28.196C141.245 27.92 141.353 27.596 141.353 27.224C141.353 26.804 141.245 26.468 141.029 26.216C140.813 25.976 140.537 25.796 140.189 25.676C139.841 25.568 139.397 25.484 138.869 25.412C138.485 25.364 138.197 25.328 138.005 25.28C137.813 25.244 137.669 25.172 137.549 25.052C137.429 24.944 137.369 24.788 137.369 24.572C137.369 24.296 137.489 24.068 137.753 23.9C138.005 23.732 138.341 23.636 138.761 23.636C139.169 23.636 139.505 23.744 139.781 23.948C140.045 24.164 140.201 24.428 140.249 24.74H141.233C141.185 24.116 140.933 23.636 140.477 23.3C140.021 22.964 139.445 22.796 138.725 22.796C138.281 22.796 137.885 22.88 137.537 23.036C137.177 23.192 136.901 23.408 136.697 23.684C136.493 23.972 136.397 24.284 136.397 24.644C136.397 25.052 136.493 25.364 136.709 25.592C136.913 25.82 137.189 25.988 137.525 26.084C137.861 26.192 138.293 26.276 138.821 26.336C139.193 26.384 139.481 26.432 139.685 26.48C139.889 26.528 140.057 26.624 140.189 26.744C140.309 26.876 140.381 27.056 140.381 27.296C140.381 27.584 140.237 27.812 139.973 27.98C139.709 28.148 139.361 28.232 138.929 28.232C138.437 28.232 138.041 28.124 137.729 27.884C137.417 27.656 137.261 27.356 137.249 26.984ZM145.07 29H146.15L147.038 26.732H150.698L151.586 29H152.702L149.51 20.6H148.274L145.07 29ZM147.35 25.784L148.862 21.74L150.386 25.784H147.35ZM152.333 22.88L154.625 29H155.813L158.105 22.88H157.073L155.237 27.884L153.389 22.88H152.333ZM158.75 24.296C158.51 24.776 158.39 25.316 158.39 25.94C158.39 26.564 158.51 27.104 158.762 27.584C159.014 28.064 159.374 28.424 159.83 28.688C160.286 28.952 160.814 29.072 161.426 29.072C162.122 29.072 162.71 28.88 163.19 28.484C163.67 28.088 163.97 27.572 164.09 26.948H163.094C162.986 27.344 162.782 27.656 162.47 27.872C162.158 28.088 161.786 28.196 161.354 28.196C160.778 28.196 160.322 28.016 159.974 27.656C159.614 27.296 159.434 26.816 159.422 26.216V26.132H164.174C164.186 25.94 164.198 25.808 164.198 25.712C164.174 25.124 164.042 24.608 163.802 24.164C163.55 23.732 163.214 23.396 162.782 23.156C162.35 22.928 161.846 22.808 161.294 22.808C160.718 22.808 160.214 22.94 159.782 23.204C159.338 23.468 158.99 23.828 158.75 24.296ZM163.178 25.316H159.482C159.53 24.836 159.722 24.44 160.082 24.128C160.43 23.828 160.838 23.672 161.306 23.672C161.822 23.672 162.254 23.816 162.59 24.104C162.926 24.392 163.13 24.8 163.178 25.316ZM168.428 22.88H168.152C167.648 22.88 167.264 22.964 166.988 23.132C166.7 23.3 166.472 23.528 166.304 23.804L166.172 22.88H165.32V29H166.304V25.88C166.304 25.304 166.424 24.824 166.676 24.428C166.928 24.044 167.348 23.84 167.936 23.84H168.428V22.88ZM174.759 28.1H174.459C174.183 28.1 174.051 27.956 174.051 27.656V25.016C174.051 24.308 173.835 23.768 173.403 23.384C172.971 23 172.371 22.808 171.591 22.808C170.847 22.808 170.247 22.976 169.791 23.312C169.335 23.648 169.071 24.116 168.999 24.716H169.983C170.043 24.404 170.211 24.164 170.487 23.972C170.763 23.78 171.111 23.684 171.543 23.684C172.023 23.684 172.395 23.804 172.659 24.02C172.923 24.248 173.067 24.56 173.067 24.956V25.376H171.267C170.463 25.376 169.851 25.544 169.431 25.868C169.011 26.204 168.807 26.672 168.807 27.284C168.807 27.836 169.011 28.28 169.419 28.592C169.827 28.916 170.379 29.072 171.063 29.072C171.951 29.072 172.635 28.736 173.115 28.052C173.115 28.364 173.211 28.604 173.379 28.76C173.547 28.928 173.823 29 174.219 29H174.759V28.1ZM173.067 26.204V26.504C173.067 27.032 172.887 27.452 172.551 27.764C172.203 28.076 171.735 28.232 171.135 28.232C170.727 28.232 170.403 28.148 170.163 27.956C169.923 27.776 169.803 27.536 169.803 27.224C169.803 26.552 170.259 26.204 171.171 26.204H173.067ZM181.324 22.88H180.472L180.34 23.936C180.136 23.576 179.86 23.3 179.512 23.108C179.152 22.916 178.732 22.808 178.24 22.808C177.676 22.808 177.172 22.94 176.728 23.204C176.272 23.468 175.924 23.84 175.672 24.308C175.42 24.788 175.3 25.328 175.3 25.94C175.3 26.588 175.42 27.152 175.672 27.62C175.924 28.1 176.272 28.46 176.716 28.7C177.16 28.952 177.664 29.072 178.24 29.072C179.2 29.072 179.896 28.7 180.34 27.944V28.664C180.34 29.96 179.68 30.596 178.36 30.596C177.844 30.596 177.424 30.5 177.1 30.284C176.764 30.08 176.56 29.78 176.488 29.396H175.48C175.552 30.068 175.84 30.572 176.344 30.932C176.848 31.292 177.496 31.472 178.288 31.472C180.304 31.472 181.324 30.548 181.324 28.7V22.88ZM179.38 27.92C179.068 28.112 178.72 28.196 178.336 28.196C177.724 28.196 177.232 27.992 176.86 27.572C176.488 27.152 176.308 26.612 176.308 25.94C176.308 25.28 176.488 24.74 176.86 24.32C177.232 23.9 177.724 23.684 178.336 23.684C178.72 23.684 179.068 23.78 179.38 23.972C179.692 24.164 179.932 24.44 180.1 24.788C180.268 25.136 180.352 25.532 180.352 25.964C180.352 26.396 180.268 26.792 180.1 27.128C179.932 27.464 179.692 27.728 179.38 27.92ZM182.808 24.296C182.568 24.776 182.448 25.316 182.448 25.94C182.448 26.564 182.568 27.104 182.82 27.584C183.072 28.064 183.432 28.424 183.888 28.688C184.344 28.952 184.872 29.072 185.484 29.072C186.18 29.072 186.768 28.88 187.248 28.484C187.728 28.088 188.028 27.572 188.148 26.948H187.152C187.044 27.344 186.84 27.656 186.528 27.872C186.216 28.088 185.844 28.196 185.412 28.196C184.836 28.196 184.38 28.016 184.032 27.656C183.672 27.296 183.492 26.816 183.48 26.216V26.132H188.232C188.244 25.94 188.256 25.808 188.256 25.712C188.232 25.124 188.1 24.608 187.86 24.164C187.608 23.732 187.272 23.396 186.84 23.156C186.408 22.928 185.904 22.808 185.352 22.808C184.776 22.808 184.272 22.94 183.84 23.204C183.396 23.468 183.048 23.828 182.808 24.296ZM187.236 25.316H183.54C183.588 24.836 183.78 24.44 184.14 24.128C184.488 23.828 184.896 23.672 185.364 23.672C185.88 23.672 186.312 23.816 186.648 24.104C186.984 24.392 187.188 24.8 187.236 25.316ZM12.3 38.6V39.56H15.024V47H16.068V39.56H18.792V38.6H12.3ZM22.2605 40.88H21.9845C21.4805 40.88 21.0965 40.964 20.8205 41.132C20.5325 41.3 20.3045 41.528 20.1365 41.804L20.0045 40.88H19.1525V47H20.1365V43.88C20.1365 43.304 20.2565 42.824 20.5085 42.428C20.7605 42.044 21.1805 41.84 21.7685 41.84H22.2605V40.88ZM28.4283 40.88H27.4443V43.94C27.4443 44.636 27.2763 45.176 26.9643 45.572C26.6523 45.98 26.2083 46.172 25.6563 46.172C25.1403 46.172 24.7443 46.016 24.4683 45.68C24.1923 45.344 24.0603 44.864 24.0603 44.228V40.88H23.0763V44.288C23.0763 45.248 23.2923 45.956 23.7363 46.4C24.1683 46.856 24.7563 47.072 25.4883 47.072C26.3283 47.072 26.9763 46.784 27.4443 46.184L27.5763 47H28.4283V40.88ZM30.5377 44.984H29.5537C29.5537 45.644 29.8057 46.16 30.2857 46.52C30.7657 46.892 31.4137 47.072 32.2177 47.072C32.6617 47.072 33.0697 47 33.4417 46.844C33.8017 46.7 34.1017 46.484 34.3177 46.196C34.5337 45.92 34.6417 45.596 34.6417 45.224C34.6417 44.804 34.5337 44.468 34.3177 44.216C34.1017 43.976 33.8257 43.796 33.4777 43.676C33.1297 43.568 32.6857 43.484 32.1577 43.412C31.7737 43.364 31.4857 43.328 31.2937 43.28C31.1017 43.244 30.9577 43.172 30.8377 43.052C30.7177 42.944 30.6577 42.788 30.6577 42.572C30.6577 42.296 30.7777 42.068 31.0417 41.9C31.2937 41.732 31.6297 41.636 32.0497 41.636C32.4577 41.636 32.7937 41.744 33.0697 41.948C33.3337 42.164 33.4897 42.428 33.5377 42.74H34.5217C34.4737 42.116 34.2217 41.636 33.7657 41.3C33.3097 40.964 32.7337 40.796 32.0137 40.796C31.5697 40.796 31.1737 40.88 30.8257 41.036C30.4657 41.192 30.1897 41.408 29.9857 41.684C29.7817 41.972 29.6857 42.284 29.6857 42.644C29.6857 43.052 29.7817 43.364 29.9977 43.592C30.2017 43.82 30.4777 43.988 30.8137 44.084C31.1497 44.192 31.5817 44.276 32.1097 44.336C32.4817 44.384 32.7697 44.432 32.9737 44.48C33.1777 44.528 33.3457 44.624 33.4777 44.744C33.5977 44.876 33.6697 45.056 33.6697 45.296C33.6697 45.584 33.5257 45.812 33.2617 45.98C32.9977 46.148 32.6497 46.232 32.2177 46.232C31.7257 46.232 31.3297 46.124 31.0177 45.884C30.7057 45.656 30.5497 45.356 30.5377 44.984ZM36.1659 41.78V45.404C36.1659 45.956 36.2859 46.364 36.5259 46.616C36.7659 46.88 37.1859 47 37.7619 47H38.8899V46.1H37.8219C37.5699 46.1 37.3899 46.052 37.2939 45.944C37.1979 45.836 37.1499 45.656 37.1499 45.392V41.78H38.6979V40.88H37.1499V39.164H36.1659V40.88H35.0619V41.78H36.1659ZM43.1386 41.78V45.404C43.1386 45.956 43.2586 46.364 43.4986 46.616C43.7386 46.88 44.1586 47 44.7346 47H45.8626V46.1H44.7946C44.5426 46.1 44.3626 46.052 44.2666 45.944C44.1706 45.836 44.1226 45.656 44.1226 45.392V41.78H45.6706V40.88H44.1226V39.164H43.1386V40.88H42.0346V41.78H43.1386ZM47.6463 46.676C48.1023 46.94 48.6303 47.072 49.2303 47.072C49.8183 47.072 50.3463 46.94 50.8023 46.676C51.2583 46.412 51.6183 46.052 51.8823 45.572C52.1343 45.104 52.2663 44.564 52.2663 43.94C52.2663 43.328 52.1343 42.788 51.8823 42.308C51.6183 41.84 51.2583 41.468 50.8023 41.204C50.3463 40.94 49.8183 40.808 49.2303 40.808C48.6303 40.808 48.1023 40.94 47.6463 41.204C47.1903 41.468 46.8303 41.84 46.5783 42.308C46.3143 42.788 46.1943 43.328 46.1943 43.94C46.1943 44.564 46.3143 45.104 46.5783 45.572C46.8303 46.052 47.1903 46.412 47.6463 46.676ZM50.2863 45.908C49.9743 46.1 49.6263 46.196 49.2303 46.196C48.8223 46.196 48.4743 46.1 48.1623 45.908C47.8503 45.716 47.6223 45.452 47.4543 45.104C47.2863 44.768 47.2023 44.372 47.2023 43.94C47.2023 43.508 47.2863 43.124 47.4543 42.776C47.6223 42.44 47.8503 42.164 48.1623 41.972C48.4743 41.78 48.8223 41.684 49.2303 41.684C49.6263 41.684 49.9743 41.78 50.2863 41.972C50.5983 42.164 50.8383 42.44 51.0063 42.776C51.1743 43.124 51.2583 43.508 51.2583 43.94C51.2583 44.372 51.1743 44.768 51.0063 45.104C50.8383 45.452 50.5983 45.716 50.2863 45.908ZM56.1993 38.6L58.6473 47H59.8953L61.8033 40.34L63.7233 47H64.9713L67.4313 38.6H66.3513L64.3713 45.656L62.3793 38.6H61.3233L59.2593 45.656L57.2913 38.6H56.1993ZM73.5444 46.1H73.2444C72.9684 46.1 72.8364 45.956 72.8364 45.656V43.016C72.8364 42.308 72.6204 41.768 72.1884 41.384C71.7564 41 71.1564 40.808 70.3764 40.808C69.6324 40.808 69.0324 40.976 68.5764 41.312C68.1204 41.648 67.8564 42.116 67.7844 42.716H68.7684C68.8284 42.404 68.9964 42.164 69.2724 41.972C69.5484 41.78 69.8964 41.684 70.3284 41.684C70.8084 41.684 71.1804 41.804 71.4444 42.02C71.7084 42.248 71.8524 42.56 71.8524 42.956V43.376H70.0524C69.2484 43.376 68.6364 43.544 68.2164 43.868C67.7964 44.204 67.5924 44.672 67.5924 45.284C67.5924 45.836 67.7964 46.28 68.2044 46.592C68.6124 46.916 69.1644 47.072 69.8484 47.072C70.7364 47.072 71.4204 46.736 71.9004 46.052C71.9004 46.364 71.9964 46.604 72.1644 46.76C72.3324 46.928 72.6084 47 73.0044 47H73.5444V46.1ZM71.8524 44.204V44.504C71.8524 45.032 71.6724 45.452 71.3364 45.764C70.9884 46.076 70.5204 46.232 69.9204 46.232C69.5124 46.232 69.1884 46.148 68.9484 45.956C68.7084 45.776 68.5884 45.536 68.5884 45.224C68.5884 44.552 69.0444 44.204 69.9564 44.204H71.8524ZM74.7089 41.78V45.404C74.7089 45.956 74.8289 46.364 75.0689 46.616C75.3089 46.88 75.7289 47 76.3049 47H77.4329V46.1H76.3649C76.1129 46.1 75.9329 46.052 75.8369 45.944C75.7409 45.836 75.6929 45.656 75.6929 45.392V41.78H77.2409V40.88H75.6929V39.164H74.7089V40.88H73.6049V41.78H74.7089ZM82.5406 46.496C83.0086 46.112 83.3086 45.572 83.4406 44.888H82.4566C82.3606 45.296 82.1686 45.62 81.8686 45.848C81.5566 46.088 81.1846 46.196 80.7406 46.196C80.1526 46.196 79.6726 45.992 79.3126 45.572C78.9526 45.152 78.7726 44.6 78.7726 43.928C78.7726 43.268 78.9526 42.728 79.3126 42.308C79.6726 41.9 80.1526 41.684 80.7406 41.684C81.1726 41.684 81.5326 41.804 81.8446 42.032C82.1446 42.272 82.3486 42.584 82.4446 42.968H83.4406C83.3206 42.296 83.0206 41.768 82.5526 41.384C82.0846 41 81.4966 40.808 80.7766 40.808C80.1766 40.808 79.6606 40.94 79.2046 41.204C78.7486 41.468 78.3886 41.828 78.1366 42.296C77.8846 42.776 77.7646 43.316 77.7646 43.928C77.7646 44.552 77.8846 45.092 78.1366 45.572C78.3766 46.052 78.7246 46.412 79.1806 46.676C79.6246 46.94 80.1406 47.072 80.7406 47.072C81.4606 47.072 82.0606 46.88 82.5406 46.496ZM89.3783 41.48C88.9223 41.036 88.3223 40.808 87.5783 40.808C87.0983 40.808 86.6903 40.916 86.3543 41.108C86.0183 41.312 85.7543 41.576 85.5623 41.888V38.6H84.5783V47H85.5623V43.94C85.5623 43.256 85.7183 42.716 86.0543 42.308C86.3903 41.912 86.8343 41.708 87.4103 41.708C87.9383 41.708 88.3583 41.876 88.6463 42.212C88.9343 42.548 89.0783 43.028 89.0783 43.652V47H90.0623V43.592C90.0623 42.632 89.8343 41.936 89.3783 41.48ZM91.3165 38.6V47H92.3005V38.6H91.3165ZM94.5966 38.696C94.4766 38.576 94.3206 38.516 94.1406 38.516C93.9486 38.516 93.8046 38.576 93.6846 38.696C93.5646 38.816 93.5046 38.972 93.5046 39.152C93.5046 39.344 93.5646 39.488 93.6846 39.608C93.8046 39.728 93.9486 39.788 94.1406 39.788C94.3206 39.788 94.4766 39.728 94.5966 39.608C94.7166 39.488 94.7766 39.344 94.7766 39.152C94.7766 38.972 94.7166 38.816 94.5966 38.696ZM93.6486 40.88V47H94.6326V40.88H93.6486ZM96.7486 44.984H95.7646C95.7646 45.644 96.0166 46.16 96.4966 46.52C96.9766 46.892 97.6246 47.072 98.4286 47.072C98.8726 47.072 99.2806 47 99.6526 46.844C100.013 46.7 100.313 46.484 100.529 46.196C100.745 45.92 100.853 45.596 100.853 45.224C100.853 44.804 100.745 44.468 100.529 44.216C100.313 43.976 100.037 43.796 99.6886 43.676C99.3406 43.568 98.8966 43.484 98.3686 43.412C97.9846 43.364 97.6966 43.328 97.5046 43.28C97.3126 43.244 97.1686 43.172 97.0486 43.052C96.9286 42.944 96.8686 42.788 96.8686 42.572C96.8686 42.296 96.9886 42.068 97.2526 41.9C97.5046 41.732 97.8406 41.636 98.2606 41.636C98.6686 41.636 99.0046 41.744 99.2806 41.948C99.5446 42.164 99.7006 42.428 99.7486 42.74H100.733C100.685 42.116 100.433 41.636 99.9766 41.3C99.5206 40.964 98.9446 40.796 98.2246 40.796C97.7806 40.796 97.3846 40.88 97.0366 41.036C96.6766 41.192 96.4006 41.408 96.1966 41.684C95.9926 41.972 95.8966 42.284 95.8966 42.644C95.8966 43.052 95.9926 43.364 96.2086 43.592C96.4126 43.82 96.6886 43.988 97.0246 44.084C97.3606 44.192 97.7926 44.276 98.3206 44.336C98.6926 44.384 98.9806 44.432 99.1846 44.48C99.3886 44.528 99.5566 44.624 99.6886 44.744C99.8086 44.876 99.8806 45.056 99.8806 45.296C99.8806 45.584 99.7366 45.812 99.4726 45.98C99.2086 46.148 98.8606 46.232 98.4286 46.232C97.9366 46.232 97.5406 46.124 97.2286 45.884C96.9166 45.656 96.7606 45.356 96.7486 44.984ZM102.377 41.78V45.404C102.377 45.956 102.497 46.364 102.737 46.616C102.977 46.88 103.397 47 103.973 47H105.101V46.1H104.033C103.781 46.1 103.601 46.052 103.505 45.944C103.409 45.836 103.361 45.656 103.361 45.392V41.78H104.909V40.88H103.361V39.164H102.377V40.88H101.273V41.78H102.377Z" fill="#FF1843"/>
<path d="M253 43H233C232.59 43 232.25 42.66 232.25 42.25C232.25 41.84 232.59 41.5 233 41.5H253C253.41 41.5 253.75 41.84 253.75 42.25C253.75 42.66 253.41 43 253 43Z" fill="#FF1843"/>
<path d="M240.75 25V43H245.25V25C245.25 23.9 244.8 23 243.45 23H242.55C241.2 23 240.75 23.9 240.75 25Z" fill="#FF1843"/>
<path opacity="0.4" d="M234 31V43H238V31C238 29.9 237.6 29 236.4 29H235.6C234.4 29 234 29.9 234 31Z" fill="#FF1843"/>
<path opacity="0.4" d="M248 36V43H252V36C252 34.9 251.6 34 250.4 34H249.6C248.4 34 248 34.9 248 36Z" fill="#FF1843"/>
</svg>
