<svg width="10" height="9" viewBox="0 0 10 9" fill="none" xmlns="http://www.w3.org/2000/svg">
<g clip-path="url(#clip0_2292_11136)">
<path fill-rule="evenodd" clip-rule="evenodd" d="M8.34609 4.61543C8.34609 5.04161 8.26214 5.46361 8.09905 5.85735C7.93596 6.25109 7.69691 6.60885 7.39556 6.9102C7.0942 7.21156 6.73644 7.45061 6.3427 7.6137C5.94896 7.77679 5.52696 7.86073 5.10078 7.86073C4.6746 7.86073 4.25259 7.77679 3.85885 7.6137C3.46511 7.45061 3.10735 7.21156 2.806 6.9102C2.50464 6.60885 2.2656 6.25109 2.1025 5.85735C1.93941 5.46361 1.85547 5.04161 1.85547 4.61543C1.85547 3.75472 2.19738 2.92926 2.806 2.32065C3.41461 1.71203 4.24007 1.37012 5.10078 1.37012C5.96149 1.37012 6.78694 1.71203 7.39556 2.32065C8.00417 2.92926 8.34609 3.75472 8.34609 4.61543ZM4.65004 5.06616V6.77896H5.55151V5.06616H7.26432V4.16469H5.55151V2.45189H4.65004V4.16469H2.93724V5.06616H4.65004Z" fill="#470496"/>
</g>
<defs>
<clipPath id="clip0_2292_11136">
<rect width="8.65416" height="8.65416" fill="white" transform="translate(0.773438 0.288086)"/>
</clipPath>
</defs>
</svg>
