<svg width="54" height="55" viewBox="0 0 54 55" fill="none" xmlns="http://www.w3.org/2000/svg">
<path opacity="0.4" d="M27.0257 5.25391C21.1833 5.25391 16.4336 10.0036 16.4336 15.846C16.4336 21.5769 20.9157 26.2151 26.7581 26.4158C26.9365 26.3935 27.1149 26.3935 27.2487 26.4158H27.4048C30.1461 26.3243 32.7444 25.1703 34.6504 23.1978C36.5563 21.2253 37.6204 18.5889 37.6177 15.846C37.6177 10.0036 32.868 5.25391 27.0257 5.25391Z" fill="#878C90"/>
<path d="M38.3546 32.3451C32.1332 28.1975 21.9871 28.1975 15.721 32.3451C12.8891 34.2405 11.3281 36.8049 11.3281 39.5477C11.3281 42.2905 12.8891 44.8326 15.6988 46.7057C18.8206 48.8018 22.9237 49.8499 27.0267 49.8499C31.1297 49.8499 35.2328 48.8018 38.3546 46.7057C41.1643 44.8103 42.7253 42.2682 42.7253 39.5031C42.703 36.7603 41.1643 34.2182 38.3546 32.3451V32.3451Z" fill="#878C90"/>
</svg>
