<svg width="13" height="12" viewBox="0 0 13 12" fill="none" xmlns="http://www.w3.org/2000/svg">
<g clip-path="url(#clip0_2292_11115)">
<path fill-rule="evenodd" clip-rule="evenodd" d="M6.63079 10.1444C7.19903 10.1444 7.7617 10.0325 8.28669 9.81501C8.81168 9.59756 9.28869 9.27882 9.69049 8.87702C10.0923 8.47521 10.411 7.9982 10.6285 7.47321C10.8459 6.94823 10.9579 6.38555 10.9579 5.81731C10.9579 5.24907 10.8459 4.6864 10.6285 4.16141C10.411 3.63643 10.0923 3.15941 9.69049 2.75761C9.28869 2.3558 8.81168 2.03707 8.28669 1.81961C7.7617 1.60216 7.19903 1.49023 6.63079 1.49023C5.48318 1.49023 4.38257 1.94612 3.57108 2.75761C2.7596 3.56909 2.30371 4.6697 2.30371 5.81731C2.30371 6.96492 2.7596 8.06553 3.57108 8.87702C4.38257 9.6885 5.48318 10.1444 6.63079 10.1444ZM6.02981 4.13456V2.93259H7.23177V4.13456H6.02981ZM6.02981 8.70203V5.33653H7.23177V8.70203H6.02981Z" fill="#323232"/>
</g>
<defs>
<clipPath id="clip0_2292_11115">
<rect width="11.5389" height="11.5389" fill="white" transform="translate(0.861328 0.0488281)"/>
</clipPath>
</defs>
</svg>
