<svg width="45" height="50" viewBox="0 0 45 50" fill="none" xmlns="http://www.w3.org/2000/svg">
<path d="M11.282 38.5796L16.9577 47.4993C18.1825 49.4263 20.7776 50.0473 22.7543 48.7878C24.7103 47.542 25.2891 44.9492 24.042 42.9916L20.6609 37.6776L23.3175 35.987C23.8064 35.6754 23.9508 35.0269 23.6395 34.538L22.174 32.2349C22.3352 32.1963 23.3953 31.9404 42.09 27.4284C44.4154 27.2013 45.7019 24.5919 44.4367 22.6047L40.6911 16.7187L42.7727 13.2493C42.9771 12.908 42.9719 12.4811 42.7583 12.1455L40.5043 8.60337C40.2908 8.26785 39.9048 8.08258 39.5105 8.12299L35.4865 8.53914L31.3283 2.00443C30.7261 1.05777 29.6967 0.513258 28.5753 0.547683C28.5618 0.547857 28.5487 0.548422 28.5352 0.549005C27.4521 0.595732 26.4922 1.17723 25.949 2.1138L13.0029 20.1561L4.31886 25.682C0.903288 27.8547 -0.116181 32.4008 2.06468 35.8254C4.05724 38.957 8.02048 40.0517 11.282 38.5796ZM22.2714 44.1191C22.8938 45.096 22.6063 46.393 21.6265 47.0168C20.6435 47.6432 19.3443 47.3406 18.7288 46.3727L13.0936 37.5161L16.6358 35.262C23.1576 45.5123 22.1666 43.9549 22.2714 44.1191ZM19.5339 35.9061L18.4068 34.135L20.1779 33.008L21.3049 34.7791L19.5339 35.9061ZM39.0814 10.2776L40.639 12.7253L39.4311 14.7383L36.7464 10.5191L39.0814 10.2776ZM27.7527 3.18797C28.0143 2.7154 28.4587 2.64861 28.64 2.64572C28.8191 2.64004 29.2676 2.67651 29.5568 3.13106L42.6656 23.7318C43.0926 24.4024 42.6469 25.288 41.8511 25.342C41.7082 25.3515 41.6434 25.3801 41.2801 25.4643L27.4137 3.67332C27.6695 3.31345 27.7028 3.27835 27.7527 3.18797ZM26.0948 5.51134L39.123 25.985L20.9827 30.3627L15.0041 20.9677L26.0948 5.51134ZM3.83576 34.6984C3.34095 33.9215 3.05861 33.0275 3.01913 32.1124C2.93843 30.242 3.86853 28.4569 5.44589 27.4531L13.4157 22.3815L19.0509 31.2369L11.081 36.3089C8.63929 37.8622 5.38938 37.1397 3.83576 34.6984Z" fill="black"/>
</svg>
