<svg width="38" height="38" viewBox="0 0 38 38" fill="none" xmlns="http://www.w3.org/2000/svg">
<g clip-path="url(#clip0_896_5847)">
<path d="M35.5522 11.3305L32.2125 7.98922L33.662 6.53976C33.8082 6.39857 33.9248 6.22968 34.005 6.04294C34.0852 5.85621 34.1274 5.65536 34.1292 5.45214C34.131 5.24891 34.0922 5.04736 34.0153 4.85926C33.9383 4.67115 33.8247 4.50026 33.681 4.35655C33.5372 4.21284 33.3664 4.09919 33.1782 4.02223C32.9901 3.94527 32.7886 3.90655 32.5854 3.90831C32.3821 3.91008 32.1813 3.9523 31.9946 4.03252C31.8078 4.11273 31.6389 4.22934 31.4977 4.37552L30.0483 5.82498L26.707 2.48525C25.6539 1.48169 24.2549 0.921875 22.8002 0.921875C21.3455 0.921875 19.9465 1.48169 18.8934 2.48525C18.38 2.99825 17.9727 3.6074 17.6948 4.27788C17.4169 4.94837 17.2739 5.66704 17.2739 6.39283C17.2739 7.11862 17.4169 7.83729 17.6948 8.50777C17.9727 9.17826 18.38 9.7874 18.8934 10.3004L22.2331 13.6401L13.2119 22.6614L9.87063 19.3216C8.8175 18.3181 7.41855 17.7583 5.96382 17.7583C4.50909 17.7583 3.11015 18.3181 2.05701 19.3216C1.54359 19.8346 1.1363 20.4438 0.858415 21.1143C0.58053 21.7848 0.4375 22.5034 0.4375 23.2292C0.4375 23.955 0.58053 24.6737 0.858415 25.3442C1.1363 26.0146 1.54359 26.6238 2.05701 27.1368L5.39674 30.4765L3.94728 31.926C3.8011 32.0672 3.68449 32.2361 3.60428 32.4228C3.52406 32.6095 3.48184 32.8104 3.48007 33.0136C3.4783 33.2168 3.51703 33.4184 3.59399 33.6065C3.67095 33.7946 3.7846 33.9655 3.92831 34.1092C4.07202 34.2529 4.24291 34.3666 4.43102 34.4435C4.61912 34.5205 4.82066 34.5592 5.02389 34.5574C5.22712 34.5557 5.42797 34.5134 5.6147 34.4332C5.80144 34.353 5.97033 34.2364 6.11152 34.0902L7.56098 32.6408L10.9022 35.9805C11.4152 36.4937 12.0243 36.9008 12.6946 37.1785C13.3649 37.4563 14.0834 37.5992 14.8091 37.5992C15.5347 37.5992 16.2532 37.4563 16.9235 37.1785C17.5938 36.9008 18.2029 36.4937 18.7159 35.9805C19.2292 35.4676 19.6365 34.8586 19.9144 34.1882C20.1922 33.5179 20.3352 32.7993 20.3352 32.0737C20.3352 31.348 20.1922 30.6295 19.9144 29.9591C19.6365 29.2888 19.2292 28.6797 18.7159 28.1669L15.3761 24.8271L24.4066 15.8044L27.7463 19.1441C28.2593 19.6573 28.8683 20.0644 29.5387 20.3421C30.209 20.6199 30.9275 20.7628 31.6531 20.7628C32.3787 20.7628 33.0972 20.6199 33.7675 20.3421C34.4379 20.0644 35.0469 19.6573 35.5599 19.1441C36.0733 18.6312 36.4805 18.0222 36.7584 17.3519C37.0363 16.6815 37.1793 15.963 37.1793 15.2373C37.1793 14.5116 37.0363 13.7931 36.7584 13.1227C36.4805 12.4524 36.0733 11.8434 35.5599 11.3305H35.5522Z" fill="#C7F064"/>
</g>
<defs>
<clipPath id="clip0_896_5847">
<rect width="36.7339" height="36.7339" fill="white" transform="translate(0.4375 0.867188)"/>
</clipPath>
</defs>
</svg>
